<svg width="884" height="305" viewBox="0 0 884 305" fill="none" xmlns="http://www.w3.org/2000/svg">
<rect width="884" height="305" rx="12" fill="white"/>
<rect x="88" y="135" width="213" height="52" rx="4" fill="#030712"/>
<path d="M135.824 166.186C135.148 166.186 134.512 166.052 133.916 165.786C133.32 165.514 132.796 165.14 132.344 164.663C131.891 164.187 131.536 163.637 131.279 163.012C131.021 162.383 130.893 161.712 130.893 160.997C130.893 160.282 131.021 159.613 131.279 158.989C131.536 158.36 131.891 157.807 132.344 157.33C132.796 156.854 133.32 156.482 133.916 156.215C134.512 155.944 135.148 155.808 135.824 155.808C136.506 155.808 137.144 155.944 137.74 156.215C138.335 156.482 138.86 156.854 139.312 157.33C139.765 157.807 140.117 158.36 140.37 158.989C140.627 159.613 140.756 160.282 140.756 160.997C140.756 161.712 140.627 162.383 140.37 163.012C140.117 163.637 139.765 164.187 139.312 164.663C138.86 165.14 138.335 165.514 137.74 165.786C137.144 166.052 136.506 166.186 135.824 166.186ZM135.824 164.699C136.301 164.699 136.746 164.602 137.161 164.406C137.575 164.211 137.94 163.944 138.254 163.606C138.574 163.263 138.821 162.869 138.998 162.426C139.179 161.978 139.269 161.502 139.269 160.997C139.269 160.492 139.179 160.015 138.998 159.567C138.821 159.12 138.574 158.726 138.254 158.388C137.94 158.045 137.575 157.778 137.161 157.588C136.746 157.392 136.301 157.295 135.824 157.295C135.348 157.295 134.902 157.392 134.488 157.588C134.073 157.783 133.706 158.052 133.387 158.395C133.073 158.734 132.825 159.127 132.644 159.575C132.467 160.018 132.379 160.492 132.379 160.997C132.379 161.507 132.467 161.986 132.644 162.433C132.825 162.877 133.073 163.27 133.387 163.613C133.706 163.951 134.073 164.218 134.488 164.413C134.902 164.604 135.348 164.699 135.824 164.699ZM148.555 161.519V166H147.069V161.883C147.069 161.564 146.99 161.273 146.833 161.011C146.68 160.749 146.473 160.542 146.211 160.389C145.954 160.232 145.663 160.154 145.339 160.154C145.025 160.154 144.736 160.232 144.474 160.389C144.212 160.542 144.003 160.749 143.845 161.011C143.688 161.273 143.61 161.564 143.61 161.883V166H142.123V158.853H143.61V159.61C143.857 159.315 144.162 159.081 144.524 158.91C144.886 158.738 145.277 158.653 145.697 158.653C146.225 158.653 146.707 158.781 147.14 159.039C147.574 159.296 147.917 159.641 148.169 160.075C148.427 160.508 148.555 160.99 148.555 161.519ZM153.755 158.653C154.45 158.653 155.082 158.822 155.649 159.16C156.22 159.498 156.675 159.953 157.014 160.525C157.352 161.092 157.521 161.724 157.521 162.419C157.521 162.939 157.423 163.427 157.228 163.884C157.033 164.337 156.761 164.737 156.413 165.085C156.07 165.428 155.67 165.697 155.213 165.893C154.76 166.088 154.274 166.186 153.755 166.186C153.254 166.186 152.816 166.071 152.439 165.843C152.068 165.609 151.763 165.311 151.525 164.949V166H150.038V155.279H151.525V159.889C151.763 159.522 152.068 159.224 152.439 158.996C152.816 158.767 153.254 158.653 153.755 158.653ZM153.74 164.742C154.155 164.742 154.534 164.637 154.877 164.428C155.22 164.218 155.491 163.937 155.691 163.584C155.896 163.232 155.999 162.843 155.999 162.419C155.999 161.986 155.896 161.593 155.691 161.24C155.487 160.887 155.213 160.609 154.87 160.404C154.526 160.194 154.15 160.089 153.74 160.089C153.326 160.089 152.961 160.194 152.647 160.404C152.332 160.613 152.087 160.894 151.911 161.247C151.734 161.6 151.646 161.99 151.646 162.419C151.646 162.848 151.734 163.239 151.911 163.591C152.087 163.944 152.332 164.225 152.647 164.435C152.961 164.64 153.326 164.742 153.74 164.742ZM161.81 166.186C161.152 166.186 160.552 166.017 160.009 165.678C159.47 165.34 159.039 164.887 158.715 164.32C158.396 163.749 158.236 163.117 158.236 162.426C158.236 161.902 158.329 161.414 158.515 160.961C158.701 160.504 158.956 160.103 159.28 159.76C159.608 159.413 159.99 159.141 160.423 158.946C160.857 158.75 161.319 158.653 161.81 158.653C162.467 158.653 163.065 158.822 163.604 159.16C164.147 159.498 164.578 159.953 164.897 160.525C165.221 161.097 165.383 161.731 165.383 162.426C165.383 162.946 165.291 163.432 165.105 163.884C164.919 164.337 164.662 164.737 164.333 165.085C164.009 165.428 163.63 165.697 163.196 165.893C162.768 166.088 162.305 166.186 161.81 166.186ZM161.81 164.699C162.205 164.699 162.56 164.594 162.875 164.385C163.189 164.175 163.437 163.899 163.618 163.556C163.804 163.208 163.897 162.831 163.897 162.426C163.897 162.012 163.801 161.631 163.611 161.283C163.425 160.935 163.175 160.659 162.86 160.454C162.546 160.244 162.196 160.139 161.81 160.139C161.419 160.139 161.064 160.244 160.745 160.454C160.43 160.663 160.18 160.942 159.994 161.29C159.813 161.638 159.723 162.017 159.723 162.426C159.723 162.85 159.818 163.234 160.009 163.577C160.199 163.92 160.452 164.194 160.766 164.399C161.086 164.599 161.433 164.699 161.81 164.699ZM172.085 158.853H173.571V166H172.078L172.02 164.964C171.811 165.331 171.527 165.626 171.17 165.85C170.813 166.074 170.391 166.186 169.905 166.186C169.381 166.186 168.888 166.088 168.425 165.893C167.963 165.693 167.556 165.416 167.203 165.064C166.855 164.711 166.584 164.306 166.388 163.849C166.193 163.386 166.095 162.891 166.095 162.362C166.095 161.852 166.191 161.373 166.381 160.925C166.572 160.473 166.836 160.077 167.175 159.739C167.513 159.401 167.904 159.136 168.347 158.946C168.795 158.75 169.274 158.653 169.783 158.653C170.303 158.653 170.76 158.772 171.156 159.01C171.556 159.243 171.887 159.544 172.149 159.911L172.085 158.853ZM169.869 164.749C170.288 164.749 170.655 164.647 170.97 164.442C171.284 164.232 171.527 163.951 171.699 163.599C171.875 163.246 171.963 162.855 171.963 162.426C171.963 161.993 171.875 161.6 171.699 161.247C171.523 160.894 171.277 160.616 170.963 160.411C170.653 160.201 170.288 160.096 169.869 160.096C169.455 160.096 169.076 160.201 168.733 160.411C168.39 160.62 168.118 160.902 167.918 161.254C167.718 161.607 167.618 161.998 167.618 162.426C167.618 162.86 167.72 163.253 167.925 163.606C168.135 163.953 168.409 164.232 168.747 164.442C169.09 164.647 169.464 164.749 169.869 164.749ZM174.998 166V158.853H176.484V159.61C176.732 159.315 177.037 159.081 177.399 158.91C177.761 158.738 178.152 158.653 178.571 158.653C178.838 158.653 179.103 158.688 179.365 158.76L178.771 160.261C178.586 160.189 178.4 160.154 178.214 160.154C177.899 160.154 177.611 160.232 177.349 160.389C177.087 160.542 176.877 160.749 176.72 161.011C176.563 161.273 176.484 161.564 176.484 161.883V166H174.998ZM185.423 155.279H186.91V166H185.423V164.949C185.19 165.321 184.885 165.621 184.508 165.85C184.132 166.074 183.691 166.186 183.186 166.186C182.667 166.186 182.181 166.088 181.728 165.893C181.276 165.697 180.875 165.428 180.527 165.085C180.184 164.737 179.915 164.337 179.72 163.884C179.524 163.432 179.427 162.946 179.427 162.426C179.427 161.907 179.524 161.421 179.72 160.968C179.915 160.511 180.184 160.111 180.527 159.768C180.875 159.42 181.276 159.148 181.728 158.953C182.181 158.757 182.667 158.66 183.186 158.66C183.691 158.66 184.132 158.774 184.508 159.003C184.885 159.227 185.19 159.522 185.423 159.889V155.279ZM183.201 164.749C183.62 164.749 183.987 164.647 184.301 164.442C184.616 164.232 184.859 163.951 185.03 163.599C185.207 163.246 185.295 162.855 185.295 162.426C185.295 161.993 185.207 161.6 185.03 161.247C184.854 160.894 184.609 160.616 184.294 160.411C183.984 160.201 183.62 160.096 183.201 160.096C182.786 160.096 182.407 160.201 182.064 160.411C181.726 160.62 181.454 160.902 181.249 161.254C181.049 161.607 180.949 161.998 180.949 162.426C180.949 162.86 181.052 163.253 181.256 163.606C181.466 163.953 181.74 164.232 182.078 164.442C182.421 164.647 182.795 164.749 183.201 164.749ZM188.622 158.853H190.109V166H188.622V158.853ZM189.38 157.816C189.151 157.816 188.96 157.742 188.808 157.595C188.656 157.447 188.579 157.261 188.579 157.037C188.579 156.818 188.656 156.635 188.808 156.487C188.96 156.334 189.149 156.258 189.373 156.258C189.592 156.258 189.778 156.334 189.93 156.487C190.083 156.635 190.159 156.818 190.159 157.037C190.159 157.261 190.083 157.447 189.93 157.595C189.782 157.742 189.599 157.816 189.38 157.816ZM198.196 161.519V166H196.709V161.883C196.709 161.564 196.63 161.273 196.473 161.011C196.321 160.749 196.113 160.542 195.851 160.389C195.594 160.232 195.303 160.154 194.979 160.154C194.665 160.154 194.377 160.232 194.115 160.389C193.852 160.542 193.643 160.749 193.486 161.011C193.328 161.273 193.25 161.564 193.25 161.883V166H191.763V158.853H193.25V159.61C193.497 159.315 193.802 159.081 194.165 158.91C194.527 158.738 194.917 158.653 195.337 158.653C195.866 158.653 196.347 158.781 196.78 159.039C197.214 159.296 197.557 159.641 197.81 160.075C198.067 160.508 198.196 160.99 198.196 161.519ZM204.922 158.853H206.408V166.186C206.408 166.677 206.304 167.129 206.094 167.544C205.889 167.958 205.61 168.316 205.258 168.616C204.905 168.921 204.5 169.157 204.043 169.323C203.59 169.49 203.116 169.574 202.62 169.574C202.12 169.574 201.639 169.466 201.177 169.252C200.714 169.042 200.307 168.756 199.954 168.394C199.607 168.032 199.347 167.622 199.175 167.165L200.541 166.55C200.636 166.846 200.788 167.108 200.998 167.337C201.212 167.565 201.46 167.746 201.741 167.88C202.027 168.013 202.32 168.08 202.62 168.08C202.916 168.08 203.199 168.032 203.471 167.937C203.747 167.846 203.993 167.718 204.207 167.551C204.426 167.384 204.6 167.184 204.729 166.951C204.857 166.717 204.922 166.462 204.922 166.186V164.978C204.688 165.34 204.388 165.633 204.021 165.857C203.654 166.076 203.228 166.186 202.742 166.186C202.237 166.186 201.76 166.088 201.312 165.893C200.865 165.697 200.471 165.428 200.133 165.085C199.795 164.737 199.53 164.337 199.34 163.884C199.149 163.432 199.054 162.946 199.054 162.426C199.054 161.907 199.149 161.421 199.34 160.968C199.53 160.511 199.795 160.111 200.133 159.768C200.471 159.42 200.865 159.148 201.312 158.953C201.76 158.757 202.237 158.66 202.742 158.66C203.228 158.66 203.654 158.772 204.021 158.996C204.388 159.215 204.688 159.508 204.922 159.875V158.853ZM202.756 164.749C203.171 164.749 203.533 164.644 203.843 164.435C204.152 164.22 204.393 163.937 204.564 163.584C204.736 163.232 204.822 162.846 204.822 162.426C204.822 161.998 204.734 161.609 204.557 161.261C204.386 160.909 204.145 160.628 203.835 160.418C203.526 160.204 203.166 160.096 202.756 160.096C202.356 160.096 201.989 160.201 201.655 160.411C201.327 160.62 201.065 160.902 200.869 161.254C200.674 161.607 200.576 161.998 200.576 162.426C200.576 162.855 200.674 163.246 200.869 163.599C201.069 163.951 201.334 164.232 201.663 164.442C201.996 164.647 202.361 164.749 202.756 164.749ZM213.702 166.136C213.326 166.112 212.959 166.036 212.601 165.907C212.244 165.778 211.929 165.605 211.658 165.385C211.391 165.161 211.191 164.899 211.057 164.599L212.323 164.056C212.384 164.185 212.492 164.311 212.644 164.435C212.801 164.559 212.985 164.661 213.194 164.742C213.404 164.818 213.623 164.856 213.852 164.856C214.076 164.856 214.283 164.825 214.474 164.764C214.669 164.697 214.829 164.597 214.953 164.463C215.077 164.33 215.139 164.17 215.139 163.984C215.139 163.775 215.067 163.613 214.924 163.498C214.786 163.379 214.612 163.289 214.402 163.227C214.193 163.165 213.983 163.105 213.773 163.048C213.306 162.943 212.878 162.8 212.487 162.619C212.101 162.433 211.794 162.198 211.565 161.912C211.336 161.621 211.222 161.266 211.222 160.847C211.222 160.389 211.346 159.994 211.593 159.66C211.841 159.322 212.165 159.062 212.566 158.881C212.971 158.7 213.402 158.61 213.859 158.61C214.431 158.61 214.955 158.731 215.432 158.974C215.908 159.217 216.273 159.551 216.525 159.975L215.346 160.675C215.274 160.532 215.167 160.404 215.024 160.289C214.881 160.175 214.719 160.084 214.538 160.018C214.357 159.946 214.169 159.906 213.974 159.896C213.731 159.887 213.504 159.915 213.295 159.982C213.09 160.044 212.925 160.144 212.801 160.282C212.677 160.42 212.616 160.597 212.616 160.811C212.616 161.021 212.689 161.178 212.837 161.283C212.985 161.383 213.171 161.464 213.395 161.526C213.623 161.588 213.857 161.657 214.095 161.733C214.519 161.866 214.917 162.031 215.289 162.226C215.66 162.417 215.96 162.653 216.189 162.934C216.418 163.215 216.528 163.558 216.518 163.963C216.518 164.411 216.382 164.804 216.111 165.142C215.844 165.481 215.496 165.738 215.067 165.914C214.638 166.091 214.183 166.164 213.702 166.136ZM222.311 163.97L223.641 164.692C223.317 165.145 222.905 165.507 222.404 165.778C221.909 166.05 221.37 166.186 220.789 166.186C220.131 166.186 219.531 166.017 218.988 165.678C218.449 165.34 218.018 164.887 217.694 164.32C217.375 163.749 217.215 163.117 217.215 162.426C217.215 161.902 217.308 161.414 217.494 160.961C217.68 160.504 217.935 160.103 218.259 159.76C218.588 159.413 218.969 159.141 219.402 158.946C219.836 158.75 220.298 158.653 220.789 158.653C221.37 158.653 221.909 158.788 222.404 159.06C222.905 159.332 223.317 159.696 223.641 160.154L222.311 160.875C222.111 160.637 221.878 160.456 221.611 160.332C221.344 160.204 221.07 160.139 220.789 160.139C220.398 160.139 220.043 160.246 219.724 160.461C219.409 160.67 219.159 160.949 218.974 161.297C218.792 161.64 218.702 162.017 218.702 162.426C218.702 162.831 218.795 163.208 218.981 163.556C219.166 163.899 219.417 164.175 219.731 164.385C220.05 164.594 220.403 164.699 220.789 164.699C221.084 164.699 221.365 164.632 221.632 164.499C221.899 164.366 222.125 164.189 222.311 163.97ZM224.931 166V158.853H226.418V159.61C226.665 159.315 226.97 159.081 227.333 158.91C227.695 158.738 228.085 158.653 228.505 158.653C228.771 158.653 229.036 158.688 229.298 158.76L228.705 160.261C228.519 160.189 228.333 160.154 228.147 160.154C227.833 160.154 227.545 160.232 227.282 160.389C227.02 160.542 226.811 160.749 226.654 161.011C226.496 161.273 226.418 161.564 226.418 161.883V166H224.931ZM232.934 166.186C232.276 166.186 231.676 166.017 231.133 165.678C230.594 165.34 230.163 164.887 229.839 164.32C229.52 163.749 229.36 163.117 229.36 162.426C229.36 161.902 229.453 161.414 229.639 160.961C229.825 160.504 230.08 160.103 230.404 159.76C230.732 159.413 231.114 159.141 231.547 158.946C231.981 158.75 232.443 158.653 232.934 158.653C233.482 158.653 233.984 158.767 234.442 158.996C234.899 159.22 235.29 159.532 235.614 159.932C235.938 160.327 236.176 160.785 236.329 161.304C236.481 161.819 236.526 162.367 236.465 162.948H230.954C231.016 163.277 231.135 163.575 231.311 163.842C231.492 164.104 231.721 164.311 231.997 164.463C232.279 164.616 232.591 164.694 232.934 164.699C233.296 164.699 233.625 164.609 233.92 164.428C234.22 164.247 234.466 163.996 234.656 163.677L236.164 164.027C235.878 164.661 235.447 165.18 234.871 165.585C234.294 165.986 233.648 166.186 232.934 166.186ZM230.904 161.812H234.964C234.916 161.469 234.794 161.159 234.599 160.883C234.408 160.601 234.168 160.38 233.877 160.218C233.591 160.051 233.277 159.968 232.934 159.968C232.595 159.968 232.281 160.049 231.99 160.211C231.704 160.373 231.466 160.594 231.276 160.875C231.09 161.152 230.966 161.464 230.904 161.812ZM240.779 166.186C240.121 166.186 239.521 166.017 238.978 165.678C238.439 165.34 238.008 164.887 237.684 164.32C237.365 163.749 237.205 163.117 237.205 162.426C237.205 161.902 237.298 161.414 237.484 160.961C237.67 160.504 237.925 160.103 238.249 159.76C238.578 159.413 238.959 159.141 239.392 158.946C239.826 158.75 240.288 158.653 240.779 158.653C241.327 158.653 241.83 158.767 242.287 158.996C242.745 159.22 243.135 159.532 243.459 159.932C243.783 160.327 244.022 160.785 244.174 161.304C244.326 161.819 244.372 162.367 244.31 162.948H238.799C238.861 163.277 238.98 163.575 239.157 163.842C239.338 164.104 239.566 164.311 239.843 164.463C240.124 164.616 240.436 164.694 240.779 164.699C241.141 164.699 241.47 164.609 241.765 164.428C242.066 164.247 242.311 163.996 242.502 163.677L244.01 164.027C243.724 164.661 243.292 165.18 242.716 165.585C242.139 165.986 241.494 166.186 240.779 166.186ZM238.749 161.812H242.809C242.761 161.469 242.64 161.159 242.444 160.883C242.254 160.601 242.013 160.38 241.722 160.218C241.437 160.051 241.122 159.968 240.779 159.968C240.441 159.968 240.126 160.049 239.836 160.211C239.55 160.373 239.311 160.594 239.121 160.875C238.935 161.152 238.811 161.464 238.749 161.812ZM251.926 161.519V166H250.439V161.883C250.439 161.564 250.361 161.273 250.204 161.011C250.051 160.749 249.844 160.542 249.582 160.389C249.324 160.232 249.034 160.154 248.71 160.154C248.395 160.154 248.107 160.232 247.845 160.389C247.583 160.542 247.373 160.749 247.216 161.011C247.059 161.273 246.98 161.564 246.98 161.883V166H245.493V158.853H246.98V159.61C247.228 159.315 247.533 159.081 247.895 158.91C248.257 158.738 248.648 158.653 249.067 158.653C249.596 158.653 250.077 158.781 250.511 159.039C250.944 159.296 251.288 159.641 251.54 160.075C251.797 160.508 251.926 160.99 251.926 161.519ZM255.497 166.136C255.12 166.112 254.754 166.036 254.396 165.907C254.039 165.778 253.724 165.605 253.453 165.385C253.186 165.161 252.986 164.899 252.852 164.599L254.117 164.056C254.179 164.185 254.287 164.311 254.439 164.435C254.596 164.559 254.78 164.661 254.989 164.742C255.199 164.818 255.418 164.856 255.647 164.856C255.871 164.856 256.078 164.825 256.269 164.764C256.464 164.697 256.624 164.597 256.748 164.463C256.872 164.33 256.933 164.17 256.933 163.984C256.933 163.775 256.862 163.613 256.719 163.498C256.581 163.379 256.407 163.289 256.197 163.227C255.988 163.165 255.778 163.105 255.568 163.048C255.101 162.943 254.673 162.8 254.282 162.619C253.896 162.433 253.589 162.198 253.36 161.912C253.131 161.621 253.017 161.266 253.017 160.847C253.017 160.389 253.141 159.994 253.388 159.66C253.636 159.322 253.96 159.062 254.36 158.881C254.765 158.7 255.197 158.61 255.654 158.61C256.226 158.61 256.75 158.731 257.227 158.974C257.703 159.217 258.068 159.551 258.32 159.975L257.141 160.675C257.069 160.532 256.962 160.404 256.819 160.289C256.676 160.175 256.514 160.084 256.333 160.018C256.152 159.946 255.964 159.906 255.768 159.896C255.525 159.887 255.299 159.915 255.089 159.982C254.885 160.044 254.72 160.144 254.596 160.282C254.472 160.42 254.41 160.597 254.41 160.811C254.41 161.021 254.484 161.178 254.632 161.283C254.78 161.383 254.966 161.464 255.19 161.526C255.418 161.588 255.652 161.657 255.89 161.733C256.314 161.866 256.712 162.031 257.084 162.226C257.455 162.417 257.755 162.653 257.984 162.934C258.213 163.215 258.322 163.558 258.313 163.963C258.313 164.411 258.177 164.804 257.906 165.142C257.639 165.481 257.291 165.738 256.862 165.914C256.433 166.091 255.978 166.164 255.497 166.136Z" fill="#FF974B"/>
<path d="M301 169H334.877C337.086 169 338.877 167.209 338.877 165V120C338.877 117.791 340.668 116 342.877 116H374" stroke="#E5E7EB"/>
<path d="M558 116H581.5C583.709 116 585.5 114.209 585.5 112V67C585.5 64.7909 587.291 63 589.5 63H611" stroke="#E5E7EB"/>
<path d="M558 256H581.5C583.709 256 585.5 254.209 585.5 252V67C585.5 64.7909 587.291 63 589.5 63H611" stroke="#E5E7EB"/>
<path d="M301 169H334.877C337.086 169 338.877 170.791 338.877 173V251C338.877 253.209 340.668 255 342.877 255H374" stroke="#E5E7EB"/>
<rect x="374" y="83" width="184" height="52" rx="4" fill="#F3F4F6"/>
<rect x="611" y="31" width="184" height="52" rx="4" fill="#F3F4F6"/>
<rect x="374" y="222" width="184" height="52" rx="4" fill="#F3F4F6"/>
</svg>
