<svg width="884" height="305" viewBox="0 0 884 305" fill="none" xmlns="http://www.w3.org/2000/svg">
<rect width="884" height="305" rx="12" fill="white"/>
<rect x="388" y="91" width="105" height="190" rx="4" fill="#030712"/>
<rect x="410" y="108" width="62" height="8" rx="2" fill="#FF974B"/>
<rect x="266" y="135" width="105" height="146" rx="4" fill="#F3F4F6"/>
<rect x="140" y="206" width="105" height="75" rx="4" fill="#F3F4F6"/>
<rect x="512" y="64" width="105" height="217" rx="4" fill="#F3F4F6"/>
<rect x="638" y="33" width="105" height="248" rx="4" fill="#F3F4F6"/>
<path d="M444.354 23.6464C444.158 23.4512 443.842 23.4512 443.646 23.6464L440.464 26.8284C440.269 27.0237 440.269 27.3403 440.464 27.5355C440.66 27.7308 440.976 27.7308 441.172 27.5355L444 24.7071L446.828 27.5355C447.024 27.7308 447.34 27.7308 447.536 27.5355C447.731 27.3403 447.731 27.0237 447.536 26.8284L444.354 23.6464ZM320 120H320.5V70.7754H320H319.5V120H320ZM324 66.7754V67.2754H440V66.7754V66.2754H324V66.7754ZM444 62.7754H444.5V24H444H443.5V62.7754H444ZM440 66.7754V67.2754C442.485 67.2754 444.5 65.2607 444.5 62.7754H444H443.5C443.5 64.7084 441.933 66.2754 440 66.2754V66.7754ZM320 70.7754H320.5C320.5 68.8424 322.067 67.2754 324 67.2754V66.7754V66.2754C321.515 66.2754 319.5 68.2901 319.5 70.7754H320Z" fill="#D1D5DB"/>
</svg>
