<svg width="884" height="305" viewBox="0 0 884 305" fill="none" xmlns="http://www.w3.org/2000/svg">
<rect width="884" height="305" rx="8.81977" fill="white"/>
<rect x="323" y="120" width="201" height="55" rx="3.5914" fill="#030712"/>
<path d="M391.316 154.431C390.572 154.431 389.873 154.284 389.218 153.991C388.563 153.692 387.987 153.284 387.49 152.765C386.997 152.242 386.61 151.634 386.327 150.943C386.05 150.251 385.911 149.513 385.911 148.727C385.911 147.942 386.05 147.203 386.327 146.512C386.61 145.82 386.997 145.216 387.49 144.697C387.987 144.173 388.563 143.765 389.218 143.471C389.873 143.173 390.572 143.024 391.316 143.024C392.206 143.024 393.026 143.231 393.775 143.644C394.524 144.058 395.144 144.608 395.637 145.294L394.183 146.072C393.843 145.642 393.421 145.299 392.918 145.043C392.416 144.786 391.881 144.658 391.316 144.658C390.792 144.658 390.302 144.765 389.847 144.98C389.391 145.195 388.99 145.488 388.645 145.86C388.299 146.232 388.029 146.664 387.835 147.156C387.642 147.648 387.545 148.172 387.545 148.727C387.545 149.288 387.642 149.814 387.835 150.306C388.029 150.793 388.299 151.226 388.645 151.603C388.996 151.974 389.399 152.268 389.855 152.482C390.31 152.692 390.797 152.797 391.316 152.797C391.892 152.797 392.429 152.668 392.926 152.412C393.429 152.15 393.848 151.804 394.183 151.375L395.637 152.168C395.144 152.854 394.524 153.404 393.775 153.818C393.026 154.227 392.206 154.431 391.316 154.431ZM404.236 149.301V154.227H402.602V149.701C402.602 149.35 402.515 149.031 402.343 148.743C402.175 148.455 401.947 148.227 401.659 148.059C401.376 147.887 401.057 147.8 400.701 147.8C400.355 147.8 400.038 147.887 399.75 148.059C399.462 148.227 399.231 148.455 399.059 148.743C398.886 149.031 398.799 149.35 398.799 149.701V154.227H397.165V142.442H398.799V147.203C399.072 146.878 399.407 146.622 399.805 146.433C400.203 146.245 400.633 146.15 401.093 146.15C401.675 146.15 402.204 146.292 402.68 146.575C403.157 146.857 403.534 147.237 403.812 147.714C404.094 148.19 404.236 148.719 404.236 149.301ZM411.763 146.37H413.397V154.227H411.755L411.692 153.087C411.462 153.491 411.15 153.815 410.757 154.062C410.364 154.308 409.901 154.431 409.367 154.431C408.79 154.431 408.248 154.323 407.74 154.109C407.232 153.889 406.785 153.585 406.397 153.197C406.015 152.81 405.716 152.365 405.501 151.862C405.287 151.354 405.179 150.809 405.179 150.228C405.179 149.667 405.284 149.141 405.493 148.649C405.703 148.151 405.994 147.716 406.366 147.345C406.737 146.973 407.167 146.682 407.654 146.473C408.146 146.258 408.673 146.15 409.233 146.15C409.804 146.15 410.307 146.281 410.741 146.543C411.181 146.8 411.545 147.13 411.833 147.533L411.763 146.37ZM409.327 152.852C409.788 152.852 410.191 152.739 410.537 152.514C410.883 152.283 411.15 151.974 411.338 151.587C411.532 151.199 411.629 150.77 411.629 150.298C411.629 149.822 411.532 149.39 411.338 149.002C411.145 148.615 410.875 148.308 410.529 148.083C410.189 147.853 409.788 147.737 409.327 147.737C408.872 147.737 408.455 147.853 408.078 148.083C407.701 148.313 407.403 148.622 407.183 149.01C406.963 149.398 406.853 149.827 406.853 150.298C406.853 150.775 406.965 151.207 407.19 151.595C407.421 151.977 407.722 152.283 408.094 152.514C408.471 152.739 408.882 152.852 409.327 152.852ZM415.026 154.227V142.442H416.66V154.227H415.026ZM418.54 154.227V142.442H420.174V154.227H418.54ZM425.403 154.431C424.68 154.431 424.02 154.245 423.423 153.873C422.831 153.501 422.357 153.004 422.001 152.38C421.65 151.752 421.475 151.058 421.475 150.298C421.475 149.722 421.577 149.186 421.781 148.688C421.985 148.185 422.266 147.745 422.622 147.368C422.983 146.986 423.402 146.687 423.879 146.473C424.355 146.258 424.863 146.15 425.403 146.15C426.005 146.15 426.558 146.276 427.06 146.528C427.563 146.774 427.993 147.117 428.349 147.557C428.705 147.991 428.967 148.494 429.134 149.065C429.302 149.631 429.352 150.233 429.284 150.872H423.227C423.295 151.233 423.426 151.561 423.619 151.854C423.818 152.142 424.07 152.37 424.374 152.537C424.683 152.705 425.026 152.791 425.403 152.797C425.801 152.797 426.162 152.697 426.487 152.498C426.817 152.299 427.087 152.024 427.296 151.673L428.954 152.058C428.64 152.755 428.166 153.326 427.532 153.771C426.898 154.211 426.188 154.431 425.403 154.431ZM423.172 149.623H427.634C427.582 149.246 427.448 148.905 427.233 148.602C427.024 148.293 426.759 148.049 426.44 147.871C426.126 147.688 425.78 147.596 425.403 147.596C425.031 147.596 424.685 147.685 424.366 147.863C424.052 148.041 423.79 148.285 423.58 148.594C423.376 148.897 423.24 149.241 423.172 149.623ZM437.655 149.301V154.227H436.021V149.701C436.021 149.35 435.935 149.031 435.762 148.743C435.594 148.455 435.367 148.227 435.079 148.059C434.796 147.887 434.476 147.8 434.12 147.8C433.774 147.8 433.458 147.887 433.169 148.059C432.881 148.227 432.651 148.455 432.478 148.743C432.305 149.031 432.219 149.35 432.219 149.701V154.227H430.585V146.37H432.219V147.203C432.491 146.878 432.826 146.622 433.224 146.433C433.623 146.245 434.052 146.15 434.513 146.15C435.094 146.15 435.623 146.292 436.1 146.575C436.576 146.857 436.954 147.237 437.231 147.714C437.514 148.19 437.655 148.719 437.655 149.301ZM445.049 146.37H446.683V154.431C446.683 154.97 446.567 155.468 446.337 155.923C446.112 156.379 445.805 156.772 445.418 157.102C445.03 157.437 444.585 157.696 444.082 157.88C443.585 158.063 443.064 158.155 442.519 158.155C441.969 158.155 441.44 158.037 440.932 157.801C440.424 157.571 439.976 157.256 439.589 156.858C439.206 156.46 438.921 156.01 438.732 155.507L440.233 154.831C440.338 155.156 440.505 155.444 440.736 155.696C440.971 155.947 441.244 156.146 441.553 156.293C441.867 156.439 442.189 156.513 442.519 156.513C442.844 156.513 443.155 156.46 443.454 156.356C443.758 156.256 444.027 156.115 444.263 155.931C444.504 155.748 444.695 155.528 444.837 155.271C444.978 155.015 445.049 154.735 445.049 154.431V153.103C444.792 153.501 444.462 153.823 444.059 154.069C443.655 154.31 443.187 154.431 442.653 154.431C442.097 154.431 441.574 154.323 441.081 154.109C440.589 153.894 440.157 153.598 439.785 153.221C439.413 152.839 439.122 152.399 438.913 151.901C438.703 151.404 438.599 150.869 438.599 150.298C438.599 149.728 438.703 149.193 438.913 148.696C439.122 148.193 439.413 147.753 439.785 147.376C440.157 146.994 440.589 146.695 441.081 146.48C441.574 146.266 442.097 146.158 442.653 146.158C443.187 146.158 443.655 146.281 444.059 146.528C444.462 146.768 444.792 147.091 445.049 147.494V146.37ZM442.668 152.852C443.124 152.852 443.522 152.737 443.862 152.506C444.203 152.27 444.467 151.959 444.656 151.571C444.844 151.184 444.939 150.759 444.939 150.298C444.939 149.827 444.842 149.4 444.648 149.018C444.459 148.63 444.195 148.321 443.854 148.091C443.514 147.855 443.119 147.737 442.668 147.737C442.228 147.737 441.825 147.853 441.458 148.083C441.097 148.313 440.809 148.622 440.594 149.01C440.379 149.398 440.272 149.827 440.272 150.298C440.272 150.77 440.379 151.199 440.594 151.587C440.814 151.974 441.105 152.283 441.466 152.514C441.833 152.739 442.234 152.852 442.668 152.852ZM451.887 154.431C451.164 154.431 450.504 154.245 449.907 153.873C449.315 153.501 448.841 153.004 448.485 152.38C448.134 151.752 447.959 151.058 447.959 150.298C447.959 149.722 448.061 149.186 448.265 148.688C448.469 148.185 448.749 147.745 449.106 147.368C449.467 146.986 449.886 146.687 450.363 146.473C450.839 146.258 451.347 146.15 451.887 146.15C452.489 146.15 453.042 146.276 453.544 146.528C454.047 146.774 454.477 147.117 454.833 147.557C455.189 147.991 455.451 148.494 455.618 149.065C455.786 149.631 455.836 150.233 455.768 150.872H449.711C449.779 151.233 449.91 151.561 450.103 151.854C450.302 152.142 450.554 152.37 450.858 152.537C451.167 152.705 451.51 152.791 451.887 152.797C452.285 152.797 452.646 152.697 452.971 152.498C453.301 152.299 453.571 152.024 453.78 151.673L455.438 152.058C455.123 152.755 454.649 153.326 454.016 153.771C453.382 154.211 452.672 154.431 451.887 154.431ZM449.656 149.623H454.118C454.065 149.246 453.932 148.905 453.717 148.602C453.508 148.293 453.243 148.049 452.924 147.871C452.609 147.688 452.264 147.596 451.887 147.596C451.515 147.596 451.169 147.685 450.85 147.863C450.535 148.041 450.274 148.285 450.064 148.594C449.86 148.897 449.724 149.241 449.656 149.623ZM459.456 154.376C459.043 154.35 458.639 154.266 458.246 154.124C457.854 153.983 457.508 153.792 457.209 153.551C456.916 153.305 456.696 153.017 456.549 152.687L457.94 152.09C458.008 152.231 458.126 152.37 458.294 152.506C458.466 152.642 458.668 152.755 458.898 152.844C459.129 152.928 459.37 152.97 459.621 152.97C459.867 152.97 460.095 152.936 460.305 152.867C460.519 152.794 460.695 152.684 460.831 152.537C460.967 152.391 461.035 152.215 461.035 152.011C461.035 151.781 460.957 151.603 460.8 151.477C460.648 151.346 460.457 151.246 460.226 151.178C459.996 151.11 459.765 151.045 459.535 150.982C459.022 150.867 458.55 150.71 458.121 150.511C457.696 150.306 457.359 150.047 457.107 149.733C456.856 149.413 456.73 149.023 456.73 148.562C456.73 148.059 456.866 147.625 457.139 147.258C457.411 146.886 457.767 146.601 458.207 146.402C458.652 146.203 459.126 146.103 459.629 146.103C460.258 146.103 460.834 146.237 461.357 146.504C461.881 146.771 462.282 147.138 462.559 147.604L461.263 148.374C461.185 148.217 461.067 148.075 460.91 147.949C460.753 147.824 460.574 147.724 460.375 147.651C460.176 147.572 459.97 147.528 459.755 147.517C459.488 147.507 459.239 147.538 459.008 147.612C458.783 147.68 458.603 147.79 458.466 147.942C458.33 148.094 458.262 148.287 458.262 148.523C458.262 148.753 458.343 148.926 458.506 149.041C458.668 149.151 458.872 149.241 459.118 149.309C459.37 149.377 459.626 149.453 459.888 149.536C460.354 149.683 460.792 149.864 461.2 150.078C461.609 150.288 461.939 150.547 462.19 150.856C462.442 151.165 462.562 151.542 462.552 151.988C462.552 152.48 462.402 152.912 462.104 153.284C461.81 153.656 461.428 153.939 460.957 154.132C460.485 154.326 459.985 154.407 459.456 154.376Z" fill="#FF974B"/>
<rect x="160" y="56" width="200" height="55" rx="3.5914" fill="#030712"/>
<path d="M246.421 90.4311C245.657 90.4311 244.944 90.2844 244.284 89.9911C243.63 89.6926 243.056 89.2814 242.564 88.7577C242.077 88.2287 241.694 87.6186 241.417 86.9272C241.144 86.2359 241.008 85.5 241.008 84.7196C241.008 83.8973 241.155 83.1405 241.448 82.4492C241.742 81.7578 242.142 81.1582 242.65 80.6501C243.158 80.1368 243.737 79.7388 244.386 79.456C245.041 79.1732 245.727 79.0317 246.445 79.0317C247.257 79.0317 248.037 79.2203 248.786 79.5974C249.535 79.9745 250.187 80.5401 250.742 81.2943L249.281 82.0878C248.904 81.6164 248.464 81.2603 247.961 81.0194C247.463 80.7784 246.953 80.658 246.429 80.658C245.921 80.658 245.439 80.7627 244.984 80.9722C244.528 81.1765 244.125 81.4645 243.774 81.8364C243.423 82.203 243.145 82.6351 242.941 83.1327C242.742 83.625 242.642 84.1618 242.642 84.7432C242.642 85.3036 242.739 85.83 242.933 86.3223C243.132 86.8146 243.404 87.2467 243.75 87.6186C244.101 87.9852 244.504 88.2732 244.96 88.4827C245.421 88.6922 245.913 88.797 246.437 88.797C246.824 88.797 247.196 88.7341 247.552 88.6084C247.909 88.4827 248.239 88.3047 248.542 88.0742C248.851 87.8385 249.121 87.5583 249.352 87.2336C249.582 86.9089 249.765 86.5475 249.901 86.1494H247.568V84.7039H251.818C251.829 85.4895 251.693 86.228 251.41 86.9194C251.132 87.6107 250.745 88.2209 250.247 88.7498C249.755 89.2736 249.181 89.6847 248.527 89.9833C247.872 90.2818 247.17 90.4311 246.421 90.4311ZM256.64 90.4311C255.917 90.4311 255.258 90.2451 254.66 89.8733C254.069 89.5014 253.595 89.0039 253.239 88.3806C252.888 87.7521 252.712 87.0581 252.712 86.2987C252.712 85.7226 252.814 85.1858 253.019 84.6882C253.223 84.1854 253.503 83.7455 253.859 83.3684C254.221 82.986 254.64 82.6875 255.116 82.4728C255.593 82.258 256.101 82.1506 256.64 82.1506C257.363 82.1506 258.02 82.3366 258.612 82.7084C259.209 83.0803 259.683 83.5805 260.034 84.209C260.39 84.8375 260.568 85.534 260.568 86.2987C260.568 86.8696 260.466 87.4038 260.262 87.9014C260.058 88.3989 259.775 88.8389 259.413 89.2212C259.057 89.5983 258.641 89.8942 258.164 90.109C257.693 90.3237 257.185 90.4311 256.64 90.4311ZM256.64 88.797C257.075 88.797 257.465 88.6818 257.811 88.4513C258.156 88.2209 258.429 87.9171 258.628 87.54C258.832 87.1577 258.934 86.7439 258.934 86.2987C258.934 85.8431 258.83 85.4241 258.62 85.0417C258.416 84.6594 258.141 84.3556 257.795 84.1304C257.449 83.9 257.064 83.7847 256.64 83.7847C256.211 83.7847 255.821 83.9 255.47 84.1304C255.124 84.3609 254.849 84.6672 254.645 85.0496C254.446 85.4319 254.346 85.8483 254.346 86.2987C254.346 86.7648 254.451 87.1865 254.66 87.5636C254.87 87.9407 255.148 88.2418 255.493 88.467C255.844 88.687 256.226 88.797 256.64 88.797ZM267.934 82.3706H269.568V90.2268H267.927L267.864 89.0877C267.633 89.4909 267.322 89.8157 266.929 90.0618C266.536 90.308 266.072 90.4311 265.538 90.4311C264.962 90.4311 264.42 90.3237 263.912 90.109C263.404 89.889 262.956 89.5852 262.569 89.1976C262.186 88.8101 261.888 88.3649 261.673 87.8621C261.458 87.3541 261.351 86.8094 261.351 86.228C261.351 85.6676 261.456 85.1412 261.665 84.6489C261.875 84.1514 262.165 83.7166 262.537 83.3448C262.909 82.9729 263.339 82.6823 263.826 82.4728C264.318 82.258 264.844 82.1506 265.405 82.1506C265.976 82.1506 266.478 82.2816 266.913 82.5435C267.353 82.8001 267.717 83.1301 268.005 83.5333L267.934 82.3706ZM265.499 88.852C265.96 88.852 266.363 88.7394 266.709 88.5142C267.054 88.2837 267.322 87.9747 267.51 87.5871C267.704 87.1996 267.801 86.7701 267.801 86.2987C267.801 85.8221 267.704 85.39 267.51 85.0024C267.316 84.6149 267.047 84.3085 266.701 84.0833C266.361 83.8528 265.96 83.7376 265.499 83.7376C265.043 83.7376 264.627 83.8528 264.25 84.0833C263.873 84.3137 263.574 84.6227 263.354 85.0103C263.134 85.3979 263.024 85.8273 263.024 86.2987C263.024 86.7753 263.137 87.2074 263.362 87.595C263.593 87.9773 263.894 88.2837 264.266 88.5142C264.643 88.7394 265.054 88.852 265.499 88.852ZM271.198 90.2268V78.4425H272.832V90.2268H271.198ZM277.068 90.3761C276.654 90.3499 276.251 90.2661 275.858 90.1247C275.466 89.9833 275.12 89.7921 274.821 89.5512C274.528 89.305 274.308 89.017 274.161 88.687L275.552 88.0899C275.62 88.2313 275.738 88.3701 275.905 88.5063C276.078 88.6425 276.28 88.7551 276.51 88.8441C276.741 88.9279 276.982 88.9698 277.233 88.9698C277.479 88.9698 277.707 88.9358 277.917 88.8677C278.131 88.7944 278.307 88.6844 278.443 88.5377C278.579 88.3911 278.647 88.2156 278.647 88.0114C278.647 87.7809 278.569 87.6028 278.412 87.4771C278.26 87.3462 278.069 87.2467 277.838 87.1786C277.608 87.1105 277.377 87.0451 277.147 86.9822C276.633 86.867 276.162 86.7099 275.733 86.5108C275.308 86.3066 274.971 86.0473 274.719 85.7331C274.468 85.4136 274.342 85.0234 274.342 84.5625C274.342 84.0597 274.478 83.625 274.751 83.2584C275.023 82.8865 275.379 82.6011 275.819 82.402C276.264 82.203 276.738 82.1035 277.241 82.1035C277.869 82.1035 278.446 82.2371 278.969 82.5042C279.493 82.7713 279.894 83.1379 280.171 83.604L278.875 84.3739C278.797 84.2168 278.679 84.0754 278.522 83.9497C278.364 83.824 278.186 83.7245 277.987 83.6512C277.788 83.5726 277.581 83.5281 277.367 83.5176C277.1 83.5072 276.851 83.5386 276.62 83.6119C276.395 83.68 276.214 83.79 276.078 83.9419C275.942 84.0937 275.874 84.2875 275.874 84.5232C275.874 84.7537 275.955 84.9265 276.118 85.0417C276.28 85.1517 276.484 85.2407 276.73 85.3088C276.982 85.3769 277.238 85.4529 277.5 85.5367C277.966 85.6833 278.404 85.864 278.812 86.0787C279.221 86.2882 279.551 86.5475 279.802 86.8565C280.054 87.1655 280.174 87.5426 280.164 87.9878C280.164 88.4801 280.014 88.9122 279.716 89.2841C279.422 89.6559 279.04 89.9387 278.569 90.1325C278.097 90.3263 277.597 90.4075 277.068 90.3761Z" fill="#F9FAFB"/>
<rect x="373" y="56" width="200" height="55" rx="3.5914" fill="#F3F4F6"/>
<rect x="110" y="120" width="201" height="55" rx="3.5914" fill="#F3F4F6"/>
<rect x="536" y="120" width="201" height="55" rx="3.5914" fill="#F3F4F6"/>
<rect x="255" y="183" width="201" height="55" rx="3.5914" fill="#F3F4F6"/>
<rect x="468" y="183" width="201" height="55" rx="3.5914" fill="#D1D5DB"/>
<path d="M537.819 206.228H539.728L543.727 217.227H541.999L541.236 215.137H536.311L535.556 217.227H533.82L537.819 206.228ZM536.916 213.503H540.632L538.77 208.396L536.916 213.503ZM544.423 214.281V209.371H546.057V213.88C546.057 214.231 546.144 214.55 546.316 214.839C546.489 215.127 546.72 215.357 547.008 215.53C547.296 215.697 547.613 215.781 547.958 215.781C548.309 215.781 548.626 215.697 548.909 215.53C549.197 215.357 549.425 215.127 549.592 214.839C549.765 214.55 549.852 214.231 549.852 213.88V209.371H551.486L551.494 217.227H549.859L549.852 216.378C549.585 216.703 549.252 216.96 548.854 217.148C548.456 217.337 548.029 217.431 547.573 217.431C546.992 217.431 546.463 217.29 545.986 217.007C545.51 216.724 545.13 216.344 544.847 215.868C544.564 215.391 544.423 214.862 544.423 214.281ZM559.082 205.443H560.716V217.227H559.082V216.072C558.825 216.48 558.49 216.81 558.076 217.062C557.662 217.308 557.178 217.431 556.623 217.431C556.052 217.431 555.518 217.324 555.02 217.109C554.522 216.894 554.083 216.598 553.7 216.221C553.323 215.839 553.027 215.399 552.812 214.901C552.598 214.404 552.49 213.87 552.49 213.299C552.49 212.728 552.598 212.194 552.812 211.696C553.027 211.193 553.323 210.753 553.7 210.376C554.083 209.994 554.522 209.695 555.02 209.481C555.518 209.266 556.052 209.159 556.623 209.159C557.178 209.159 557.662 209.284 558.076 209.536C558.49 209.782 558.825 210.106 559.082 210.51V205.443ZM556.638 215.852C557.099 215.852 557.503 215.739 557.848 215.514C558.194 215.284 558.461 214.975 558.65 214.587C558.843 214.2 558.94 213.77 558.94 213.299C558.94 212.822 558.843 212.39 558.65 212.002C558.456 211.615 558.186 211.308 557.84 211.083C557.5 210.853 557.099 210.738 556.638 210.738C556.183 210.738 555.766 210.853 555.389 211.083C555.017 211.314 554.719 211.623 554.494 212.01C554.274 212.398 554.164 212.827 554.164 213.299C554.164 213.775 554.276 214.207 554.502 214.595C554.732 214.977 555.033 215.284 555.405 215.514C555.782 215.739 556.193 215.852 556.638 215.852ZM562.598 209.371H564.232V217.227H562.598V209.371ZM563.431 208.231C563.179 208.231 562.97 208.15 562.802 207.988C562.634 207.826 562.551 207.621 562.551 207.375C562.551 207.134 562.634 206.933 562.802 206.77C562.97 206.603 563.177 206.519 563.423 206.519C563.664 206.519 563.868 206.603 564.035 206.77C564.203 206.933 564.287 207.134 564.287 207.375C564.287 207.621 564.203 207.826 564.035 207.988C563.873 208.15 563.671 208.231 563.431 208.231ZM569.43 217.431C568.707 217.431 568.048 217.245 567.45 216.873C566.859 216.501 566.385 216.004 566.028 215.381C565.678 214.752 565.502 214.058 565.502 213.299C565.502 212.723 565.604 212.186 565.809 211.688C566.013 211.185 566.293 210.745 566.649 210.368C567.011 209.986 567.43 209.687 567.906 209.473C568.383 209.258 568.891 209.151 569.43 209.151C570.033 209.151 570.585 209.276 571.088 209.528C571.591 209.774 572.02 210.117 572.376 210.557C572.732 210.992 572.994 211.494 573.162 212.065C573.33 212.631 573.379 213.233 573.311 213.872H567.254C567.322 214.234 567.453 214.561 567.647 214.854C567.846 215.142 568.097 215.37 568.401 215.538C568.71 215.705 569.053 215.792 569.43 215.797C569.828 215.797 570.19 215.697 570.514 215.498C570.844 215.299 571.114 215.024 571.324 214.674L572.981 215.058C572.667 215.755 572.193 216.326 571.559 216.771C570.926 217.211 570.216 217.431 569.43 217.431ZM567.199 212.623H571.661C571.609 212.246 571.475 211.906 571.261 211.602C571.051 211.293 570.787 211.049 570.467 210.871C570.153 210.688 569.807 210.596 569.43 210.596C569.058 210.596 568.713 210.685 568.393 210.863C568.079 211.041 567.817 211.285 567.608 211.594C567.403 211.898 567.267 212.241 567.199 212.623ZM581.683 212.301V217.227H580.049V212.702C580.049 212.351 579.962 212.031 579.789 211.743C579.622 211.455 579.394 211.227 579.106 211.06C578.823 210.887 578.504 210.8 578.148 210.8C577.802 210.8 577.485 210.887 577.197 211.06C576.909 211.227 576.678 211.455 576.506 211.743C576.333 212.031 576.246 212.351 576.246 212.702V217.227H574.612V209.371H576.246V210.203C576.519 209.879 576.854 209.622 577.252 209.433C577.65 209.245 578.079 209.151 578.54 209.151C579.122 209.151 579.651 209.292 580.127 209.575C580.604 209.858 580.981 210.237 581.259 210.714C581.541 211.191 581.683 211.72 581.683 212.301ZM588.228 214.996L589.689 215.789C589.333 216.287 588.88 216.685 588.33 216.983C587.785 217.282 587.193 217.431 586.554 217.431C585.831 217.431 585.172 217.245 584.574 216.873C583.983 216.501 583.509 216.004 583.153 215.381C582.802 214.752 582.626 214.058 582.626 213.299C582.626 212.723 582.728 212.186 582.933 211.688C583.137 211.185 583.417 210.745 583.773 210.368C584.135 209.986 584.554 209.687 585.03 209.473C585.507 209.258 586.015 209.151 586.554 209.151C587.193 209.151 587.785 209.3 588.33 209.598C588.88 209.897 589.333 210.298 589.689 210.8L588.228 211.594C588.008 211.332 587.751 211.133 587.458 210.997C587.164 210.855 586.863 210.785 586.554 210.785C586.125 210.785 585.735 210.903 585.384 211.138C585.038 211.369 584.763 211.675 584.559 212.057C584.36 212.435 584.26 212.848 584.26 213.299C584.26 213.744 584.362 214.158 584.567 214.54C584.771 214.917 585.046 215.221 585.392 215.451C585.742 215.682 586.13 215.797 586.554 215.797C586.879 215.797 587.188 215.724 587.481 215.577C587.775 215.43 588.023 215.237 588.228 214.996ZM594.364 217.431C593.642 217.431 592.982 217.245 592.385 216.873C591.793 216.501 591.319 216.004 590.963 215.381C590.612 214.752 590.436 214.058 590.436 213.299C590.436 212.723 590.538 212.186 590.743 211.688C590.947 211.185 591.227 210.745 591.583 210.368C591.945 209.986 592.364 209.687 592.84 209.473C593.317 209.258 593.825 209.151 594.364 209.151C594.967 209.151 595.519 209.276 596.022 209.528C596.525 209.774 596.954 210.117 597.31 210.557C597.667 210.992 597.928 211.494 598.096 212.065C598.264 212.631 598.313 213.233 598.245 213.872H592.188C592.256 214.234 592.387 214.561 592.581 214.854C592.78 215.142 593.031 215.37 593.335 215.538C593.644 215.705 593.987 215.792 594.364 215.797C594.762 215.797 595.124 215.697 595.449 215.498C595.779 215.299 596.048 215.024 596.258 214.674L597.915 215.058C597.601 215.755 597.127 216.326 596.493 216.771C595.86 217.211 595.15 217.431 594.364 217.431ZM592.133 212.623H596.596C596.543 212.246 596.41 211.906 596.195 211.602C595.985 211.293 595.721 211.049 595.401 210.871C595.087 210.688 594.741 210.596 594.364 210.596C593.993 210.596 593.647 210.685 593.327 210.863C593.013 211.041 592.751 211.285 592.542 211.594C592.338 211.898 592.201 212.241 592.133 212.623ZM601.934 217.376C601.52 217.35 601.117 217.266 600.724 217.125C600.331 216.983 599.986 216.792 599.687 216.551C599.394 216.305 599.174 216.017 599.027 215.687L600.418 215.09C600.486 215.231 600.604 215.37 600.771 215.506C600.944 215.642 601.146 215.755 601.376 215.844C601.607 215.928 601.848 215.97 602.099 215.97C602.345 215.97 602.573 215.936 602.782 215.868C602.997 215.794 603.173 215.684 603.309 215.538C603.445 215.391 603.513 215.216 603.513 215.011C603.513 214.781 603.434 214.603 603.277 214.477C603.125 214.346 602.934 214.247 602.704 214.179C602.473 214.111 602.243 214.045 602.013 213.982C601.499 213.867 601.028 213.71 600.598 213.511C600.174 213.307 599.836 213.047 599.585 212.733C599.334 212.414 599.208 212.023 599.208 211.562C599.208 211.06 599.344 210.625 599.616 210.258C599.889 209.887 600.245 209.601 600.685 209.402C601.13 209.203 601.604 209.104 602.107 209.104C602.735 209.104 603.311 209.237 603.835 209.504C604.359 209.771 604.76 210.138 605.037 210.604L603.741 211.374C603.662 211.217 603.544 211.075 603.387 210.95C603.23 210.824 603.052 210.725 602.853 210.651C602.654 210.573 602.447 210.528 602.232 210.518C601.965 210.507 601.717 210.539 601.486 210.612C601.261 210.68 601.08 210.79 600.944 210.942C600.808 211.094 600.74 211.288 600.74 211.523C600.74 211.754 600.821 211.927 600.983 212.042C601.146 212.152 601.35 212.241 601.596 212.309C601.848 212.377 602.104 212.453 602.366 212.537C602.832 212.683 603.27 212.864 603.678 213.079C604.087 213.288 604.417 213.547 604.668 213.857C604.919 214.166 605.04 214.543 605.029 214.988C605.029 215.48 604.88 215.912 604.581 216.284C604.288 216.656 603.906 216.939 603.434 217.133C602.963 217.326 602.463 217.407 601.934 217.376Z" fill="#030712"/>
<path d="M704.465 234.463L722.047 252.046" stroke="#1F2937" stroke-width="3.5914" stroke-linejoin="round"/>
<path d="M721.578 266.291C717.515 262.228 717.515 255.641 721.578 251.578C725.64 247.515 732.227 247.515 736.29 251.578L757.682 272.97C761.745 277.033 761.745 283.62 757.682 287.682C753.619 291.745 747.032 291.745 742.969 287.682L721.578 266.291Z" fill="#1F2937"/>
<path d="M718.531 199.298C718.531 172.107 696.489 150.065 669.299 150.065C642.109 150.065 620.067 172.107 620.067 199.298C620.067 226.488 642.109 248.53 669.299 248.53C696.489 248.53 718.531 226.488 718.531 199.298Z" fill="#F3F4F6" fill-opacity="0.5" stroke="url(#paint0_linear_67_400)" stroke-width="3.5914" stroke-linejoin="round"/>
<defs>
<linearGradient id="paint0_linear_67_400" x1="669.299" y1="150.065" x2="669.299" y2="248.53" gradientUnits="userSpaceOnUse">
<stop stop-color="#566172"/>
<stop offset="1" stop-color="#374151"/>
</linearGradient>
</defs>
</svg>
