<svg width="45" height="18" viewBox="0 0 45 18" fill="none" xmlns="http://www.w3.org/2000/svg">
<path d="M3.46147 0.0112305C6.13047 0.0113303 8.825 0.0756794 11.4995 0.103562C12.3709 0.113952 13.2424 0.119283 14.1138 0.119557C14.6632 0.120619 15.3454 0.105625 15.883 0.151428C15.7966 0.931247 15.5212 2.05674 15.3542 2.84218C14.3072 2.82053 13.2065 2.83725 12.154 2.83593L6.02119 2.82837C5.63827 4.29052 5.44175 5.81425 5.13452 7.27588C5.65635 7.26033 6.25832 7.27699 6.78506 7.27859L9.84619 7.28249C10.8349 7.28238 12.405 7.22122 13.3179 7.31439C13.2157 7.7805 13.0539 9.38336 12.8922 9.67394C12.7366 9.78363 10.2288 9.73884 9.86978 9.73813L4.65136 9.71528C4.6209 10.0099 4.50973 10.4199 4.44668 10.729C4.36369 11.0619 4.31843 11.4193 4.23921 11.7507C4.01462 12.6899 3.83852 13.6116 3.67134 14.5621C5.34171 14.5482 7.01219 14.5482 8.68255 14.5622C10.2014 14.5627 11.8108 14.5339 13.3192 14.5896C13.2383 14.9492 13.1671 15.4836 13.1031 15.8647C13.0231 16.3263 12.9318 16.7859 12.8294 17.2431C11.9172 17.2151 10.8449 17.2425 9.91969 17.2426L3.69131 17.2394C2.4858 17.2385 1.20066 17.2589 0 17.2213C0.177956 16.0012 0.47338 14.6319 0.7252 13.4153L1.6818 8.7245L2.87924 2.79719C3.07927 1.82709 3.21279 0.977547 3.46147 0.0112305Z" fill="#444444"/>
<path d="M17.2013 0.017971C18.2243 -0.018544 19.4181 0.0111331 20.4501 0.015706C20.6091 1.15855 20.8948 2.00056 21.1408 3.06435L22.259 7.8119C22.3813 8.33016 22.4874 8.87298 22.6126 9.38205L23.1682 11.6218C23.2837 12.071 23.4371 12.567 23.5218 13.0173C23.9995 12.6125 25.4981 10.1084 25.9285 9.45074C26.5941 8.43308 27.3516 7.26711 28.0146 6.23043C29.3153 4.19634 30.5938 2.10312 31.973 0.123037C32.8953 0.134286 34.2468 0.0995451 35.1263 0.174067C34.8189 0.916235 34.0286 2.10546 33.5663 2.78803C32.8465 4.00923 31.9071 5.376 31.1223 6.59655L26.966 13.0987L25.1699 15.9077C24.883 16.356 24.6517 16.8446 24.2904 17.232L21.35 17.2437C19.9205 11.5131 18.5375 5.77102 17.2013 0.017971Z" fill="#444444"/>
<path d="M35.0268 5.94141C35.1708 5.9798 36.3877 5.98828 36.637 5.99184C38.3997 6.00568 40.1622 6.0091 41.9249 6.00211C42.7163 5.99972 43.5245 5.96902 44.3116 6.02382C44.4391 6.03267 44.5982 6.11291 44.5609 6.26422C44.3096 6.57851 43.1309 7.057 42.7063 7.23994C42.4884 7.34207 42.2571 7.42106 42.0355 7.51589C41.7632 7.6324 41.478 7.79531 41.1891 7.86184C40.6743 7.98034 34.0851 7.96525 33.8621 7.81745C33.8447 7.80593 33.823 7.79123 33.8199 7.76973C33.7746 7.46149 34.7853 6.25087 35.0268 5.94141Z" fill="#444444"/>
<path d="M42.7937 14.9292C42.9483 15.0975 42.8633 17.1591 42.7717 17.4104L42.7267 17.4295C42.6132 17.3798 42.4663 17.2185 42.3722 17.1257C39.4544 17.082 36.4928 17.1827 33.5733 17.1045L33.5625 17.1044C33.376 17.1009 33.2077 17.1272 33.1898 16.8956C33.2933 16.6202 34.043 16.198 34.3353 16.0974C34.8706 15.913 35.753 15.3318 36.2544 15.2148C36.6031 15.1334 37.5306 15.1871 37.9136 15.189L41.0637 15.1954C41.4362 15.1974 41.8894 15.2387 42.247 15.1818C42.34 15.167 42.6805 14.983 42.7937 14.9292Z" fill="#444444"/>
<path d="M44.1905 7.25769C44.1911 7.27235 44.1919 7.27207 44.1876 7.28881C44.1517 7.42238 39.8634 10.704 39.3823 11.0785C39.2314 11.1959 39.1019 11.3516 38.9442 11.4571C38.8857 11.4963 38.8541 11.5149 38.7848 11.5004L38.754 11.413C38.6234 10.9525 38.5546 10.6142 38.5375 10.1401C38.7135 10.0741 38.8858 9.99754 39.0532 9.91151C40.3952 9.22183 41.757 8.56758 43.086 7.85314C43.4624 7.65091 43.8021 7.44012 44.1905 7.25769Z" fill="#CECECE"/>
<path d="M33.9221 15.539C34.0872 15.3456 35.3192 14.394 35.5936 14.1737L37.8451 12.3832C38.0584 12.2153 38.5532 11.7853 38.7617 11.6729C38.8145 12.0946 38.8615 12.5844 38.926 12.9993C37.9361 13.4722 36.961 14.1651 35.9498 14.6307C35.6597 14.7643 35.3711 14.9193 35.0837 15.0591C34.7283 15.2391 34.1417 15.6456 33.7915 15.7707C33.7775 15.688 33.8528 15.6369 33.9221 15.539Z" fill="#CECECE"/>
<path d="M43.0971 15.2731C43.3295 15.2917 43.7419 15.3228 43.8679 15.5461C43.8796 15.6654 43.8879 15.6206 43.8366 15.7276C43.5659 15.7961 43.3369 15.7848 43.0609 15.7824C43.0677 15.6112 43.0825 15.4436 43.0971 15.2731Z" fill="#444444"/>
<path d="M43.2994 16.5638C43.5378 16.551 43.8182 16.5327 43.9342 16.7878L43.9094 16.8487C43.8176 16.9072 43.7922 16.9084 43.683 16.9235C43.4583 16.9426 43.2424 16.9456 43.0171 16.9502C43.0185 16.8473 43.0088 16.7212 43.0573 16.6343C43.1232 16.5675 43.2056 16.5718 43.2994 16.5638Z" fill="#444444"/>
<path d="M33.2781 16.0154C33.4586 15.8299 33.7019 15.675 33.9217 15.5388C33.8524 15.6367 33.7772 15.6878 33.7911 15.7705C33.7543 15.8283 33.3639 15.9798 33.2781 16.0154Z" fill="#C3864E"/>
</svg>
