<svg width="1440" height="777" viewBox="0 0 1440 777" fill="none" xmlns="http://www.w3.org/2000/svg">
<g clip-path="url(#clip0_96_452)">
<path d="M-341.477 0H-392V50.5263M-341.477 0V50.5263M-341.477 0H-290.955M-341.477 50.5263H-392M-341.477 50.5263V101.053M-341.477 50.5263H-290.955M-392 50.5263V101.053M-341.477 101.053H-392M-341.477 101.053V151.579M-341.477 101.053H-290.955M-392 101.053V151.579M-341.477 151.579H-392M-341.477 151.579V202.105M-341.477 151.579H-290.955M-392 151.579V202.105M-341.477 202.105H-392M-341.477 202.105V252.632M-341.477 202.105H-290.955M-392 202.105V252.632M-341.477 252.632H-392M-341.477 252.632V303.158M-341.477 252.632H-290.955M-392 252.632V303.158M-341.477 303.158H-392M-341.477 303.158V353.684M-341.477 303.158H-290.955M-392 303.158V353.684M-341.477 353.684H-392M-341.477 353.684V404.211M-341.477 353.684H-290.955M-392 353.684V404.211M-341.477 404.211H-392M-341.477 404.211V454.737M-341.477 404.211H-290.955M-392 404.211V454.737M-341.477 454.737H-392M-341.477 454.737V505.263M-341.477 454.737H-290.955M-392 454.737V505.263M-341.477 505.263H-392M-341.477 505.263V555.789M-341.477 505.263H-290.955M-392 505.263V555.789M-341.477 555.789H-392M-341.477 555.789V606.316M-341.477 555.789H-290.955M-392 555.789V606.316M-341.477 606.316H-392M-341.477 606.316V656.842M-341.477 606.316H-290.955M-392 606.316V656.842M-341.477 656.842H-392M-341.477 656.842V707.368M-341.477 656.842H-290.955M-392 656.842V707.368M-341.477 707.368H-392M-341.477 707.368V757.895M-341.477 707.368H-290.955M-392 707.368V757.895M-341.477 757.895H-392M-341.477 757.895V808.421M-341.477 757.895H-290.955M-392 757.895V808.421M-341.477 808.421H-392M-341.477 808.421V858.947M-341.477 808.421H-290.955M-392 808.421V858.947M-341.477 858.947H-392M-341.477 858.947V909.474M-341.477 858.947H-290.955M-392 858.947V909.474M-341.477 909.474H-392M-341.477 909.474V960M-341.477 909.474H-290.955M-392 909.474V960H-341.477M-341.477 960H-290.955M-290.955 0V50.5263M-290.955 0H-240.432M-290.955 50.5263V101.053M-290.955 50.5263H-240.432M-290.955 101.053V151.579M-290.955 101.053H-240.432M-290.955 151.579V202.105M-290.955 151.579H-240.432M-290.955 202.105V252.632M-290.955 202.105H-240.432M-290.955 252.632V303.158M-290.955 252.632H-240.432M-290.955 303.158V353.684M-290.955 303.158H-240.432M-290.955 353.684V404.211M-290.955 353.684H-240.432M-290.955 404.211V454.737M-290.955 404.211H-240.432M-290.955 454.737V505.263M-290.955 454.737H-240.432M-290.955 505.263V555.789M-290.955 505.263H-240.432M-290.955 555.789V606.316M-290.955 555.789H-240.432M-290.955 606.316V656.842M-290.955 606.316H-240.432M-290.955 656.842V707.368M-290.955 656.842H-240.432M-290.955 707.368V757.895M-290.955 707.368H-240.432M-290.955 757.895V808.421M-290.955 757.895H-240.432M-290.955 808.421V858.947M-290.955 808.421H-240.432M-290.955 858.947V909.474M-290.955 858.947H-240.432M-290.955 909.474V960M-290.955 909.474H-240.432M-290.955 960H-240.432M-240.432 0V50.5263M-240.432 0H-189.909M-240.432 50.5263V101.053M-240.432 50.5263H-189.909M-240.432 101.053V151.579M-240.432 101.053H-189.909M-240.432 151.579V202.105M-240.432 151.579H-189.909M-240.432 202.105V252.632M-240.432 202.105H-189.909M-240.432 252.632V303.158M-240.432 252.632H-189.909M-240.432 303.158V353.684M-240.432 303.158H-189.909M-240.432 353.684V404.211M-240.432 353.684H-189.909M-240.432 404.211V454.737M-240.432 404.211H-189.909M-240.432 454.737V505.263M-240.432 454.737H-189.909M-240.432 505.263V555.789M-240.432 505.263H-189.909M-240.432 555.789V606.316M-240.432 555.789H-189.909M-240.432 606.316V656.842M-240.432 606.316H-189.909M-240.432 656.842V707.368M-240.432 656.842H-189.909M-240.432 707.368V757.895M-240.432 707.368H-189.909M-240.432 757.895V808.421M-240.432 757.895H-189.909M-240.432 808.421V858.947M-240.432 808.421H-189.909M-240.432 858.947V909.474M-240.432 858.947H-189.909M-240.432 909.474V960M-240.432 909.474H-189.909M-240.432 960H-189.909M-189.909 0V50.5263M-189.909 0H-139.386M-189.909 50.5263V101.053M-189.909 50.5263H-139.386M-189.909 101.053V151.579M-189.909 101.053H-139.386M-189.909 151.579V202.105M-189.909 151.579H-139.386M-189.909 202.105V252.632M-189.909 202.105H-139.386M-189.909 252.632V303.158M-189.909 252.632H-139.386M-189.909 303.158V353.684M-189.909 303.158H-139.386M-189.909 353.684V404.211M-189.909 353.684H-139.386M-189.909 404.211V454.737M-189.909 404.211H-139.386M-189.909 454.737V505.263M-189.909 454.737H-139.386M-189.909 505.263V555.789M-189.909 505.263H-139.386M-189.909 555.789V606.316M-189.909 555.789H-139.386M-189.909 606.316V656.842M-189.909 606.316H-139.386M-189.909 656.842V707.368M-189.909 656.842H-139.386M-189.909 707.368V757.895M-189.909 707.368H-139.386M-189.909 757.895V808.421M-189.909 757.895H-139.386M-189.909 808.421V858.947M-189.909 808.421H-139.386M-189.909 858.947V909.474M-189.909 858.947H-139.386M-189.909 909.474V960M-189.909 909.474H-139.386M-189.909 960H-139.386M-139.386 0V50.5263M-139.386 0H-88.8636M-139.386 50.5263V101.053M-139.386 50.5263H-88.8636M-139.386 101.053V151.579M-139.386 101.053H-88.8636M-139.386 151.579V202.105M-139.386 151.579H-88.8636M-139.386 202.105V252.632M-139.386 202.105H-88.8636M-139.386 252.632V303.158M-139.386 252.632H-88.8636M-139.386 303.158V353.684M-139.386 303.158H-88.8636M-139.386 353.684V404.211M-139.386 353.684H-88.8636M-139.386 404.211V454.737M-139.386 404.211H-88.8636M-139.386 454.737V505.263M-139.386 454.737H-88.8636M-139.386 505.263V555.789M-139.386 505.263H-88.8636M-139.386 555.789V606.316M-139.386 555.789H-88.8636M-139.386 606.316V656.842M-139.386 606.316H-88.8636M-139.386 656.842V707.368M-139.386 656.842H-88.8636M-139.386 707.368V757.895M-139.386 707.368H-88.8636M-139.386 757.895V808.421M-139.386 757.895H-88.8636M-139.386 808.421V858.947M-139.386 808.421H-88.8636M-139.386 858.947V909.474M-139.386 858.947H-88.8636M-139.386 909.474V960M-139.386 909.474H-88.8636M-139.386 960H-88.8636M-88.8636 0V50.5263M-88.8636 0H-38.3409M-88.8636 50.5263V101.053M-88.8636 50.5263H-38.3409M-88.8636 101.053V151.579M-88.8636 101.053H-38.3409M-88.8636 151.579V202.105M-88.8636 151.579H-38.3409M-88.8636 202.105V252.632M-88.8636 202.105H-38.3409M-88.8636 252.632V303.158M-88.8636 252.632H-38.3409M-88.8636 303.158V353.684M-88.8636 303.158H-38.3409M-88.8636 353.684V404.211M-88.8636 353.684H-38.3409M-88.8636 404.211V454.737M-88.8636 404.211H-38.3409M-88.8636 454.737V505.263M-88.8636 454.737H-38.3409M-88.8636 505.263V555.789M-88.8636 505.263H-38.3409M-88.8636 555.789V606.316M-88.8636 555.789H-38.3409M-88.8636 606.316V656.842M-88.8636 606.316H-38.3409M-88.8636 656.842V707.368M-88.8636 656.842H-38.3409M-88.8636 707.368V757.895M-88.8636 707.368H-38.3409M-88.8636 757.895V808.421M-88.8636 757.895H-38.3409M-88.8636 808.421V858.947M-88.8636 808.421H-38.3409M-88.8636 858.947V909.474M-88.8636 858.947H-38.3409M-88.8636 909.474V960M-88.8636 909.474H-38.3409M-88.8636 960H-38.3409M-38.3409 0V50.5263M-38.3409 0H12.1818M-38.3409 50.5263V101.053M-38.3409 50.5263H12.1818M-38.3409 101.053V151.579M-38.3409 101.053H12.1818M-38.3409 151.579V202.105M-38.3409 151.579H12.1818M-38.3409 202.105V252.632M-38.3409 202.105H12.1818M-38.3409 252.632V303.158M-38.3409 252.632H12.1818M-38.3409 303.158V353.684M-38.3409 303.158H12.1818M-38.3409 353.684V404.211M-38.3409 353.684H12.1818M-38.3409 404.211V454.737M-38.3409 404.211H12.1818M-38.3409 454.737V505.263M-38.3409 454.737H12.1818M-38.3409 505.263V555.789M-38.3409 505.263H12.1818M-38.3409 555.789V606.316M-38.3409 555.789H12.1818M-38.3409 606.316V656.842M-38.3409 606.316H12.1818M-38.3409 656.842V707.368M-38.3409 656.842H12.1818M-38.3409 707.368V757.895M-38.3409 707.368H12.1818M-38.3409 757.895V808.421M-38.3409 757.895H12.1818M-38.3409 808.421V858.947M-38.3409 808.421H12.1818M-38.3409 858.947V909.474M-38.3409 858.947H12.1818M-38.3409 909.474V960M-38.3409 909.474H12.1818M-38.3409 960H12.1818M12.1818 0V50.5263M12.1818 0H62.7046M12.1818 50.5263V101.053M12.1818 50.5263H62.7046M12.1818 101.053V151.579M12.1818 101.053H62.7046M12.1818 151.579V202.105M12.1818 151.579H62.7046M12.1818 202.105V252.632M12.1818 202.105H62.7046M12.1818 252.632V303.158M12.1818 252.632H62.7046M12.1818 303.158V353.684M12.1818 303.158H62.7046M12.1818 353.684V404.211M12.1818 353.684H62.7046M12.1818 404.211V454.737M12.1818 404.211H62.7046M12.1818 454.737V505.263M12.1818 454.737H62.7046M12.1818 505.263V555.789M12.1818 505.263H62.7046M12.1818 555.789V606.316M12.1818 555.789H62.7046M12.1818 606.316V656.842M12.1818 606.316H62.7046M12.1818 656.842V707.368M12.1818 656.842H62.7046M12.1818 707.368V757.895M12.1818 707.368H62.7046M12.1818 757.895V808.421M12.1818 757.895H62.7046M12.1818 808.421V858.947M12.1818 808.421H62.7046M12.1818 858.947V909.474M12.1818 858.947H62.7046M12.1818 909.474V960M12.1818 909.474H62.7046M12.1818 960H62.7046M62.7046 0V50.5263M62.7046 0H113.227M62.7046 50.5263V101.053M62.7046 50.5263H113.227M62.7046 101.053V151.579M62.7046 101.053H113.227M62.7046 151.579V202.105M62.7046 151.579H113.227M62.7046 202.105V252.632M62.7046 202.105H113.227M62.7046 252.632V303.158M62.7046 252.632H113.227M62.7046 303.158V353.684M62.7046 303.158H113.227M62.7046 353.684V404.211M62.7046 353.684H113.227M62.7046 404.211V454.737M62.7046 404.211H113.227M62.7046 454.737V505.263M62.7046 454.737H113.227M62.7046 505.263V555.789M62.7046 505.263H113.227M62.7046 555.789V606.316M62.7046 555.789H113.227M62.7046 606.316V656.842M62.7046 606.316H113.227M62.7046 656.842V707.368M62.7046 656.842H113.227M62.7046 707.368V757.895M62.7046 707.368H113.227M62.7046 757.895V808.421M62.7046 757.895H113.227M62.7046 808.421V858.947M62.7046 808.421H113.227M62.7046 858.947V909.474M62.7046 858.947H113.227M62.7046 909.474V960M62.7046 909.474H113.227M62.7046 960H113.227M113.227 0V50.5263M113.227 0H163.75M113.227 50.5263V101.053M113.227 50.5263H163.75M113.227 101.053V151.579M113.227 101.053H163.75M113.227 151.579V202.105M113.227 151.579H163.75M113.227 202.105V252.632M113.227 202.105H163.75M113.227 252.632V303.158M113.227 252.632H163.75M113.227 303.158V353.684M113.227 303.158H163.75M113.227 353.684V404.211M113.227 353.684H163.75M113.227 404.211V454.737M113.227 404.211H163.75M113.227 454.737V505.263M113.227 454.737H163.75M113.227 505.263V555.789M113.227 505.263H163.75M113.227 555.789V606.316M113.227 555.789H163.75M113.227 606.316V656.842M113.227 606.316H163.75M113.227 656.842V707.368M113.227 656.842H163.75M113.227 707.368V757.895M113.227 707.368H163.75M113.227 757.895V808.421M113.227 757.895H163.75M113.227 808.421V858.947M113.227 808.421H163.75M113.227 858.947V909.474M113.227 858.947H163.75M113.227 909.474V960M113.227 909.474H163.75M113.227 960H163.75M163.75 0V50.5263M163.75 0H214.273M163.75 50.5263V101.053M163.75 50.5263H214.273M163.75 101.053V151.579M163.75 101.053H214.273M163.75 151.579V202.105M163.75 151.579H214.273M163.75 202.105V252.632M163.75 202.105H214.273M163.75 252.632V303.158M163.75 252.632H214.273M163.75 303.158V353.684M163.75 303.158H214.273M163.75 353.684V404.211M163.75 353.684H214.273M163.75 404.211V454.737M163.75 404.211H214.273M163.75 454.737V505.263M163.75 454.737H214.273M163.75 505.263V555.789M163.75 505.263H214.273M163.75 555.789V606.316M163.75 555.789H214.273M163.75 606.316V656.842M163.75 606.316H214.273M163.75 656.842V707.368M163.75 656.842H214.273M163.75 707.368V757.895M163.75 707.368H214.273M163.75 757.895V808.421M163.75 757.895H214.273M163.75 808.421V858.947M163.75 808.421H214.273M163.75 858.947V909.474M163.75 858.947H214.273M163.75 909.474V960M163.75 909.474H214.273M163.75 960H214.273M214.273 0V50.5263M214.273 0H264.795M214.273 50.5263V101.053M214.273 50.5263H264.795M214.273 101.053V151.579M214.273 101.053H264.795M214.273 151.579V202.105M214.273 151.579H264.795M214.273 202.105V252.632M214.273 202.105H264.795M214.273 252.632V303.158M214.273 252.632H264.795M214.273 303.158V353.684M214.273 303.158H264.795M214.273 353.684V404.211M214.273 353.684H264.795M214.273 404.211V454.737M214.273 404.211H264.795M214.273 454.737V505.263M214.273 454.737H264.795M214.273 505.263V555.789M214.273 505.263H264.795M214.273 555.789V606.316M214.273 555.789H264.795M214.273 606.316V656.842M214.273 606.316H264.795M214.273 656.842V707.368M214.273 656.842H264.795M214.273 707.368V757.895M214.273 707.368H264.795M214.273 757.895V808.421M214.273 757.895H264.795M214.273 808.421V858.947M214.273 808.421H264.795M214.273 858.947V909.474M214.273 858.947H264.795M214.273 909.474V960M214.273 909.474H264.795M214.273 960H264.795M264.795 0V50.5263M264.795 0H315.318M264.795 50.5263V101.053M264.795 50.5263H315.318M264.795 101.053V151.579M264.795 101.053H315.318M264.795 151.579V202.105M264.795 151.579H315.318M264.795 202.105V252.632M264.795 202.105H315.318M264.795 252.632V303.158M264.795 252.632H315.318M264.795 303.158V353.684M264.795 303.158H315.318M264.795 353.684V404.211M264.795 353.684H315.318M264.795 404.211V454.737M264.795 404.211H315.318M264.795 454.737V505.263M264.795 454.737H315.318M264.795 505.263V555.789M264.795 505.263H315.318M264.795 555.789V606.316M264.795 555.789H315.318M264.795 606.316V656.842M264.795 606.316H315.318M264.795 656.842V707.368M264.795 656.842H315.318M264.795 707.368V757.895M264.795 707.368H315.318M264.795 757.895V808.421M264.795 757.895H315.318M264.795 808.421V858.947M264.795 808.421H315.318M264.795 858.947V909.474M264.795 858.947H315.318M264.795 909.474V960M264.795 909.474H315.318M264.795 960H315.318M315.318 0V50.5263M315.318 0H365.841M315.318 50.5263V101.053M315.318 50.5263H365.841M315.318 101.053V151.579M315.318 101.053H365.841M315.318 151.579V202.105M315.318 151.579H365.841M315.318 202.105V252.632M315.318 202.105H365.841M315.318 252.632V303.158M315.318 252.632H365.841M315.318 303.158V353.684M315.318 303.158H365.841M315.318 353.684V404.211M315.318 353.684H365.841M315.318 404.211V454.737M315.318 404.211H365.841M315.318 454.737V505.263M315.318 454.737H365.841M315.318 505.263V555.789M315.318 505.263H365.841M315.318 555.789V606.316M315.318 555.789H365.841M315.318 606.316V656.842M315.318 606.316H365.841M315.318 656.842V707.368M315.318 656.842H365.841M315.318 707.368V757.895M315.318 707.368H365.841M315.318 757.895V808.421M315.318 757.895H365.841M315.318 808.421V858.947M315.318 808.421H365.841M315.318 858.947V909.474M315.318 858.947H365.841M315.318 909.474V960M315.318 909.474H365.841M315.318 960H365.841M365.841 0V50.5263M365.841 0H416.364M365.841 50.5263V101.053M365.841 50.5263H416.364M365.841 101.053V151.579M365.841 101.053H416.364M365.841 151.579V202.105M365.841 151.579H416.364M365.841 202.105V252.632M365.841 202.105H416.364M365.841 252.632V303.158M365.841 252.632H416.364M365.841 303.158V353.684M365.841 303.158H416.364M365.841 353.684V404.211M365.841 353.684H416.364M365.841 404.211V454.737M365.841 404.211H416.364M365.841 454.737V505.263M365.841 454.737H416.364M365.841 505.263V555.789M365.841 505.263H416.364M365.841 555.789V606.316M365.841 555.789H416.364M365.841 606.316V656.842M365.841 606.316H416.364M365.841 656.842V707.368M365.841 656.842H416.364M365.841 707.368V757.895M365.841 707.368H416.364M365.841 757.895V808.421M365.841 757.895H416.364M365.841 808.421V858.947M365.841 808.421H416.364M365.841 858.947V909.474M365.841 858.947H416.364M365.841 909.474V960M365.841 909.474H416.364M365.841 960H416.364M416.364 0V50.5263M416.364 0H466.886M416.364 50.5263V101.053M416.364 50.5263H466.886M416.364 101.053V151.579M416.364 101.053H466.886M416.364 151.579V202.105M416.364 151.579H466.886M416.364 202.105V252.632M416.364 202.105H466.886M416.364 252.632V303.158M416.364 252.632H466.886M416.364 303.158V353.684M416.364 303.158H466.886M416.364 353.684V404.211M416.364 353.684H466.886M416.364 404.211V454.737M416.364 404.211H466.886M416.364 454.737V505.263M416.364 454.737H466.886M416.364 505.263V555.789M416.364 505.263H466.886M416.364 555.789V606.316M416.364 555.789H466.886M416.364 606.316V656.842M416.364 606.316H466.886M416.364 656.842V707.368M416.364 656.842H466.886M416.364 707.368V757.895M416.364 707.368H466.886M416.364 757.895V808.421M416.364 757.895H466.886M416.364 808.421V858.947M416.364 808.421H466.886M416.364 858.947V909.474M416.364 858.947H466.886M416.364 909.474V960M416.364 909.474H466.886M416.364 960H466.886M466.886 0V50.5263M466.886 0H517.409M466.886 50.5263V101.053M466.886 50.5263H517.409M466.886 101.053V151.579M466.886 101.053H517.409M466.886 151.579V202.105M466.886 151.579H517.409M466.886 202.105V252.632M466.886 202.105H517.409M466.886 252.632V303.158M466.886 252.632H517.409M466.886 303.158V353.684M466.886 303.158H517.409M466.886 353.684V404.211M466.886 353.684H517.409M466.886 404.211V454.737M466.886 404.211H517.409M466.886 454.737V505.263M466.886 454.737H517.409M466.886 505.263V555.789M466.886 505.263H517.409M466.886 555.789V606.316M466.886 555.789H517.409M466.886 606.316V656.842M466.886 606.316H517.409M466.886 656.842V707.368M466.886 656.842H517.409M466.886 707.368V757.895M466.886 707.368H517.409M466.886 757.895V808.421M466.886 757.895H517.409M466.886 808.421V858.947M466.886 808.421H517.409M466.886 858.947V909.474M466.886 858.947H517.409M466.886 909.474V960M466.886 909.474H517.409M466.886 960H517.409M517.409 0V50.5263M517.409 0H567.932M517.409 50.5263V101.053M517.409 50.5263H567.932M517.409 101.053V151.579M517.409 101.053H567.932M517.409 151.579V202.105M517.409 151.579H567.932M517.409 202.105V252.632M517.409 202.105H567.932M517.409 252.632V303.158M517.409 252.632H567.932M517.409 303.158V353.684M517.409 303.158H567.932M517.409 353.684V404.211M517.409 353.684H567.932M517.409 404.211V454.737M517.409 404.211H567.932M517.409 454.737V505.263M517.409 454.737H567.932M517.409 505.263V555.789M517.409 505.263H567.932M517.409 555.789V606.316M517.409 555.789H567.932M517.409 606.316V656.842M517.409 606.316H567.932M517.409 656.842V707.368M517.409 656.842H567.932M517.409 707.368V757.895M517.409 707.368H567.932M517.409 757.895V808.421M517.409 757.895H567.932M517.409 808.421V858.947M517.409 808.421H567.932M517.409 858.947V909.474M517.409 858.947H567.932M517.409 909.474V960M517.409 909.474H567.932M517.409 960H567.932M567.932 0V50.5263M567.932 0H618.455M567.932 50.5263V101.053M567.932 50.5263H618.455M567.932 101.053V151.579M567.932 101.053H618.455M567.932 151.579V202.105M567.932 151.579H618.455M567.932 202.105V252.632M567.932 202.105H618.455M567.932 252.632V303.158M567.932 252.632H618.455M567.932 303.158V353.684M567.932 303.158H618.455M567.932 353.684V404.211M567.932 353.684H618.455M567.932 404.211V454.737M567.932 404.211H618.455M567.932 454.737V505.263M567.932 454.737H618.455M567.932 505.263V555.789M567.932 505.263H618.455M567.932 555.789V606.316M567.932 555.789H618.455M567.932 606.316V656.842M567.932 606.316H618.455M567.932 656.842V707.368M567.932 656.842H618.455M567.932 707.368V757.895M567.932 707.368H618.455M567.932 757.895V808.421M567.932 757.895H618.455M567.932 808.421V858.947M567.932 808.421H618.455M567.932 858.947V909.474M567.932 858.947H618.455M567.932 909.474V960M567.932 909.474H618.455M567.932 960H618.455M618.455 0V50.5263M618.455 0H668.977M618.455 50.5263V101.053M618.455 50.5263H668.977M618.455 101.053V151.579M618.455 101.053H668.977M618.455 151.579V202.105M618.455 151.579H668.977M618.455 202.105V252.632M618.455 202.105H668.977M618.455 252.632V303.158M618.455 252.632H668.977M618.455 303.158V353.684M618.455 303.158H668.977M618.455 353.684V404.211M618.455 353.684H668.977M618.455 404.211V454.737M618.455 404.211H668.977M618.455 454.737V505.263M618.455 454.737H668.977M618.455 505.263V555.789M618.455 505.263H668.977M618.455 555.789V606.316M618.455 555.789H668.977M618.455 606.316V656.842M618.455 606.316H668.977M618.455 656.842V707.368M618.455 656.842H668.977M618.455 707.368V757.895M618.455 707.368H668.977M618.455 757.895V808.421M618.455 757.895H668.977M618.455 808.421V858.947M618.455 808.421H668.977M618.455 858.947V909.474M618.455 858.947H668.977M618.455 909.474V960M618.455 909.474H668.977M618.455 960H668.977M668.977 0V50.5263M668.977 0H719.5M668.977 50.5263V101.053M668.977 50.5263H719.5M668.977 101.053V151.579M668.977 101.053H719.5M668.977 151.579V202.105M668.977 151.579H719.5M668.977 202.105V252.632M668.977 202.105H719.5M668.977 252.632V303.158M668.977 252.632H719.5M668.977 303.158V353.684M668.977 303.158H719.5M668.977 353.684V404.211M668.977 353.684H719.5M668.977 404.211V454.737M668.977 404.211H719.5M668.977 454.737V505.263M668.977 454.737H719.5M668.977 505.263V555.789M668.977 505.263H719.5M668.977 555.789V606.316M668.977 555.789H719.5M668.977 606.316V656.842M668.977 606.316H719.5M668.977 656.842V707.368M668.977 656.842H719.5M668.977 707.368V757.895M668.977 707.368H719.5M668.977 757.895V808.421M668.977 757.895H719.5M668.977 808.421V858.947M668.977 808.421H719.5M668.977 858.947V909.474M668.977 858.947H719.5M668.977 909.474V960M668.977 909.474H719.5M668.977 960H719.5M719.5 0V50.5263M719.5 0H770.023M719.5 50.5263V101.053M719.5 50.5263H770.023M719.5 101.053V151.579M719.5 101.053H770.023M719.5 151.579V202.105M719.5 151.579H770.023M719.5 202.105V252.632M719.5 202.105H770.023M719.5 252.632V303.158M719.5 252.632H770.023M719.5 303.158V353.684M719.5 303.158H770.023M719.5 353.684V404.211M719.5 353.684H770.023M719.5 404.211V454.737M719.5 404.211H770.023M719.5 454.737V505.263M719.5 454.737H770.023M719.5 505.263V555.789M719.5 505.263H770.023M719.5 555.789V606.316M719.5 555.789H770.023M719.5 606.316V656.842M719.5 606.316H770.023M719.5 656.842V707.368M719.5 656.842H770.023M719.5 707.368V757.895M719.5 707.368H770.023M719.5 757.895V808.421M719.5 757.895H770.023M719.5 808.421V858.947M719.5 808.421H770.023M719.5 858.947V909.474M719.5 858.947H770.023M719.5 909.474V960M719.5 909.474H770.023M719.5 960H770.023M770.023 0V50.5263M770.023 0H820.545M770.023 50.5263V101.053M770.023 50.5263H820.545M770.023 101.053V151.579M770.023 101.053H820.545M770.023 151.579V202.105M770.023 151.579H820.545M770.023 202.105V252.632M770.023 202.105H820.545M770.023 252.632V303.158M770.023 252.632H820.545M770.023 303.158V353.684M770.023 303.158H820.545M770.023 353.684V404.211M770.023 353.684H820.545M770.023 404.211V454.737M770.023 404.211H820.545M770.023 454.737V505.263M770.023 454.737H820.545M770.023 505.263V555.789M770.023 505.263H820.545M770.023 555.789V606.316M770.023 555.789H820.545M770.023 606.316V656.842M770.023 606.316H820.545M770.023 656.842V707.368M770.023 656.842H820.545M770.023 707.368V757.895M770.023 707.368H820.545M770.023 757.895V808.421M770.023 757.895H820.545M770.023 808.421V858.947M770.023 808.421H820.545M770.023 858.947V909.474M770.023 858.947H820.545M770.023 909.474V960M770.023 909.474H820.545M770.023 960H820.545M820.545 0V50.5263M820.545 0H871.068M820.545 50.5263V101.053M820.545 50.5263H871.068M820.545 101.053V151.579M820.545 101.053H871.068M820.545 151.579V202.105M820.545 151.579H871.068M820.545 202.105V252.632M820.545 202.105H871.068M820.545 252.632V303.158M820.545 252.632H871.068M820.545 303.158V353.684M820.545 303.158H871.068M820.545 353.684V404.211M820.545 353.684H871.068M820.545 404.211V454.737M820.545 404.211H871.068M820.545 454.737V505.263M820.545 454.737H871.068M820.545 505.263V555.789M820.545 505.263H871.068M820.545 555.789V606.316M820.545 555.789H871.068M820.545 606.316V656.842M820.545 606.316H871.068M820.545 656.842V707.368M820.545 656.842H871.068M820.545 707.368V757.895M820.545 707.368H871.068M820.545 757.895V808.421M820.545 757.895H871.068M820.545 808.421V858.947M820.545 808.421H871.068M820.545 858.947V909.474M820.545 858.947H871.068M820.545 909.474V960M820.545 909.474H871.068M820.545 960H871.068M871.068 0V50.5263M871.068 0H921.591M871.068 50.5263V101.053M871.068 50.5263H921.591M871.068 101.053V151.579M871.068 101.053H921.591M871.068 151.579V202.105M871.068 151.579H921.591M871.068 202.105V252.632M871.068 202.105H921.591M871.068 252.632V303.158M871.068 252.632H921.591M871.068 303.158V353.684M871.068 303.158H921.591M871.068 353.684V404.211M871.068 353.684H921.591M871.068 404.211V454.737M871.068 404.211H921.591M871.068 454.737V505.263M871.068 454.737H921.591M871.068 505.263V555.789M871.068 505.263H921.591M871.068 555.789V606.316M871.068 555.789H921.591M871.068 606.316V656.842M871.068 606.316H921.591M871.068 656.842V707.368M871.068 656.842H921.591M871.068 707.368V757.895M871.068 707.368H921.591M871.068 757.895V808.421M871.068 757.895H921.591M871.068 808.421V858.947M871.068 808.421H921.591M871.068 858.947V909.474M871.068 858.947H921.591M871.068 909.474V960M871.068 909.474H921.591M871.068 960H921.591M921.591 0V50.5263M921.591 0H972.114M921.591 50.5263V101.053M921.591 50.5263H972.114M921.591 101.053V151.579M921.591 101.053H972.114M921.591 151.579V202.105M921.591 151.579H972.114M921.591 202.105V252.632M921.591 202.105H972.114M921.591 252.632V303.158M921.591 252.632H972.114M921.591 303.158V353.684M921.591 303.158H972.114M921.591 353.684V404.211M921.591 353.684H972.114M921.591 404.211V454.737M921.591 404.211H972.114M921.591 454.737V505.263M921.591 454.737H972.114M921.591 505.263V555.789M921.591 505.263H972.114M921.591 555.789V606.316M921.591 555.789H972.114M921.591 606.316V656.842M921.591 606.316H972.114M921.591 656.842V707.368M921.591 656.842H972.114M921.591 707.368V757.895M921.591 707.368H972.114M921.591 757.895V808.421M921.591 757.895H972.114M921.591 808.421V858.947M921.591 808.421H972.114M921.591 858.947V909.474M921.591 858.947H972.114M921.591 909.474V960M921.591 909.474H972.114M921.591 960H972.114M972.114 0V50.5263M972.114 0H1022.64M972.114 50.5263V101.053M972.114 50.5263H1022.64M972.114 101.053V151.579M972.114 101.053H1022.64M972.114 151.579V202.105M972.114 151.579H1022.64M972.114 202.105V252.632M972.114 202.105H1022.64M972.114 252.632V303.158M972.114 252.632H1022.64M972.114 303.158V353.684M972.114 303.158H1022.64M972.114 353.684V404.211M972.114 353.684H1022.64M972.114 404.211V454.737M972.114 404.211H1022.64M972.114 454.737V505.263M972.114 454.737H1022.64M972.114 505.263V555.789M972.114 505.263H1022.64M972.114 555.789V606.316M972.114 555.789H1022.64M972.114 606.316V656.842M972.114 606.316H1022.64M972.114 656.842V707.368M972.114 656.842H1022.64M972.114 707.368V757.895M972.114 707.368H1022.64M972.114 757.895V808.421M972.114 757.895H1022.64M972.114 808.421V858.947M972.114 808.421H1022.64M972.114 858.947V909.474M972.114 858.947H1022.64M972.114 909.474V960M972.114 909.474H1022.64M972.114 960H1022.64M1022.64 0V50.5263M1022.64 0H1073.16M1022.64 50.5263V101.053M1022.64 50.5263H1073.16M1022.64 101.053V151.579M1022.64 101.053H1073.16M1022.64 151.579V202.105M1022.64 151.579H1073.16M1022.64 202.105V252.632M1022.64 202.105H1073.16M1022.64 252.632V303.158M1022.64 252.632H1073.16M1022.64 303.158V353.684M1022.64 303.158H1073.16M1022.64 353.684V404.211M1022.64 353.684H1073.16M1022.64 404.211V454.737M1022.64 404.211H1073.16M1022.64 454.737V505.263M1022.64 454.737H1073.16M1022.64 505.263V555.789M1022.64 505.263H1073.16M1022.64 555.789V606.316M1022.64 555.789H1073.16M1022.64 606.316V656.842M1022.64 606.316H1073.16M1022.64 656.842V707.368M1022.64 656.842H1073.16M1022.64 707.368V757.895M1022.64 707.368H1073.16M1022.64 757.895V808.421M1022.64 757.895H1073.16M1022.64 808.421V858.947M1022.64 808.421H1073.16M1022.64 858.947V909.474M1022.64 858.947H1073.16M1022.64 909.474V960M1022.64 909.474H1073.16M1022.64 960H1073.16M1073.16 0V50.5263M1073.16 0H1123.68M1073.16 50.5263V101.053M1073.16 50.5263H1123.68M1073.16 101.053V151.579M1073.16 101.053H1123.68M1073.16 151.579V202.105M1073.16 151.579H1123.68M1073.16 202.105V252.632M1073.16 202.105H1123.68M1073.16 252.632V303.158M1073.16 252.632H1123.68M1073.16 303.158V353.684M1073.16 303.158H1123.68M1073.16 353.684V404.211M1073.16 353.684H1123.68M1073.16 404.211V454.737M1073.16 404.211H1123.68M1073.16 454.737V505.263M1073.16 454.737H1123.68M1073.16 505.263V555.789M1073.16 505.263H1123.68M1073.16 555.789V606.316M1073.16 555.789H1123.68M1073.16 606.316V656.842M1073.16 606.316H1123.68M1073.16 656.842V707.368M1073.16 656.842H1123.68M1073.16 707.368V757.895M1073.16 707.368H1123.68M1073.16 757.895V808.421M1073.16 757.895H1123.68M1073.16 808.421V858.947M1073.16 808.421H1123.68M1073.16 858.947V909.474M1073.16 858.947H1123.68M1073.16 909.474V960M1073.16 909.474H1123.68M1073.16 960H1123.68M1123.68 0V50.5263M1123.68 0H1174.2M1123.68 50.5263V101.053M1123.68 50.5263H1174.2M1123.68 101.053V151.579M1123.68 101.053H1174.2M1123.68 151.579V202.105M1123.68 151.579H1174.2M1123.68 202.105V252.632M1123.68 202.105H1174.2M1123.68 252.632V303.158M1123.68 252.632H1174.2M1123.68 303.158V353.684M1123.68 303.158H1174.2M1123.68 353.684V404.211M1123.68 353.684H1174.2M1123.68 404.211V454.737M1123.68 404.211H1174.2M1123.68 454.737V505.263M1123.68 454.737H1174.2M1123.68 505.263V555.789M1123.68 505.263H1174.2M1123.68 555.789V606.316M1123.68 555.789H1174.2M1123.68 606.316V656.842M1123.68 606.316H1174.2M1123.68 656.842V707.368M1123.68 656.842H1174.2M1123.68 707.368V757.895M1123.68 707.368H1174.2M1123.68 757.895V808.421M1123.68 757.895H1174.2M1123.68 808.421V858.947M1123.68 808.421H1174.2M1123.68 858.947V909.474M1123.68 858.947H1174.2M1123.68 909.474V960M1123.68 909.474H1174.2M1123.68 960H1174.2M1174.2 0V50.5263M1174.2 0H1224.73M1174.2 50.5263V101.053M1174.2 50.5263H1224.73M1174.2 101.053V151.579M1174.2 101.053H1224.73M1174.2 151.579V202.105M1174.2 151.579H1224.73M1174.2 202.105V252.632M1174.2 202.105H1224.73M1174.2 252.632V303.158M1174.2 252.632H1224.73M1174.2 303.158V353.684M1174.2 303.158H1224.73M1174.2 353.684V404.211M1174.2 353.684H1224.73M1174.2 404.211V454.737M1174.2 404.211H1224.73M1174.2 454.737V505.263M1174.2 454.737H1224.73M1174.2 505.263V555.789M1174.2 505.263H1224.73M1174.2 555.789V606.316M1174.2 555.789H1224.73M1174.2 606.316V656.842M1174.2 606.316H1224.73M1174.2 656.842V707.368M1174.2 656.842H1224.73M1174.2 707.368V757.895M1174.2 707.368H1224.73M1174.2 757.895V808.421M1174.2 757.895H1224.73M1174.2 808.421V858.947M1174.2 808.421H1224.73M1174.2 858.947V909.474M1174.2 858.947H1224.73M1174.2 909.474V960M1174.2 909.474H1224.73M1174.2 960H1224.73M1224.73 0V50.5263M1224.73 0H1275.25M1224.73 50.5263V101.053M1224.73 50.5263H1275.25M1224.73 101.053V151.579M1224.73 101.053H1275.25M1224.73 151.579V202.105M1224.73 151.579H1275.25M1224.73 202.105V252.632M1224.73 202.105H1275.25M1224.73 252.632V303.158M1224.73 252.632H1275.25M1224.73 303.158V353.684M1224.73 303.158H1275.25M1224.73 353.684V404.211M1224.73 353.684H1275.25M1224.73 404.211V454.737M1224.73 404.211H1275.25M1224.73 454.737V505.263M1224.73 454.737H1275.25M1224.73 505.263V555.789M1224.73 505.263H1275.25M1224.73 555.789V606.316M1224.73 555.789H1275.25M1224.73 606.316V656.842M1224.73 606.316H1275.25M1224.73 656.842V707.368M1224.73 656.842H1275.25M1224.73 707.368V757.895M1224.73 707.368H1275.25M1224.73 757.895V808.421M1224.73 757.895H1275.25M1224.73 808.421V858.947M1224.73 808.421H1275.25M1224.73 858.947V909.474M1224.73 858.947H1275.25M1224.73 909.474V960M1224.73 909.474H1275.25M1224.73 960H1275.25M1275.25 0V50.5263M1275.25 0H1325.77M1275.25 50.5263V101.053M1275.25 50.5263H1325.77M1275.25 101.053V151.579M1275.25 101.053H1325.77M1275.25 151.579V202.105M1275.25 151.579H1325.77M1275.25 202.105V252.632M1275.25 202.105H1325.77M1275.25 252.632V303.158M1275.25 252.632H1325.77M1275.25 303.158V353.684M1275.25 303.158H1325.77M1275.25 353.684V404.211M1275.25 353.684H1325.77M1275.25 404.211V454.737M1275.25 404.211H1325.77M1275.25 454.737V505.263M1275.25 454.737H1325.77M1275.25 505.263V555.789M1275.25 505.263H1325.77M1275.25 555.789V606.316M1275.25 555.789H1325.77M1275.25 606.316V656.842M1275.25 606.316H1325.77M1275.25 656.842V707.368M1275.25 656.842H1325.77M1275.25 707.368V757.895M1275.25 707.368H1325.77M1275.25 757.895V808.421M1275.25 757.895H1325.77M1275.25 808.421V858.947M1275.25 808.421H1325.77M1275.25 858.947V909.474M1275.25 858.947H1325.77M1275.25 909.474V960M1275.25 909.474H1325.77M1275.25 960H1325.77M1325.77 0V50.5263M1325.77 0H1376.3M1325.77 50.5263V101.053M1325.77 50.5263H1376.3M1325.77 101.053V151.579M1325.77 101.053H1376.3M1325.77 151.579V202.105M1325.77 151.579H1376.3M1325.77 202.105V252.632M1325.77 202.105H1376.3M1325.77 252.632V303.158M1325.77 252.632H1376.3M1325.77 303.158V353.684M1325.77 303.158H1376.3M1325.77 353.684V404.211M1325.77 353.684H1376.3M1325.77 404.211V454.737M1325.77 404.211H1376.3M1325.77 454.737V505.263M1325.77 454.737H1376.3M1325.77 505.263V555.789M1325.77 505.263H1376.3M1325.77 555.789V606.316M1325.77 555.789H1376.3M1325.77 606.316V656.842M1325.77 606.316H1376.3M1325.77 656.842V707.368M1325.77 656.842H1376.3M1325.77 707.368V757.895M1325.77 707.368H1376.3M1325.77 757.895V808.421M1325.77 757.895H1376.3M1325.77 808.421V858.947M1325.77 808.421H1376.3M1325.77 858.947V909.474M1325.77 858.947H1376.3M1325.77 909.474V960M1325.77 909.474H1376.3M1325.77 960H1376.3M1376.3 0V50.5263M1376.3 0H1426.82M1376.3 50.5263V101.053M1376.3 50.5263H1426.82M1376.3 101.053V151.579M1376.3 101.053H1426.82M1376.3 151.579V202.105M1376.3 151.579H1426.82M1376.3 202.105V252.632M1376.3 202.105H1426.82M1376.3 252.632V303.158M1376.3 252.632H1426.82M1376.3 303.158V353.684M1376.3 303.158H1426.82M1376.3 353.684V404.211M1376.3 353.684H1426.82M1376.3 404.211V454.737M1376.3 404.211H1426.82M1376.3 454.737V505.263M1376.3 454.737H1426.82M1376.3 505.263V555.789M1376.3 505.263H1426.82M1376.3 555.789V606.316M1376.3 555.789H1426.82M1376.3 606.316V656.842M1376.3 606.316H1426.82M1376.3 656.842V707.368M1376.3 656.842H1426.82M1376.3 707.368V757.895M1376.3 707.368H1426.82M1376.3 757.895V808.421M1376.3 757.895H1426.82M1376.3 808.421V858.947M1376.3 808.421H1426.82M1376.3 858.947V909.474M1376.3 858.947H1426.82M1376.3 909.474V960M1376.3 909.474H1426.82M1376.3 960H1426.82M1426.82 0V50.5263M1426.82 0H1477.34M1426.82 50.5263V101.053M1426.82 50.5263H1477.34M1426.82 101.053V151.579M1426.82 101.053H1477.34M1426.82 151.579V202.105M1426.82 151.579H1477.34M1426.82 202.105V252.632M1426.82 202.105H1477.34M1426.82 252.632V303.158M1426.82 252.632H1477.34M1426.82 303.158V353.684M1426.82 303.158H1477.34M1426.82 353.684V404.211M1426.82 353.684H1477.34M1426.82 404.211V454.737M1426.82 404.211H1477.34M1426.82 454.737V505.263M1426.82 454.737H1477.34M1426.82 505.263V555.789M1426.82 505.263H1477.34M1426.82 555.789V606.316M1426.82 555.789H1477.34M1426.82 606.316V656.842M1426.82 606.316H1477.34M1426.82 656.842V707.368M1426.82 656.842H1477.34M1426.82 707.368V757.895M1426.82 707.368H1477.34M1426.82 757.895V808.421M1426.82 757.895H1477.34M1426.82 808.421V858.947M1426.82 808.421H1477.34M1426.82 858.947V909.474M1426.82 858.947H1477.34M1426.82 909.474V960M1426.82 909.474H1477.34M1426.82 960H1477.34M1477.34 0V50.5263M1477.34 0H1527.86M1477.34 50.5263V101.053M1477.34 50.5263H1527.86M1477.34 101.053V151.579M1477.34 101.053H1527.86M1477.34 151.579V202.105M1477.34 151.579H1527.86M1477.34 202.105V252.632M1477.34 202.105H1527.86M1477.34 252.632V303.158M1477.34 252.632H1527.86M1477.34 303.158V353.684M1477.34 303.158H1527.86M1477.34 353.684V404.211M1477.34 353.684H1527.86M1477.34 404.211V454.737M1477.34 404.211H1527.86M1477.34 454.737V505.263M1477.34 454.737H1527.86M1477.34 505.263V555.789M1477.34 505.263H1527.86M1477.34 555.789V606.316M1477.34 555.789H1527.86M1477.34 606.316V656.842M1477.34 606.316H1527.86M1477.34 656.842V707.368M1477.34 656.842H1527.86M1477.34 707.368V757.895M1477.34 707.368H1527.86M1477.34 757.895V808.421M1477.34 757.895H1527.86M1477.34 808.421V858.947M1477.34 808.421H1527.86M1477.34 858.947V909.474M1477.34 858.947H1527.86M1477.34 909.474V960M1477.34 909.474H1527.86M1477.34 960H1527.86M1527.86 0V50.5263M1527.86 0H1578.39M1527.86 50.5263V101.053M1527.86 50.5263H1578.39M1527.86 101.053V151.579M1527.86 101.053H1578.39M1527.86 151.579V202.105M1527.86 151.579H1578.39M1527.86 202.105V252.632M1527.86 202.105H1578.39M1527.86 252.632V303.158M1527.86 252.632H1578.39M1527.86 303.158V353.684M1527.86 303.158H1578.39M1527.86 353.684V404.211M1527.86 353.684H1578.39M1527.86 404.211V454.737M1527.86 404.211H1578.39M1527.86 454.737V505.263M1527.86 454.737H1578.39M1527.86 505.263V555.789M1527.86 505.263H1578.39M1527.86 555.789V606.316M1527.86 555.789H1578.39M1527.86 606.316V656.842M1527.86 606.316H1578.39M1527.86 656.842V707.368M1527.86 656.842H1578.39M1527.86 707.368V757.895M1527.86 707.368H1578.39M1527.86 757.895V808.421M1527.86 757.895H1578.39M1527.86 808.421V858.947M1527.86 808.421H1578.39M1527.86 858.947V909.474M1527.86 858.947H1578.39M1527.86 909.474V960M1527.86 909.474H1578.39M1527.86 960H1578.39M1578.39 0V50.5263M1578.39 0H1628.91M1578.39 50.5263V101.053M1578.39 50.5263H1628.91M1578.39 101.053V151.579M1578.39 101.053H1628.91M1578.39 151.579V202.105M1578.39 151.579H1628.91M1578.39 202.105V252.632M1578.39 202.105H1628.91M1578.39 252.632V303.158M1578.39 252.632H1628.91M1578.39 303.158V353.684M1578.39 303.158H1628.91M1578.39 353.684V404.211M1578.39 353.684H1628.91M1578.39 404.211V454.737M1578.39 404.211H1628.91M1578.39 454.737V505.263M1578.39 454.737H1628.91M1578.39 505.263V555.789M1578.39 505.263H1628.91M1578.39 555.789V606.316M1578.39 555.789H1628.91M1578.39 606.316V656.842M1578.39 606.316H1628.91M1578.39 656.842V707.368M1578.39 656.842H1628.91M1578.39 707.368V757.895M1578.39 707.368H1628.91M1578.39 757.895V808.421M1578.39 757.895H1628.91M1578.39 808.421V858.947M1578.39 808.421H1628.91M1578.39 858.947V909.474M1578.39 858.947H1628.91M1578.39 909.474V960M1578.39 909.474H1628.91M1578.39 960H1628.91M1628.91 0V50.5263M1628.91 0H1679.43M1628.91 50.5263V101.053M1628.91 50.5263H1679.43M1628.91 101.053V151.579M1628.91 101.053H1679.43M1628.91 151.579V202.105M1628.91 151.579H1679.43M1628.91 202.105V252.632M1628.91 202.105H1679.43M1628.91 252.632V303.158M1628.91 252.632H1679.43M1628.91 303.158V353.684M1628.91 303.158H1679.43M1628.91 353.684V404.211M1628.91 353.684H1679.43M1628.91 404.211V454.737M1628.91 404.211H1679.43M1628.91 454.737V505.263M1628.91 454.737H1679.43M1628.91 505.263V555.789M1628.91 505.263H1679.43M1628.91 555.789V606.316M1628.91 555.789H1679.43M1628.91 606.316V656.842M1628.91 606.316H1679.43M1628.91 656.842V707.368M1628.91 656.842H1679.43M1628.91 707.368V757.895M1628.91 707.368H1679.43M1628.91 757.895V808.421M1628.91 757.895H1679.43M1628.91 808.421V858.947M1628.91 808.421H1679.43M1628.91 858.947V909.474M1628.91 858.947H1679.43M1628.91 909.474V960M1628.91 909.474H1679.43M1628.91 960H1679.43M1679.43 0V50.5263M1679.43 0H1729.95M1679.43 50.5263V101.053M1679.43 50.5263H1729.95M1679.43 101.053V151.579M1679.43 101.053H1729.95M1679.43 151.579V202.105M1679.43 151.579H1729.95M1679.43 202.105V252.632M1679.43 202.105H1729.95M1679.43 252.632V303.158M1679.43 252.632H1729.95M1679.43 303.158V353.684M1679.43 303.158H1729.95M1679.43 353.684V404.211M1679.43 353.684H1729.95M1679.43 404.211V454.737M1679.43 404.211H1729.95M1679.43 454.737V505.263M1679.43 454.737H1729.95M1679.43 505.263V555.789M1679.43 505.263H1729.95M1679.43 555.789V606.316M1679.43 555.789H1729.95M1679.43 606.316V656.842M1679.43 606.316H1729.95M1679.43 656.842V707.368M1679.43 656.842H1729.95M1679.43 707.368V757.895M1679.43 707.368H1729.95M1679.43 757.895V808.421M1679.43 757.895H1729.95M1679.43 808.421V858.947M1679.43 808.421H1729.95M1679.43 858.947V909.474M1679.43 858.947H1729.95M1679.43 909.474V960M1679.43 909.474H1729.95M1679.43 960H1729.95M1729.95 0V50.5263M1729.95 0H1780.48M1729.95 50.5263V101.053M1729.95 50.5263H1780.48M1729.95 101.053V151.579M1729.95 101.053H1780.48M1729.95 151.579V202.105M1729.95 151.579H1780.48M1729.95 202.105V252.632M1729.95 202.105H1780.48M1729.95 252.632V303.158M1729.95 252.632H1780.48M1729.95 303.158V353.684M1729.95 303.158H1780.48M1729.95 353.684V404.211M1729.95 353.684H1780.48M1729.95 404.211V454.737M1729.95 404.211H1780.48M1729.95 454.737V505.263M1729.95 454.737H1780.48M1729.95 505.263V555.789M1729.95 505.263H1780.48M1729.95 555.789V606.316M1729.95 555.789H1780.48M1729.95 606.316V656.842M1729.95 606.316H1780.48M1729.95 656.842V707.368M1729.95 656.842H1780.48M1729.95 707.368V757.895M1729.95 707.368H1780.48M1729.95 757.895V808.421M1729.95 757.895H1780.48M1729.95 808.421V858.947M1729.95 808.421H1780.48M1729.95 858.947V909.474M1729.95 858.947H1780.48M1729.95 909.474V960M1729.95 909.474H1780.48M1729.95 960H1780.48M1780.48 0V50.5263M1780.48 0H1831V50.5263M1780.48 50.5263V101.053M1780.48 50.5263H1831M1780.48 101.053V151.579M1780.48 101.053H1831M1780.48 151.579V202.105M1780.48 151.579H1831M1780.48 202.105V252.632M1780.48 202.105H1831M1780.48 252.632V303.158M1780.48 252.632H1831M1780.48 303.158V353.684M1780.48 303.158H1831M1780.48 353.684V404.211M1780.48 353.684H1831M1780.48 404.211V454.737M1780.48 404.211H1831M1780.48 454.737V505.263M1780.48 454.737H1831M1780.48 505.263V555.789M1780.48 505.263H1831M1780.48 555.789V606.316M1780.48 555.789H1831M1780.48 606.316V656.842M1780.48 606.316H1831M1780.48 656.842V707.368M1780.48 656.842H1831M1780.48 707.368V757.895M1780.48 707.368H1831M1780.48 757.895V808.421M1780.48 757.895H1831M1780.48 808.421V858.947M1780.48 808.421H1831M1780.48 858.947V909.474M1780.48 858.947H1831M1780.48 909.474V960M1780.48 909.474H1831M1780.48 960H1831V909.474M1831 50.5263V101.053M1831 101.053V151.579M1831 151.579V202.105M1831 202.105V252.632M1831 252.632V303.158M1831 303.158V353.684M1831 353.684V404.211M1831 404.211V454.737M1831 454.737V505.263M1831 505.263V555.789M1831 555.789V606.316M1831 606.316V656.842M1831 656.842V707.368M1831 707.368V757.895M1831 757.895V808.421M1831 808.421V858.947M1831 858.947V909.474" stroke="url(#paint0_radial_96_452)"/>
</g>
<defs>
<radialGradient id="paint0_radial_96_452" cx="0" cy="0" r="1" gradientUnits="userSpaceOnUse" gradientTransform="translate(719.5 324.5) rotate(-90) scale(447 835.849)">
<stop stop-color="#ECECEC"/>
<stop offset="1" stop-color="white" stop-opacity="0.2"/>
</radialGradient>
<clipPath id="clip0_96_452">
<rect width="1478" height="777" fill="white" transform="translate(-6)"/>
</clipPath>
</defs>
</svg>
