<svg width="78" height="18" viewBox="0 0 78 18" fill="none" xmlns="http://www.w3.org/2000/svg">
<g clip-path="url(#clip0_1_1572)">
<path d="M29.9477 14.6714C30.7261 13.8721 31.3165 12.9525 31.7201 11.9162C32.1249 10.8799 32.3267 9.7696 32.3242 8.60032C32.3242 7.43103 32.1111 6.32069 31.6864 5.2844C31.2604 4.24809 30.6514 3.31968 29.8593 2.5205C29.0509 1.71881 28.1155 1.09025 27.0518 0.668705C25.9881 0.245903 24.8534 0 23.6515 0H17.4151V11.7218H21.1305V3.75127H23.6515C24.3702 3.75127 25.0316 3.91813 25.6332 4.15524C26.2348 4.39237 26.7542 4.77 27.195 5.1928C27.6359 5.61435 27.976 6.11745 28.2202 6.70335C28.463 7.28799 28.5826 7.91905 28.5826 8.59905C28.5826 9.31041 28.4617 9.95908 28.2202 10.56C27.9772 11.1584 27.6397 11.6603 27.2062 12.0906C26.7753 12.5197 26.2534 12.8271 25.6444 13.0617C25.034 13.3001 24.3702 13.3628 23.6515 13.3628H15.558V0H11.6108V5.86025H3.71544V0H0V17.1128H3.71544V9.6115H11.6096V17.1128H23.6515C24.8846 17.1128 26.0579 16.9522 27.1739 16.493C27.7033 16.2697 28.2014 16.0715 28.6722 15.7603C29.1418 15.4492 29.5653 15.0879 29.9477 14.6714Z" fill="black"/>
<mask id="mask0_1_1572" style="mask-type:luminance" maskUnits="userSpaceOnUse" x="36" y="0" width="42" height="17">
<path d="M77.0075 0.949219H36.127V16.1606H77.0075V0.949219Z" fill="white"/>
</mask>
<g mask="url(#mask0_1_1572)">
<path d="M39.9326 1.36438H41.2425V7.86497H39.9326V5.17187H37.4464V7.86497H36.127V1.36438H37.4464V3.94604H39.9326V1.36438ZM48.1178 7.0199C47.4421 7.66996 46.6198 7.99499 45.6508 7.99499C44.6819 7.99499 43.8596 7.66996 43.1839 7.0199C42.5146 6.36364 42.1799 5.56191 42.1799 4.61468C42.1799 3.66744 42.5146 2.86881 43.1839 2.21874C43.8596 1.56249 44.6819 1.23438 45.6508 1.23438C46.6198 1.23438 47.4421 1.56249 48.1178 2.21874C48.7935 2.86881 49.1313 3.66744 49.1313 4.61468C49.1313 5.56191 48.7935 6.36364 48.1178 7.0199ZM44.1114 6.14696C44.5257 6.54318 45.0388 6.74129 45.6508 6.74129C46.2628 6.74129 46.776 6.54318 47.1903 6.14696C47.6046 5.74454 47.8118 5.23378 47.8118 4.61468C47.8118 3.99557 47.6046 3.48481 47.1903 3.0824C46.776 2.67998 46.2628 2.47877 45.6508 2.47877C45.0388 2.47877 44.5257 2.67998 44.1114 3.0824C43.6971 3.48481 43.4898 3.99557 43.4898 4.61468C43.4898 5.23378 43.6971 5.74454 44.1114 6.14696ZM55.6906 7.0199C55.0149 7.66996 54.1926 7.99499 53.2237 7.99499C52.2548 7.99499 51.4325 7.66996 50.7568 7.0199C50.0874 6.36364 49.7527 5.56191 49.7527 4.61468C49.7527 3.66744 50.0874 2.86881 50.7568 2.21874C51.4325 1.56249 52.2548 1.23438 53.2237 1.23438C54.1926 1.23438 55.0149 1.56249 55.6906 2.21874C56.3664 2.86881 56.7041 3.66744 56.7041 4.61468C56.7041 5.56191 56.3664 6.36364 55.6906 7.0199ZM51.6842 6.14696C52.0985 6.54318 52.6117 6.74129 53.2237 6.74129C53.8357 6.74129 54.3488 6.54318 54.7631 6.14696C55.1774 5.74454 55.3847 5.23378 55.3847 4.61468C55.3847 3.99557 55.1774 3.48481 54.7631 3.0824C54.3488 2.67998 53.8357 2.47877 53.2237 2.47877C52.6117 2.47877 52.0985 2.67998 51.6842 3.0824C51.2699 3.48481 51.0627 3.99557 51.0627 4.61468C51.0627 5.23378 51.2699 5.74454 51.6842 6.14696ZM64.1814 1.36438V7.86497H62.8714V3.64888L60.9878 6.66701H60.8348L58.9512 3.65817V7.86497H57.6316V1.36438H58.9894L60.9112 4.43823L62.8236 1.36438H64.1814ZM69.7314 7.86497L69.3298 6.69486H66.662L66.2604 7.86497H64.8357L67.1783 1.36438H68.8135L71.1656 7.86497H69.7314ZM67.0827 5.4969H68.9186L68.0007 2.84094L67.0827 5.4969ZM75.688 1.36438H77.0075V7.86497H76.0036L73.135 3.89033V7.86497H71.8155V1.36438H72.8195L75.688 5.32974V1.36438Z" fill="black"/>
<path d="M38.37 10.3442C39.1619 10.3442 39.8154 10.622 40.3305 11.1776C40.8511 11.7277 41.1113 12.4032 41.1113 13.2039C41.1113 14.0046 40.8511 14.6828 40.3305 15.2384C39.8154 15.7886 39.1619 16.0636 38.37 16.0636H36.127V10.3442H38.37ZM38.37 15.5243C39.0068 15.5243 39.5275 15.301 39.9317 14.8544C40.3415 14.4077 40.5465 13.8576 40.5465 13.2039C40.5465 12.5502 40.3415 12.0002 39.9317 11.5534C39.5275 11.1068 39.0068 10.8835 38.37 10.8835H36.7085V15.5243H38.37ZM42.106 10.3442H42.6875V16.0636H42.106V10.3442ZM49.5782 13.3428V13.6369C49.5782 14.3451 49.3207 14.9442 48.8056 15.4345C48.2905 15.9193 47.6011 16.1617 46.7371 16.1617C45.8565 16.1617 45.1283 15.8757 44.5522 15.3038C43.9763 14.7318 43.6882 14.0318 43.6882 13.2039C43.6882 12.376 43.9763 11.676 44.5522 11.104C45.1283 10.5321 45.8565 10.2461 46.7371 10.2461C47.2743 10.2461 47.7672 10.3742 48.2158 10.6302C48.6645 10.8861 49.0106 11.2267 49.2543 11.6515L48.7392 11.9456C48.5565 11.597 48.285 11.3192 47.9251 11.1122C47.5651 10.9052 47.1691 10.8018 46.7371 10.8018C46.0116 10.8018 45.419 11.0332 44.9593 11.4963C44.4997 11.9593 44.2698 12.5285 44.2698 13.2039C44.2698 13.8793 44.4997 14.4485 44.9593 14.9115C45.419 15.3746 46.0116 15.6061 46.7371 15.6061C47.3906 15.6061 47.914 15.4453 48.3072 15.124C48.7005 14.7971 48.9248 14.3832 48.9801 13.8821H46.6706V13.3428H49.5782ZM50.5757 10.3442H51.1571V16.0636H50.5757V10.3442ZM56.1455 10.3442V10.8835H54.3594V16.0636H53.7779V10.8835H51.9918V10.3442H56.1455ZM60.4341 16.0636L59.8941 14.6582H57.1361L56.596 16.0636H55.9813L58.216 10.3442H58.8142L61.0488 16.0636H60.4341ZM57.3437 14.119H59.6864L58.5151 11.0551L57.3437 14.119ZM62.377 15.5243H65.0353V16.0636H61.7955V10.3442H62.377V15.5243Z" fill="black"/>
</g>
</g>
<defs>
<clipPath id="clip0_1_1572">
<rect width="77.5674" height="17.1128" fill="white"/>
</clipPath>
</defs>
</svg>
