<svg width="83" height="23" viewBox="0 0 83 23" fill="none" xmlns="http://www.w3.org/2000/svg">
<path d="M25.1116 7.15286H26.8585V15.7119H25.1116V7.15286ZM29.0653 7.15286H30.8012L36.1349 9.94564V7.15286H37.8708V15.7119H36.1349V11.7856L30.8012 9.00924V15.7119H29.0653V7.15286ZM40.2912 7.15286H47.9467V8.6752H42.0271V10.9149H47.0541V12.3441H42.0271V15.7119H40.2912V7.15286ZM49.6224 7.15286H56.911V8.6752H51.3583V10.3837H56.2758V11.813H51.3583V14.1951H57.026V15.7119H49.6224V7.15286ZM58.9536 7.15286H63.307C63.9642 7.15286 64.5337 7.22222 65.0156 7.36095C65.4974 7.49602 65.8972 7.69316 66.2148 7.95236C66.5324 8.21156 66.7679 8.52735 66.9212 8.89972C67.0782 9.27209 67.1567 9.69374 67.1567 10.1647C67.1567 10.4823 67.1184 10.7853 67.0417 11.0737C66.965 11.3585 66.8464 11.6213 66.6857 11.8623C66.5288 12.1032 66.3298 12.3186 66.0889 12.5084C65.8479 12.6946 65.565 12.8498 65.2401 12.9739L67.1019 15.7119H64.9772L63.3673 13.2806H63.318L60.6895 13.2751V15.7119H58.9536V7.15286ZM63.3508 11.7746C63.6794 11.7746 63.966 11.7363 64.2106 11.6596C64.4588 11.583 64.6651 11.4753 64.8294 11.3366C64.9973 11.1978 65.1214 11.0299 65.2017 10.8328C65.2857 10.632 65.3277 10.4093 65.3277 10.1647C65.3277 9.68644 65.1634 9.31772 64.8348 9.05852C64.5063 8.79567 64.0116 8.66425 63.3508 8.66425H60.6895V11.7746H63.3508ZM68.9966 7.15286H70.7435V15.7119H68.9966V7.15286ZM75.88 7.15286H77.72L81.8599 15.7119H80.0363L79.3518 14.2717H74.3522L73.6896 15.7119H71.8606L75.88 7.15286ZM78.6673 12.8425L76.8164 8.95448L75.0148 12.8425H78.6673Z" fill="black"/>
<path d="M8.38805 12.947C8.8023 13.3207 9.15763 13.5626 9.20807 14.155C9.35003 15.8232 9.10183 17.6797 9.21075 19.368L9.78883 20.2836C9.85579 20.3291 10.0674 20.0336 10.1183 19.968C10.2397 19.8113 10.4794 19.4684 10.5017 19.2818C10.6075 17.6253 10.3575 15.7879 10.4991 14.1528C10.5424 13.6501 10.8222 13.405 11.1686 13.0836C13.1886 11.2083 15.521 9.63166 17.3651 7.5577C17.6811 7.20237 17.7798 7.1247 17.8115 6.6225C17.9293 4.7771 17.7802 2.73395 17.8115 0.871581C17.8155 0.633652 17.7999 0.393938 17.8097 0.156009C17.8119 0.101995 17.7762 -0.00960428 17.8539 0.000662825C18.028 1.43717 18.5413 2.82233 18.7453 4.25794C18.8583 5.05163 19.0578 6.56134 18.7797 7.27781C18.5806 7.79027 18.0056 8.31077 17.6106 8.69378C16.0245 10.2325 14.3416 11.7038 12.7301 13.218C12.3788 13.5483 11.7503 13.9099 11.703 14.4193C11.5472 16.0848 11.8315 17.9806 11.6945 19.6707C11.5927 20.0483 11.2637 20.2867 11.0374 20.5737C10.6218 21.1014 10.2263 21.6388 9.85535 22.1986C9.5585 21.7308 9.23709 21.2772 8.89604 20.8411C8.56794 20.4215 8.09342 20.0858 7.97245 19.5363C7.83541 17.8605 8.11798 15.9807 7.96397 14.3291C7.94567 14.1345 7.86665 14.0273 7.74077 13.884C5.87975 12.0913 3.88212 10.4289 2.05592 8.6045C1.08278 7.63225 0.699321 7.35102 0.785029 5.86006C0.897967 3.90082 1.53899 1.95677 1.92245 0.0439633L1.98941 0.000216504C1.98137 0.304659 2.00101 0.611779 1.99208 0.916221C1.93807 2.7268 1.77514 4.83067 1.89879 6.62205C1.93584 7.1613 2.15993 7.33584 2.50187 7.7126C4.22183 9.60844 6.48908 11.2315 8.38894 12.9461L8.38805 12.947Z" fill="black"/>
<path d="M11.4387 11.4341C11.3208 12.147 10.3128 12.2804 10.1945 11.4747L10.1896 4.07746C10.7878 2.30706 13.3064 3.60205 13.9514 4.72965C14.0157 4.84214 14.0889 5.12426 14.1536 5.19613C14.2148 5.26398 14.3237 5.25639 14.4036 5.30282C15.0817 5.70011 15.416 6.08312 15.5379 6.88753C15.5567 7.01073 15.5125 7.16027 15.5477 7.27901C15.6187 7.51873 16.2008 7.64327 15.7839 8.06824C15.7017 7.97584 15.6727 7.87094 15.5852 7.77675C15.4692 7.65131 15.2125 7.5714 15.183 7.42141C15.1553 7.28035 15.1978 7.08706 15.1812 6.93261C15.1053 6.21615 14.5701 5.62065 13.8528 5.52021C13.6871 4.64662 12.9524 4.00961 12.1301 3.744C11.7074 3.60741 11.1382 3.45608 10.7543 3.75115C10.6914 3.79936 10.503 4.05871 10.503 4.12344V6.37462L11.7435 5.78805C11.7663 5.75189 11.7596 5.43986 11.7418 5.38049C11.7127 5.28229 11.5936 5.28273 11.5699 5.10641C11.4503 4.2154 12.756 4.57162 12.393 5.2122C12.2667 5.43495 12.0395 5.42245 12.0203 5.44076C11.981 5.4787 12.0899 5.88269 11.9315 5.95411L10.503 6.66477V9.3619L12.0855 8.60481L12.1145 7.29642C12.1587 7.16742 12.7725 6.99645 12.8533 6.89869C12.943 6.78976 12.897 6.53577 13.164 6.47416C13.9032 6.30409 13.9876 7.4299 13.1519 7.31383C12.9854 7.29062 12.9336 7.14688 12.8877 7.14331C12.8582 7.14108 12.4252 7.36919 12.3747 7.4232V8.649H13.8675C13.9795 8.41107 14.2045 8.12404 14.4938 8.2901C14.813 8.47357 14.7531 8.99184 14.3826 9.07621C14.0443 9.15343 14.0501 8.90791 13.8666 8.87265C13.5349 8.80926 12.2185 8.85167 11.9132 8.96728C11.4619 9.1387 11.0016 9.4668 10.5468 9.65116C10.5008 9.68554 10.5061 9.73375 10.5003 9.78285C10.4727 10.0132 10.4695 11.3783 10.5226 11.5488C10.6682 12.0135 11.2159 11.6028 11.2159 11.2569V10.0757H12.1739C12.2131 10.0757 12.4051 9.56635 12.8185 9.8324C13.201 10.0788 12.9586 10.7163 12.4167 10.5457C12.2498 10.4931 12.2547 10.3431 12.2408 10.3431H11.4387C11.3998 10.6752 11.4913 11.1185 11.4387 11.4354V11.4341ZM11.8511 4.87026C11.6507 5.07114 12.0408 5.34924 12.1752 5.0823C12.285 4.86357 11.977 4.74438 11.8511 4.87026ZM13.2952 6.69691C13.0649 6.71611 13.0336 7.175 13.3568 7.06832C13.5894 6.99154 13.5059 6.67906 13.2952 6.69691ZM14.2059 8.51866C14.1277 8.57088 14.1121 8.93514 14.38 8.80435C14.6067 8.69364 14.3438 8.42581 14.2059 8.51866ZM12.7207 10.2859C12.8189 10.1935 12.7198 9.98685 12.5399 10.0364C12.2948 10.1043 12.51 10.4837 12.7207 10.2859Z" fill="black"/>
<path d="M9.2113 4.16957C9.16041 3.86379 8.81401 3.64595 8.52073 3.61202C7.51544 3.49685 6.38338 4.21287 5.96377 5.11102C5.92047 5.20387 5.90261 5.38734 5.84771 5.44046C5.80084 5.48599 5.38837 5.60384 5.24909 5.68865C4.62548 6.0672 4.37817 6.73947 4.51343 7.44835C4.24649 7.55637 3.96079 7.71351 3.90767 8.02509L3.81527 7.99697C3.42288 7.56709 4.08668 7.40415 4.12462 7.23675C4.13757 7.18006 4.09159 7.11667 4.0965 7.06712C4.16078 6.4011 4.37549 5.90248 4.91206 5.4851C5.08883 5.34761 5.47765 5.22976 5.55576 5.14851C5.62719 5.07486 5.73745 4.73471 5.81557 4.60614C6.48561 3.50712 9.0506 2.37952 9.52333 4.16867L9.52467 11.3476C9.48048 11.8565 9.21398 12.1556 8.67607 12.0819V11.8141C8.96846 11.8395 9.1622 11.7927 9.20684 11.4757L9.20371 7.54164L8.23637 6.93365H7.33867C7.24091 6.87383 7.1619 6.49931 7.10476 6.43146C7.05566 6.37298 6.81683 6.327 6.76907 6.16585C6.55078 5.43108 7.72837 5.43599 7.50785 6.16585C7.46589 6.30557 7.19806 6.34262 7.45116 6.64171C7.53598 6.7417 7.83372 6.66358 7.96273 6.68724V5.39448C7.64311 5.35386 7.44089 5.06147 7.56633 4.75256C7.75605 4.28652 8.44529 4.47892 8.36627 5.06236C8.34619 5.21012 8.24128 5.23422 8.22834 5.32975C8.21539 5.42528 8.27432 5.53286 8.27655 5.63776C8.28324 5.96453 8.2761 6.28816 8.23548 6.61225L9.21041 7.26666V4.16867L9.2113 4.16957ZM7.85828 4.77622C7.6882 4.83336 7.80203 5.23244 8.05246 5.10655C8.24887 5.0079 8.1096 4.69185 7.85828 4.77622ZM7.032 6.14844C7.16547 6.24085 7.4342 5.97792 7.20564 5.86141C7.00655 5.75963 6.932 6.07925 7.032 6.14844Z" fill="black"/>
<path d="M4.90886 17.1882C5.39856 17.7132 6.00476 18.131 6.54222 18.6095L6.51678 18.9001C4.85797 17.8502 3.45183 16.4807 2.51975 14.7406C1.52384 12.8818 1.11494 10.74 0.968079 8.64819L1.98363 9.74945C2.13094 12.3877 3.08757 15.2374 4.90886 17.1886V17.1882Z" fill="black"/>
<path d="M13.1779 18.8559L13.1775 18.7253L13.1779 18.6327C13.5212 18.306 13.9346 18.043 14.2921 17.7203C16.4764 15.7463 17.5321 12.6916 17.7428 9.80481L18.7476 8.64819C18.565 12.2497 17.4089 15.6981 14.51 17.9828C14.3828 18.0828 13.2422 18.9162 13.1775 18.8564L13.1779 18.8559Z" fill="black"/>
<path d="M15.4749 3.6342C16.2231 4.28594 16.8395 5.06043 17.2757 5.9568L17.2292 6.05249L17.1422 6.20097L16.8043 5.67021C14.8758 2.75926 11.477 1.40133 8.04285 2.11377C5.72203 2.59543 3.73736 4.1663 2.56914 6.20097C2.52182 6.19428 2.44816 5.97063 2.44638 5.94831C2.42986 5.77154 3.17043 4.71671 3.3289 4.53101C6.41707 0.897791 11.8787 0.500945 15.4753 3.63464L15.4749 3.6342Z" fill="black"/>
<path d="M0.111599 8.39141L0.16475 8.42514L0.254921 10.3192C0.651767 14.6577 3.11498 18.4338 6.96336 20.4595L7.07317 20.7283C6.22324 20.3671 5.37776 19.8627 4.64567 19.3011C1.32627 16.7544 -0.251738 12.4614 0.0326164 8.3363L0.111599 8.39141Z" fill="black"/>
<path d="M17.2134 17.1448C16.301 18.3662 15.1288 19.3701 13.8137 20.141C13.553 20.2942 12.9655 20.6482 12.7071 20.7285C12.5879 20.7656 12.6312 20.5783 12.6464 20.5111C15.2997 19.0974 17.3491 17.0203 18.5008 14.2201C19.2575 12.3796 19.5454 10.4145 19.549 8.42583L19.682 8.29236C19.9177 11.4024 19.0803 14.645 17.213 17.1448H17.2134Z" fill="black"/>
<path d="M6.84772 17.6545C6.5964 17.3876 6.27812 17.1787 6.01653 16.9255C5.94957 16.8608 5.52148 16.4233 5.50764 16.389C5.37952 16.0729 5.53442 15.5498 5.44425 15.2025C4.99473 14.902 4.52557 14.6195 4.17292 14.2007C3.40021 13.2838 3.22968 11.996 3.19397 10.8345C3.63858 10.8706 3.47118 11.38 3.50645 11.7032C3.58814 12.4567 3.83187 13.3392 4.28943 13.9512C4.56083 14.3141 5.03267 14.7145 5.46657 14.8467V13.7543L4.48539 12.662L4.55325 12.529C4.63047 12.5259 5.61924 13.5222 5.65629 13.6093C5.80717 13.9668 5.74111 15.2962 5.7362 15.7618C5.73486 15.8993 5.66968 15.9957 5.6987 16.1502C5.75048 16.426 6.37276 16.8711 6.58078 17.0751V15.381C6.58078 15.3703 6.45579 15.3681 6.38258 15.2895C5.93306 14.8096 6.85888 14.2856 7.05217 14.8882C7.10976 15.0681 7.02806 15.1636 6.93789 15.3042C6.91066 15.3466 6.84861 15.3315 6.84861 15.3359V17.6541L6.84772 17.6545ZM6.65309 14.8489C6.49864 14.8726 6.47186 15.2391 6.73166 15.1538C6.88209 15.1047 6.77853 14.8293 6.65309 14.8489Z" fill="black"/>
<path d="M7.11567 7.45026V8.78766H5.66711C5.64122 8.78766 5.50239 9.08139 5.24125 9.03675C4.91092 8.98006 4.75691 8.59482 5.00198 8.34573C5.37204 7.96942 5.62604 8.52027 5.66666 8.52027H6.84783V7.65114L6.32688 7.41321C6.24921 7.40607 6.16529 7.56945 6.01932 7.58418C5.46355 7.64043 5.38142 6.78647 5.94031 6.7521C6.32555 6.72844 6.27376 7.04851 6.42956 7.17841C6.57597 7.30072 6.93309 7.35205 7.11522 7.45071L7.11567 7.45026ZM5.89522 7.00878C5.76309 7.05252 5.7863 7.39 6.01932 7.31322C6.15145 7.26947 6.12824 6.932 5.89522 7.00878ZM5.1609 8.52652C5.05778 8.68812 5.28678 8.92337 5.40195 8.69838C5.49525 8.51625 5.22384 8.42832 5.1609 8.52652Z" fill="black"/>
<path d="M15.1768 12.71C15.1772 12.732 15.1923 12.7492 15.0361 12.9054C14.7906 13.1509 14.7938 13.1578 14.5746 13.3792C14.2376 13.7193 13.913 14.0903 13.5956 14.451C13.5488 14.5898 13.5483 16.2062 13.5952 16.3196C13.6162 16.3709 13.7028 16.4147 13.73 16.4964C13.9532 17.1727 12.8747 17.3834 12.9457 16.6106C12.972 16.3236 13.1689 16.3442 13.2372 16.2317C13.3666 16.0183 13.1412 14.801 13.3845 14.3282C13.5193 14.0662 14.6777 12.9096 14.9522 12.6868C15.0701 12.5913 15.1437 12.5163 15.1772 12.71H15.1768ZM13.4756 16.8044C13.6135 16.5865 13.2832 16.3218 13.1881 16.6321C13.1167 16.8655 13.4175 16.8954 13.4756 16.8044Z" fill="black"/>
<path d="M15.0769 14.7392C15.0359 14.7915 14.9439 14.8316 14.9269 14.9245C14.9122 15.0048 14.9667 15.0937 14.9658 15.1812C14.9582 15.8842 14.0917 15.6115 14.2324 15.1231C14.3109 14.8508 14.4962 14.8928 14.6662 14.7968C14.9086 14.6602 15.5555 13.7822 15.6974 13.5103C16.1036 12.734 16.1902 11.8635 16.2161 10.998L16.5206 10.7904C16.4514 11.7229 16.3688 12.7362 15.9496 13.5844C15.7188 14.0513 15.3845 14.3437 15.0765 14.7392H15.0769ZM14.5886 15.0731C14.4368 15.0972 14.4172 15.4115 14.6676 15.3338C14.8176 15.287 14.6979 15.0557 14.5886 15.0731Z" fill="black"/>
<path d="M8.31873 7.67224V9.7895C8.31873 10.2613 7.3929 10.1301 7.34291 10.1734C7.33219 10.1828 7.31746 10.3475 7.22952 10.4386C6.78045 10.9037 6.272 9.97297 6.80411 9.7462C7.09828 9.62076 7.17997 9.87208 7.40317 9.90288C7.50718 9.91717 8.05134 9.931 8.05134 9.7895V7.67224H8.31873ZM6.92374 9.99484C6.7251 10.0444 6.80991 10.3435 6.99517 10.297C7.19381 10.2475 7.109 9.94841 6.92374 9.99484Z" fill="black"/>
</svg>
