<svg width="63" height="63" viewBox="0 0 63 63" fill="none" xmlns="http://www.w3.org/2000/svg">
<path d="M24.6069 16.819C22.3231 16.9069 20.2586 17.722 19.1548 18.8271C19.0328 18.949 18.8881 19.0456 18.7288 19.1115C18.5695 19.1775 18.3988 19.2114 18.2264 19.2113C18.054 19.2112 17.8833 19.1772 17.724 19.1112C17.5648 19.0452 17.4201 18.9484 17.2982 18.8265C17.1764 18.7045 17.0797 18.5598 17.0138 18.4005C16.9479 18.2412 16.914 18.0705 16.9141 17.8981C16.9141 17.7257 16.9481 17.555 17.0142 17.3957C17.0802 17.2365 17.1769 17.0918 17.2989 16.9699C19.0012 15.2676 21.7732 14.3016 24.5045 14.1953C27.2542 14.089 30.2559 14.8411 32.3585 16.9437C32.6046 17.19 32.7428 17.5239 32.7427 17.8721C32.7426 18.2203 32.6041 18.5541 32.3579 18.8002C32.1116 19.0463 31.7776 19.1845 31.4295 19.1844C31.0813 19.1843 30.7474 19.0458 30.5013 18.7996C29.0707 17.3676 26.8736 16.7297 24.6069 16.8177" fill="#FF974B"/>
<path fill-rule="evenodd" clip-rule="evenodd" d="M37.9785 35.9415C40.5808 32.866 42.006 28.9662 42 24.9375C42 15.5138 34.3613 7.875 24.9375 7.875C15.5138 7.875 7.875 15.5138 7.875 24.9375C7.875 34.3613 15.5138 42 24.9375 42C29.1309 42 32.97 40.488 35.9415 37.9785L35.4375 40.8765L45.2996 50.7386L50.7386 45.2996L40.8765 35.4375L37.9785 35.9415ZM24.9375 38.0625C32.1864 38.0625 38.0625 32.1864 38.0625 24.9375C38.0625 17.6886 32.1864 11.8125 24.9375 11.8125C17.6886 11.8125 11.8125 17.6886 11.8125 24.9375C11.8125 32.1864 17.6886 38.0625 24.9375 38.0625Z" fill="#FF974B"/>
<path d="M47.1553 52.5952L52.5943 47.1562L54.374 48.936C55.3755 49.9374 55.3755 51.561 54.374 52.5611L52.5601 54.375C51.5587 55.3764 49.9351 55.3764 48.935 54.375L47.1553 52.5952Z" fill="#FF974B"/>
</svg>
