<svg width="92" height="17" viewBox="0 0 92 17" fill="none" xmlns="http://www.w3.org/2000/svg">
<g clip-path="url(#clip0_1_1580)">
<path d="M27.5148 7.29944V12.3494H25.4287V5.07541C25.4287 4.29773 25.8551 3.8125 26.5187 3.8125C26.8369 3.8125 27.0645 3.91671 27.3604 4.18423L32.5748 8.87493V3.82494H34.6593V11.2032C34.6593 11.9808 34.2218 12.4661 33.5694 12.4661C33.4103 12.4664 33.253 12.4333 33.1081 12.3692C32.9631 12.3051 32.834 12.2114 32.7292 12.0944L27.5148 7.29944Z" fill="black"/>
<path d="M40.4636 12.3461C37.9623 12.3461 36.126 10.4937 36.126 8.04884C36.126 5.5697 37.9623 3.92578 40.4636 3.92578H42.6308C45.2038 3.92578 46.9814 5.60546 46.9814 8.04884C46.9814 10.4922 45.1561 12.3461 42.6308 12.3461H40.4636ZM42.6308 10.2045C43.9116 10.2045 44.8011 9.34593 44.8011 8.15302C44.8011 6.96011 43.8991 6.0565 42.6308 6.0565H40.4636C40.1797 6.04855 39.8972 6.09736 39.6333 6.19989C39.3694 6.30245 39.1296 6.45661 38.9288 6.65287C38.728 6.84918 38.5703 7.08348 38.4654 7.34141C38.3605 7.59938 38.3106 7.87554 38.3187 8.15302C38.3187 9.35836 39.2066 10.2045 40.4636 10.2045H42.6308Z" fill="black"/>
<path d="M48.4787 12.3445V10.2029H55.031C55.5404 10.2029 55.849 9.96959 55.849 9.55278C55.849 9.13597 55.5404 8.87001 55.031 8.87001H51.1914C49.4267 8.87001 48.3369 7.87307 48.3369 6.41424C48.3369 4.98959 49.3552 3.92578 51.2152 3.92578H57.4849V6.05652H51.2152C51.1337 6.04989 51.0513 6.06096 50.9748 6.08901C50.8978 6.11703 50.828 6.16129 50.7707 6.21864C50.7134 6.27599 50.6699 6.34503 50.6431 6.42079C50.6164 6.49654 50.6068 6.57714 50.6155 6.65687C50.6072 6.73685 50.6172 6.81762 50.6444 6.8935C50.6716 6.96938 50.7155 7.0385 50.7732 7.09602C50.8305 7.15354 50.9003 7.19805 50.9773 7.22643C51.0542 7.25482 51.1366 7.26638 51.2185 7.26029H55.0373C56.9216 7.26029 57.9302 8.03796 57.9302 9.74876C57.9302 11.2309 56.9755 12.343 55.0373 12.343L48.4787 12.3445Z" fill="black"/>
<path d="M60.9226 5.43222C61.0388 5.02233 61.2659 4.65057 61.5795 4.35597C61.8886 4.07133 62.3118 3.92825 62.8529 3.92825H65.4242C65.9026 3.90419 66.3731 4.05685 66.7415 4.35597C67.0714 4.64336 67.3102 5.0167 67.4306 5.43222L69.5516 12.3485H67.1856L66.6081 10.3267L66.0289 8.3048L65.3653 5.94857H62.9783L61.158 12.347H58.792L60.9226 5.43222Z" fill="black"/>
<path d="M83.3757 5.43218C83.4915 5.0225 83.7182 4.65074 84.0314 4.35593C84.34 4.07133 84.7632 3.92825 85.3043 3.92825H87.8757C88.3545 3.90419 88.8245 4.05686 89.1933 4.35593C89.5229 4.64336 89.762 5.0167 89.8825 5.43218L91.9984 12.3485H89.6387L89.0612 10.3267L88.482 8.3048L87.8184 5.95011H85.4319L83.6111 12.3485H81.2451L83.3757 5.43218Z" fill="black"/>
<path d="M72.9521 7.29943V12.3494H70.8662V5.0754C70.8662 4.29777 71.294 3.8125 71.9576 3.8125C72.2759 3.8125 72.5021 3.91671 72.7978 4.18422L78.0124 8.87492V3.82494H80.0982V11.2032C80.0982 11.9809 79.6591 12.4661 79.0085 12.4661C78.8491 12.466 78.6919 12.4328 78.5468 12.3687C78.4017 12.3046 78.2721 12.2111 78.1667 12.0944L72.9521 7.29943Z" fill="black"/>
<path d="M5.30193 1.51136C5.01967 0.960116 4.55524 0.518202 3.98386 0.257243C3.41249 -0.00371508 2.76771 -0.0684188 2.15401 0.0736192C1.54031 0.215658 0.99368 0.556112 0.602713 1.0398C0.21175 1.52348 -0.000629075 2.12205 1.39969e-06 2.73848V16.2694H1.84899V2.73848C1.85229 2.53087 1.92633 2.33027 2.05939 2.16842C2.19246 2.00657 2.37695 1.89272 2.58366 1.84488C2.79037 1.79705 3.00751 1.81796 3.20069 1.90432C3.39387 1.99067 3.55207 2.13753 3.65025 2.32166L9.87988 14.4622H7.81127L4.56361 8.13528H2.49503L6.67199 16.2694H12.8777L5.30193 1.51136Z" fill="black"/>
<path d="M17.0099 0V13.531C17.006 13.738 16.9316 13.9379 16.7987 14.0991C16.6657 14.2604 16.4816 14.3739 16.2754 14.4216C16.0693 14.4694 15.8527 14.4487 15.6599 14.3629C15.467 14.2771 15.3088 14.1311 15.2102 13.9478L8.98063 1.80723H11.0492L14.2969 8.13411H16.3654L12.1901 0H5.98438L13.5569 14.7581C13.8398 15.3088 14.3044 15.7501 14.8757 16.0107C15.447 16.2713 16.0916 16.3358 16.7051 16.1939C17.3186 16.0519 17.8651 15.7118 18.2562 15.2285C18.6474 14.7453 18.8603 14.1471 18.8605 13.531V0H17.0099Z" fill="black"/>
</g>
<defs>
<clipPath id="clip0_1_1580">
<rect width="91.998" height="16.6262" fill="white"/>
</clipPath>
</defs>
</svg>
