<svg width="130" height="15" viewBox="0 0 130 15" fill="none" xmlns="http://www.w3.org/2000/svg">
<path d="M13.04 14.3601C12.4933 14.3467 11.9667 14.1601 11.46 13.8001C10.9667 13.4401 10.5067 12.9867 10.08 12.4401C9.65332 11.8934 9.27999 11.3334 8.95999 10.7601C8.65332 10.1867 8.41332 9.68674 8.23999 9.26008C8.11999 8.95341 7.97999 8.64008 7.81999 8.32008C7.67332 8.00008 7.52666 7.72674 7.37999 7.50008C7.24666 7.26008 7.13999 7.12008 7.05999 7.08008C6.93999 7.00008 6.87999 6.90674 6.87999 6.80008C6.87999 6.70674 6.90666 6.62674 6.95999 6.56008C7.01332 6.49341 7.06666 6.46008 7.11999 6.46008C7.21332 6.46008 7.27332 6.50674 7.29999 6.60008C7.32666 6.69341 7.38666 6.79341 7.47999 6.90008C7.57332 6.99341 7.76666 7.06008 8.05999 7.10008C8.48666 7.14008 8.87332 7.01341 9.21999 6.72008C9.57999 6.42674 9.89332 6.04008 10.16 5.56008C10.44 5.08008 10.6533 4.59341 10.8 4.10008C10.9467 3.59341 11.02 3.16008 11.02 2.80008C11.02 2.20008 10.88 1.68674 10.6 1.26008C10.32 0.833411 9.87332 0.620078 9.25999 0.620078C8.64666 0.620078 8.19999 0.840078 7.91999 1.28008C7.63999 1.72008 7.39332 2.27341 7.17999 2.94008C7.12666 3.10008 7.05332 3.39341 6.95999 3.82008C6.86666 4.24674 6.75999 4.84674 6.63999 5.62008C6.53332 6.38008 6.40666 7.36674 6.25999 8.58008C6.24666 8.70008 6.21999 8.96008 6.17999 9.36008C6.15332 9.74674 6.13999 10.1534 6.13999 10.5801C6.13999 10.9667 6.15999 11.3001 6.19999 11.5801C6.25332 11.8867 6.37999 12.1467 6.57999 12.3601C6.77999 12.5601 7.02666 12.6801 7.31999 12.7201C7.62666 12.7601 8.00666 12.7801 8.45999 12.7801C8.60666 12.7801 8.75332 12.7801 8.89999 12.7801C9.04666 12.7667 9.17999 12.7534 9.29999 12.7401C9.33999 12.7401 9.35999 12.7601 9.35999 12.8001C9.35999 12.8534 9.32666 12.9267 9.25999 13.0201C9.19332 13.1001 9.11999 13.1334 9.03999 13.1201C7.94666 13.0934 7.05999 13.0734 6.37999 13.0601C5.69999 13.0467 5.15332 13.0401 4.73999 13.0401C4.32666 13.0267 3.96666 13.0201 3.65999 13.0201C3.45999 13.0201 3.15999 13.0267 2.75999 13.0401C2.35999 13.0401 1.91999 13.0467 1.43999 13.0601C0.973324 13.0734 0.51999 13.0801 0.0799902 13.0801H0.0599902C0.0199902 13.0801 -9.77516e-06 13.0601 -9.77516e-06 13.0201C-9.77516e-06 12.9667 0.0333236 12.9067 0.0999902 12.8401C0.166657 12.7601 0.226657 12.7267 0.27999 12.7401C0.59999 12.7401 0.886657 12.7467 1.13999 12.7601C1.40666 12.7601 1.63999 12.7601 1.83999 12.7601C2.33332 12.7601 2.68666 12.7134 2.89999 12.6201C3.12666 12.5134 3.29332 12.2934 3.39999 11.9601C3.51999 11.6267 3.65332 11.1201 3.79999 10.4401C4.11999 8.96008 4.37332 7.53341 4.55999 6.16008C4.74666 4.78674 4.90666 3.35341 5.03999 1.86008C5.06666 1.59341 4.99999 1.36008 4.83999 1.16008C4.69332 0.960078 4.52666 0.846745 4.33999 0.820077C4.20666 0.793411 3.97332 0.773411 3.63999 0.760077C3.31999 0.746744 3.00666 0.740077 2.69999 0.740077C2.39332 0.726744 2.18666 0.726744 2.07999 0.740077C1.99999 0.740077 1.95999 0.713411 1.95999 0.660077C1.95999 0.606744 1.99332 0.553411 2.05999 0.500078C2.12666 0.433411 2.19332 0.400078 2.25999 0.400078C2.83332 0.400078 3.50666 0.413411 4.27999 0.440078C5.05332 0.466744 5.76666 0.480077 6.41999 0.480077H6.77999C7.17999 0.480077 7.69332 0.420077 8.31999 0.300077C8.95999 0.166744 9.58666 0.100077 10.2 0.100077C10.76 0.100077 11.2933 0.200077 11.8 0.400078C12.32 0.586745 12.74 0.880078 13.06 1.28008C13.3933 1.66674 13.56 2.16008 13.56 2.76008C13.56 2.84008 13.5533 2.92008 13.54 3.00008C13.54 3.08008 13.5333 3.16008 13.52 3.24008C13.44 3.78674 13.2067 4.32008 12.82 4.84008C12.4333 5.34674 11.96 5.79341 11.4 6.18008C10.8533 6.56674 10.2867 6.86008 9.69999 7.06008C9.32666 7.18008 8.99999 7.26674 8.71999 7.32008C8.45332 7.37341 8.22666 7.40008 8.03999 7.40008C7.98666 7.40008 7.93332 7.40008 7.87999 7.40008C7.82666 7.40008 7.77999 7.39341 7.73999 7.38008C7.95332 7.64674 8.27332 7.99341 8.69999 8.42008C9.13999 8.83341 9.62666 9.28674 10.16 9.78008C10.7067 10.2601 11.2467 10.7267 11.78 11.1801C12.3133 11.6334 12.7933 12.0267 13.22 12.3601C13.6467 12.6934 13.9533 12.9134 14.14 13.0201C14.3533 13.1401 14.58 13.2467 14.82 13.3401C15.0733 13.4467 15.2533 13.5201 15.36 13.5601C15.44 13.5734 15.48 13.6267 15.48 13.7201C15.48 13.8134 15.4267 13.8601 15.32 13.8601C15.2667 13.8601 15.2 13.8401 15.12 13.8001C15.0133 13.7467 14.9067 13.7201 14.8 13.7201C14.6933 13.7201 14.6067 13.7467 14.54 13.8001C14.4867 13.8667 14.4267 13.9201 14.36 13.9601C14 14.2267 13.56 14.3601 13.04 14.3601ZM17.4747 2.42008C17.5413 2.35341 17.5947 2.27341 17.6347 2.18008C17.688 2.08674 17.7213 2.02674 17.7347 2.00008C17.8813 1.65341 18.048 1.37341 18.2347 1.16008C18.4347 0.946744 18.6747 0.833411 18.9547 0.820077C19.1413 0.806744 19.3147 0.800078 19.4747 0.800078C19.648 0.786745 19.828 0.780078 20.0147 0.780078C20.108 0.780078 20.1947 0.786745 20.2747 0.800078C20.368 0.800078 20.4547 0.800078 20.5347 0.800078C20.588 0.800078 20.6147 0.820078 20.6147 0.860078C20.6147 0.966744 20.5347 1.05341 20.3747 1.12008C20.2813 1.13341 20.1813 1.23341 20.0747 1.42008C19.968 1.59341 19.8547 1.77341 19.7347 1.96008C19.628 2.13341 19.528 2.24008 19.4347 2.28008C19.3547 2.32008 19.2747 2.34674 19.1947 2.36008C19.1147 2.37341 19.0347 2.38008 18.9547 2.38008C18.848 2.38008 18.728 2.37341 18.5947 2.36008C18.4747 2.34674 18.3613 2.34008 18.2547 2.34008C18.2147 2.34008 18.1347 2.34008 18.0147 2.34008C17.908 2.34008 17.828 2.35341 17.7747 2.38008C17.7213 2.40674 17.6413 2.44008 17.5347 2.48008C17.4413 2.52008 17.4213 2.50008 17.4747 2.42008ZM14.7547 13.1001C14.648 13.1001 14.5347 13.0934 14.4147 13.0801C14.2947 13.0801 14.1613 13.0801 14.0147 13.0801H13.9947C13.9547 13.0801 13.9347 13.0601 13.9347 13.0201C13.9347 12.9667 13.9747 12.9067 14.0547 12.8401C14.1213 12.7601 14.1813 12.7201 14.2347 12.7201C14.408 12.7201 14.5613 12.7267 14.6947 12.7401C14.828 12.7401 14.9547 12.7401 15.0747 12.7401C15.408 12.7401 15.668 12.6934 15.8547 12.6001C16.0413 12.4934 16.2013 12.2667 16.3347 11.9201C16.468 11.5601 16.608 11.0067 16.7547 10.2601C16.8347 9.86008 16.908 9.42674 16.9747 8.96008C17.0413 8.48008 17.1013 8.02008 17.1547 7.58008C17.208 7.12674 17.248 6.72674 17.2747 6.38008C17.3013 6.03341 17.3213 5.78008 17.3347 5.62008C17.3747 5.19341 17.3147 4.88674 17.1547 4.70008C16.9947 4.51341 16.768 4.39341 16.4747 4.34008C16.1947 4.28674 15.868 4.26008 15.4947 4.26008H14.8747C14.7013 4.26008 14.6147 4.22674 14.6147 4.16008C14.6147 4.09341 14.648 4.04008 14.7147 4.00008C14.7947 3.94674 14.868 3.92008 14.9347 3.92008L16.1947 3.94008C16.648 3.95341 17.088 3.96674 17.5147 3.98008C17.9413 3.98008 18.3347 3.98008 18.6947 3.98008C18.8413 3.98008 18.988 3.98008 19.1347 3.98008C19.2813 3.96674 19.408 3.96008 19.5147 3.96008H19.5347C19.6547 3.96008 19.7147 4.02008 19.7147 4.14008C19.7147 4.18008 19.708 4.22674 19.6947 4.28008C19.6947 4.32008 19.688 4.36674 19.6747 4.42008C19.5147 5.27341 19.348 6.20674 19.1747 7.22008C19.0147 8.23341 18.8813 9.17341 18.7747 10.0401C18.7613 10.2001 18.7347 10.4134 18.6947 10.6801C18.668 10.9334 18.6413 11.1734 18.6147 11.4001C18.6013 11.6134 18.5947 11.7534 18.5947 11.8201C18.5947 12.0867 18.668 12.2867 18.8147 12.4201C18.9613 12.5401 19.1013 12.6134 19.2347 12.6401C19.3813 12.6667 19.568 12.6867 19.7947 12.7001C20.0213 12.7134 20.2347 12.7267 20.4347 12.7401C20.648 12.7401 20.808 12.7401 20.9147 12.7401H20.9347C21.0013 12.7401 21.0347 12.7667 21.0347 12.8201C21.0347 12.8734 21.0013 12.9334 20.9347 13.0001C20.868 13.0534 20.7947 13.0801 20.7147 13.0801C20.1547 13.0801 19.608 13.0667 19.0747 13.0401C18.5413 13.0134 18.0013 13.0001 17.4547 13.0001C17.3213 13.0001 17.1813 13.0001 17.0347 13.0001C16.9013 13.0001 16.7613 13.0067 16.6147 13.0201C16.348 13.0334 16.0813 13.0534 15.8147 13.0801C15.548 13.0934 15.1947 13.1001 14.7547 13.1001ZM24.6214 13.2201C23.9147 13.2201 23.4014 13.0334 23.0814 12.6601C22.7614 12.2734 22.6014 11.6934 22.6014 10.9201C22.6014 10.7867 22.6014 10.6534 22.6014 10.5201C22.6147 10.3867 22.6281 10.2467 22.6414 10.1001C22.7481 9.10008 22.8681 8.15341 23.0014 7.26008C23.1347 6.35341 23.2681 5.45341 23.4014 4.56008H22.1214C22.0681 4.56008 22.0614 4.51341 22.1014 4.42008C22.1547 4.31341 22.2214 4.21341 22.3014 4.12008C22.3947 4.01341 22.4681 3.96008 22.5214 3.96008H23.4814C23.4947 3.77341 23.5081 3.62008 23.5214 3.50008C23.5481 3.38008 23.5614 3.20008 23.5614 2.96008C23.5614 2.57341 23.4881 2.31341 23.3414 2.18008C23.2081 2.04674 22.9681 1.98008 22.6214 1.98008C22.5281 1.98008 22.4281 1.98674 22.3214 2.00008C22.2147 2.01341 22.0947 2.02008 21.9614 2.02008H21.9414C21.8347 2.02008 21.7814 1.96674 21.7814 1.86008C21.7814 1.75341 21.8414 1.70008 21.9614 1.70008H22.7414C23.1814 1.70008 23.6747 1.69341 24.2214 1.68008C24.7814 1.66674 25.2881 1.66008 25.7414 1.66008C25.8481 1.66008 25.9014 1.71341 25.9014 1.82008C25.9014 1.87341 25.8947 1.96008 25.8814 2.08008C25.8681 2.18674 25.8481 2.32674 25.8214 2.50008C25.8081 2.58008 25.7747 2.73341 25.7214 2.96008C25.6681 3.17341 25.6014 3.49341 25.5214 3.92008H28.5614C28.6547 3.92008 28.6747 3.97341 28.6214 4.08008C28.5814 4.18674 28.5081 4.29341 28.4014 4.40008C28.3081 4.50674 28.2281 4.56008 28.1614 4.56008H25.4414C25.4414 4.61341 25.4147 4.82674 25.3614 5.20008C25.3081 5.57341 25.2414 6.03341 25.1614 6.58008C25.0814 7.12674 24.9947 7.70008 24.9014 8.30008C24.8214 8.90008 24.7481 9.44674 24.6814 9.94008C24.6547 10.1134 24.6214 10.3267 24.5814 10.5801C24.5547 10.8334 24.5414 11.0801 24.5414 11.3201C24.5414 11.6401 24.5947 11.9267 24.7014 12.1801C24.8214 12.4201 25.0547 12.5401 25.4014 12.5401C25.7881 12.5401 26.1214 12.3401 26.4014 11.9401C26.6947 11.5267 26.9281 11.0534 27.1014 10.5201C27.2481 10.0934 27.3681 9.65341 27.4614 9.20008C27.5547 8.74674 27.6147 8.39341 27.6414 8.14008C27.6414 8.02008 27.6881 7.96008 27.7814 7.96008C27.9147 7.96008 27.9614 8.04674 27.9214 8.22008L27.6214 9.68008C27.5014 10.2667 27.3414 10.8201 27.1414 11.3401C26.9547 11.8601 26.6881 12.2867 26.3414 12.6201C26.0081 12.9534 25.5614 13.1467 25.0014 13.2001C24.9347 13.2134 24.8681 13.2201 24.8014 13.2201C24.7481 13.2201 24.6881 13.2201 24.6214 13.2201ZM31.42 2.42008C31.4867 2.35341 31.54 2.27341 31.58 2.18008C31.6333 2.08674 31.6667 2.02674 31.68 2.00008C31.8267 1.65341 31.9933 1.37341 32.18 1.16008C32.38 0.946744 32.62 0.833411 32.9 0.820077C33.0867 0.806744 33.26 0.800078 33.42 0.800078C33.5933 0.786745 33.7733 0.780078 33.96 0.780078C34.0533 0.780078 34.14 0.786745 34.22 0.800078C34.3133 0.800078 34.4 0.800078 34.48 0.800078C34.5333 0.800078 34.56 0.820078 34.56 0.860078C34.56 0.966744 34.48 1.05341 34.32 1.12008C34.2267 1.13341 34.1267 1.23341 34.02 1.42008C33.9133 1.59341 33.8 1.77341 33.68 1.96008C33.5733 2.13341 33.4733 2.24008 33.38 2.28008C33.3 2.32008 33.22 2.34674 33.14 2.36008C33.06 2.37341 32.98 2.38008 32.9 2.38008C32.7933 2.38008 32.6733 2.37341 32.54 2.36008C32.42 2.34674 32.3067 2.34008 32.2 2.34008C32.16 2.34008 32.08 2.34008 31.96 2.34008C31.8533 2.34008 31.7733 2.35341 31.72 2.38008C31.6667 2.40674 31.5867 2.44008 31.48 2.48008C31.3867 2.52008 31.3667 2.50008 31.42 2.42008ZM28.7 13.1001C28.5933 13.1001 28.48 13.0934 28.36 13.0801C28.24 13.0801 28.1067 13.0801 27.96 13.0801H27.94C27.9 13.0801 27.88 13.0601 27.88 13.0201C27.88 12.9667 27.92 12.9067 28 12.8401C28.0667 12.7601 28.1267 12.7201 28.18 12.7201C28.3533 12.7201 28.5067 12.7267 28.64 12.7401C28.7733 12.7401 28.9 12.7401 29.02 12.7401C29.3533 12.7401 29.6133 12.6934 29.8 12.6001C29.9867 12.4934 30.1467 12.2667 30.28 11.9201C30.4133 11.5601 30.5533 11.0067 30.7 10.2601C30.78 9.86008 30.8533 9.42674 30.92 8.96008C30.9867 8.48008 31.0467 8.02008 31.1 7.58008C31.1533 7.12674 31.1933 6.72674 31.22 6.38008C31.2467 6.03341 31.2667 5.78008 31.28 5.62008C31.32 5.19341 31.26 4.88674 31.1 4.70008C30.94 4.51341 30.7133 4.39341 30.42 4.34008C30.14 4.28674 29.8133 4.26008 29.44 4.26008H28.82C28.6467 4.26008 28.56 4.22674 28.56 4.16008C28.56 4.09341 28.5933 4.04008 28.66 4.00008C28.74 3.94674 28.8133 3.92008 28.88 3.92008L30.14 3.94008C30.5933 3.95341 31.0333 3.96674 31.46 3.98008C31.8867 3.98008 32.28 3.98008 32.64 3.98008C32.7867 3.98008 32.9333 3.98008 33.08 3.98008C33.2267 3.96674 33.3533 3.96008 33.46 3.96008H33.48C33.6 3.96008 33.66 4.02008 33.66 4.14008C33.66 4.18008 33.6533 4.22674 33.64 4.28008C33.64 4.32008 33.6333 4.36674 33.62 4.42008C33.46 5.27341 33.2933 6.20674 33.12 7.22008C32.96 8.23341 32.8267 9.17341 32.72 10.0401C32.7067 10.2001 32.68 10.4134 32.64 10.6801C32.6133 10.9334 32.5867 11.1734 32.56 11.4001C32.5467 11.6134 32.54 11.7534 32.54 11.8201C32.54 12.0867 32.6133 12.2867 32.76 12.4201C32.9067 12.5401 33.0467 12.6134 33.18 12.6401C33.3267 12.6667 33.5133 12.6867 33.74 12.7001C33.9667 12.7134 34.18 12.7267 34.38 12.7401C34.5933 12.7401 34.7533 12.7401 34.86 12.7401H34.88C34.9467 12.7401 34.98 12.7667 34.98 12.8201C34.98 12.8734 34.9467 12.9334 34.88 13.0001C34.8133 13.0534 34.74 13.0801 34.66 13.0801C34.1 13.0801 33.5533 13.0667 33.02 13.0401C32.4867 13.0134 31.9467 13.0001 31.4 13.0001C31.2667 13.0001 31.1267 13.0001 30.98 13.0001C30.8467 13.0001 30.7067 13.0067 30.56 13.0201C30.2933 13.0334 30.0267 13.0534 29.76 13.0801C29.4933 13.0934 29.14 13.1001 28.7 13.1001ZM41.7467 13.1001C41.64 13.1001 41.5867 13.0601 41.5867 12.9801C41.5867 12.9134 41.6067 12.8134 41.6467 12.6801C41.82 12.0801 41.9934 11.3001 42.1667 10.3401C42.34 9.38008 42.4934 8.32008 42.6267 7.16008C42.64 7.08008 42.6467 7.00008 42.6467 6.92008C42.6467 6.84008 42.6467 6.76674 42.6467 6.70008C42.6467 6.24674 42.5734 5.92674 42.4267 5.74008C42.28 5.55341 42.1267 5.46008 41.9667 5.46008C41.58 5.46008 41.2467 5.65341 40.9667 6.04008C40.7 6.41341 40.4734 6.89341 40.2867 7.48008C40.1134 8.06674 39.9667 8.68008 39.8467 9.32008C39.74 9.96008 39.6534 10.5467 39.5867 11.0801C39.5334 11.6134 39.4867 12.0134 39.4467 12.2801C39.4334 12.3201 39.4267 12.3601 39.4267 12.4001C39.4267 12.4267 39.4267 12.4534 39.4267 12.4801C39.4267 12.6667 39.5134 12.7601 39.6867 12.7601C39.78 12.7601 39.8867 12.7534 40.0067 12.7401C40.14 12.7134 40.28 12.7001 40.4267 12.7001H40.4667C40.5334 12.7001 40.5667 12.7334 40.5667 12.8001C40.5667 12.8534 40.54 12.9067 40.4867 12.9601C40.4467 13.0134 40.3934 13.0401 40.3267 13.0401C40.1134 13.0401 39.98 13.0334 39.9267 13.0201C39.8734 12.9934 39.7334 12.9801 39.5067 12.9801C39.08 12.9801 38.6667 12.9801 38.2667 12.9801C37.8667 12.9801 37.46 12.9934 37.0467 13.0201C36.8334 13.0201 36.5534 13.0267 36.2067 13.0401C35.8734 13.0534 35.5334 13.0667 35.1867 13.0801C34.8534 13.0801 34.5734 13.0801 34.3467 13.0801C34.32 13.0801 34.3067 13.0601 34.3067 13.0201C34.3067 12.9667 34.3334 12.9001 34.3867 12.8201C34.44 12.7401 34.4934 12.7001 34.5467 12.7001C34.6934 12.7001 34.8334 12.7067 34.9667 12.7201C35.1134 12.7201 35.2334 12.7201 35.3267 12.7201C35.6334 12.7201 35.9067 12.6667 36.1467 12.5601C36.3867 12.4534 36.5667 12.2334 36.6867 11.9001C36.8734 11.3534 37.0267 10.7201 37.1467 10.0001C37.2667 9.28008 37.36 8.54008 37.4267 7.78008C37.5067 7.02008 37.5667 6.31341 37.6067 5.66008C37.6334 5.16674 37.5334 4.82674 37.3067 4.64008C37.0934 4.44008 36.7934 4.32674 36.4067 4.30008C36.02 4.27341 35.6 4.26008 35.1467 4.26008C34.9734 4.26008 34.8867 4.22674 34.8867 4.16008C34.8867 4.09341 34.92 4.04008 34.9867 4.00008C35.0667 3.94674 35.14 3.92008 35.2067 3.92008L36.4667 3.94008C36.92 3.95341 37.3667 3.96674 37.8067 3.98008C38.26 3.98008 38.6734 3.98008 39.0467 3.98008C39.22 3.98008 39.38 3.98008 39.5267 3.98008C39.6734 3.98008 39.8 3.97341 39.9067 3.96008H39.9267C40.06 3.96008 40.1267 4.02008 40.1267 4.14008C40.1267 4.18008 40.12 4.22674 40.1067 4.28008C40.0934 4.32008 40.08 4.36674 40.0667 4.42008C39.9867 4.70008 39.8867 5.15341 39.7667 5.78008C39.66 6.39341 39.54 7.09341 39.4067 7.88008C39.2867 8.65341 39.1734 9.43341 39.0667 10.2201C38.96 10.9934 38.88 11.6867 38.8267 12.3001V12.3601C38.8267 12.4934 38.8467 12.5801 38.8867 12.6201C38.94 12.6601 38.98 12.6734 39.0067 12.6601C39.0867 12.6601 39.14 12.6001 39.1667 12.4801C39.1934 12.3601 39.2134 12.2467 39.2267 12.1401C39.2934 11.6334 39.3734 11.0267 39.4667 10.3201C39.5734 9.60008 39.7067 8.86674 39.8667 8.12008C40.04 7.36008 40.2734 6.66008 40.5667 6.02008C40.86 5.36674 41.24 4.84008 41.7067 4.44008C42.1734 4.02674 42.7534 3.82008 43.4467 3.82008C44.4334 3.82008 44.9267 4.30008 44.9267 5.26008C44.9267 5.34008 44.92 5.42008 44.9067 5.50008C44.9067 5.58008 44.9 5.66674 44.8867 5.76008C44.7534 6.72008 44.6 7.72674 44.4267 8.78008C44.2534 9.82008 44.1667 10.8067 44.1667 11.7401C44.1667 11.7934 44.1734 11.9001 44.1867 12.0601C44.2 12.2067 44.2267 12.3467 44.2667 12.4801C44.32 12.6001 44.38 12.6601 44.4467 12.6601C44.5267 12.6601 44.5734 12.6001 44.5867 12.4801C44.6134 12.3601 44.6334 12.2467 44.6467 12.1401C44.7134 11.7667 44.7867 11.3067 44.8667 10.7601C44.9467 10.2134 45.0534 9.63341 45.1867 9.02008C45.32 8.39341 45.48 7.77341 45.6667 7.16008C45.8667 6.54674 46.1134 5.98674 46.4067 5.48008C46.7134 4.97341 47.0734 4.57341 47.4867 4.28008C47.9134 3.97341 48.4134 3.82008 48.9867 3.82008C49.9867 3.82008 50.4867 4.30008 50.4867 5.26008C50.4867 5.34008 50.48 5.42008 50.4667 5.50008C50.4667 5.58008 50.46 5.66674 50.4467 5.76008C50.3134 6.74674 50.1534 7.74674 49.9667 8.76008C49.7934 9.77341 49.6867 10.7801 49.6467 11.7801C49.6334 12.0601 49.7 12.2667 49.8467 12.4001C50.0067 12.5334 50.1534 12.6134 50.2867 12.6401C50.4334 12.6667 50.62 12.6934 50.8467 12.7201C51.0734 12.7334 51.2867 12.7401 51.4867 12.7401C51.7 12.7401 51.86 12.7401 51.9667 12.7401H51.9867C52.0534 12.7401 52.0867 12.7667 52.0867 12.8201C52.0867 12.8734 52.0534 12.9334 51.9867 13.0001C51.92 13.0534 51.8467 13.0801 51.7667 13.0801H47.3267C47.2067 13.0801 47.1467 13.0334 47.1467 12.9401C47.1467 12.8201 47.2 12.5667 47.3067 12.1801C47.4267 11.7934 47.5734 11.1534 47.7467 10.2601C47.84 9.76674 47.92 9.28674 47.9867 8.82008C48.0534 8.35341 48.1 7.95341 48.1267 7.62008C48.1667 7.27341 48.1867 7.05341 48.1867 6.96008C48.1867 6.41341 48.1 6.02674 47.9267 5.80008C47.7534 5.57341 47.5734 5.46008 47.3867 5.46008C47.0534 5.46008 46.7534 5.65341 46.4867 6.04008C46.2334 6.41341 46.0134 6.89341 45.8267 7.48008C45.64 8.06674 45.48 8.68008 45.3467 9.32008C45.2267 9.96008 45.1267 10.5467 45.0467 11.0801C44.98 11.6134 44.9267 12.0134 44.8867 12.2801C44.8734 12.3201 44.8667 12.3601 44.8667 12.4001C44.8667 12.4401 44.8667 12.4734 44.8667 12.5001C44.8667 12.6067 44.8867 12.6801 44.9267 12.7201C44.9667 12.7467 45.0267 12.7601 45.1067 12.7601C45.2 12.7601 45.3067 12.7534 45.4267 12.7401C45.56 12.7134 45.7067 12.7001 45.8667 12.7001H45.9067C45.96 12.7001 45.9867 12.7267 45.9867 12.7801C45.9867 12.8334 45.9667 12.8934 45.9267 12.9601C45.8867 13.0134 45.8334 13.0401 45.7667 13.0401C45.5534 13.0401 45.4134 13.0334 45.3467 13.0201C45.2934 12.9934 45.1534 12.9801 44.9267 12.9801C44.5134 12.9801 44.0867 12.9934 43.6467 13.0201C43.2067 13.0334 42.72 13.0534 42.1867 13.0801C42.0934 13.0801 42.0067 13.0801 41.9267 13.0801C41.86 13.0934 41.8 13.1001 41.7467 13.1001ZM53.7175 13.2001C53.4642 13.2001 53.2508 13.1201 53.0775 12.9601C52.9175 12.8001 52.7842 12.6134 52.6775 12.4001C52.5842 12.1734 52.5175 11.9534 52.4775 11.7401C52.4375 11.5134 52.4175 11.3401 52.4175 11.2201C52.4175 10.6334 52.5442 10.1401 52.7975 9.74008C53.0642 9.34008 53.4042 9.02008 53.8175 8.78008C54.2442 8.52674 54.7042 8.34008 55.1975 8.22008C55.7042 8.08674 56.2042 8.00008 56.6975 7.96008C57.2042 7.90674 57.6508 7.88674 58.0375 7.90008C58.0375 7.90008 58.0508 7.77341 58.0775 7.52008C58.1175 7.26674 58.1442 7.04674 58.1575 6.86008C58.1708 6.62008 58.1642 6.35341 58.1375 6.06008C58.1108 5.76674 58.0308 5.51341 57.8975 5.30008C57.8708 5.26008 57.8242 5.19341 57.7575 5.10008C57.6908 4.99341 57.7042 4.92008 57.7975 4.88008C57.8108 4.86674 57.8375 4.86008 57.8775 4.86008C57.9575 4.86008 58.0442 4.93341 58.1375 5.08008C58.2442 5.22674 58.3108 5.41341 58.3375 5.64008C58.3775 5.86674 58.3975 6.10674 58.3975 6.36008C58.3975 6.45341 58.3975 6.54008 58.3975 6.62008C58.3975 6.70008 58.3908 6.78674 58.3775 6.88008C58.3642 7.09341 58.3375 7.32008 58.2975 7.56008C58.2708 7.78674 58.2575 7.90008 58.2575 7.90008C58.2842 7.91341 58.3175 7.92008 58.3575 7.92008C58.5175 7.92008 58.6042 7.85341 58.6175 7.72008C58.6442 7.53341 58.6708 7.28008 58.6975 6.96008C58.7375 6.62674 58.7575 6.28674 58.7575 5.94008C58.7575 5.44674 58.6908 5.00674 58.5575 4.62008C58.4375 4.22008 58.1775 4.02008 57.7775 4.02008C57.5242 4.02008 57.2842 4.08008 57.0575 4.20008C56.8308 4.30674 56.6375 4.43341 56.4775 4.58008C56.2375 4.80674 56.0642 5.07341 55.9575 5.38008C55.8642 5.67341 55.7842 5.95341 55.7175 6.22008C55.6642 6.48674 55.5642 6.68674 55.4175 6.82008C55.2442 6.99341 55.0842 7.10674 54.9375 7.16008C54.8042 7.21341 54.6308 7.30674 54.4175 7.44008C54.3508 7.48008 54.2508 7.53341 54.1175 7.60008C53.9975 7.65341 53.8842 7.68008 53.7775 7.68008C53.6842 7.68008 53.6042 7.64008 53.5375 7.56008C53.4708 7.48008 53.4508 7.33341 53.4775 7.12008C53.5175 6.82674 53.5575 6.51341 53.5975 6.18008C53.6375 5.83341 53.6842 5.61341 53.7375 5.52008C53.9108 5.24008 54.1575 4.99341 54.4775 4.78008C54.8108 4.56674 55.1775 4.38674 55.5775 4.24008C55.9775 4.08008 56.3708 3.96008 56.7575 3.88008C57.1442 3.80008 57.4842 3.75341 57.7775 3.74008C58.3508 3.70008 58.8842 3.76008 59.3775 3.92008C59.8842 4.08008 60.2908 4.32674 60.5975 4.66008C60.9042 4.99341 61.0575 5.41341 61.0575 5.92008C61.0575 6.09341 61.0375 6.28008 60.9975 6.48008C60.8642 7.05341 60.7508 7.63341 60.6575 8.22008C60.5642 8.79341 60.4908 9.37341 60.4375 9.96008C60.4242 10.0934 60.3975 10.2934 60.3575 10.5601C60.3308 10.8267 60.3175 11.1001 60.3175 11.3801C60.3175 11.6867 60.3575 11.9667 60.4375 12.2201C60.5175 12.4734 60.6708 12.6201 60.8975 12.6601C61.0442 12.6867 61.2308 12.7067 61.4575 12.7201C61.6842 12.7334 61.8975 12.7401 62.0975 12.7401C62.3108 12.7401 62.4708 12.7401 62.5775 12.7401H62.5975C62.6642 12.7401 62.6975 12.7667 62.6975 12.8201C62.6975 12.8734 62.6642 12.9334 62.5975 13.0001C62.5308 13.0534 62.4575 13.0801 62.3775 13.0801C61.9108 13.0801 61.4442 13.0734 60.9775 13.0601C60.5108 13.0467 60.0442 13.0401 59.5775 13.0401C59.3508 13.0401 59.1175 13.0467 58.8775 13.0601C58.6508 13.0734 58.4175 13.0801 58.1775 13.0801H57.9775C57.8175 13.0801 57.7375 13.0401 57.7375 12.9601C57.7375 12.9201 57.7442 12.8667 57.7575 12.8001C57.7842 12.7201 57.8108 12.6267 57.8375 12.5201C57.9175 12.2267 57.9975 11.8667 58.0775 11.4401C58.1575 11.0134 58.2308 10.5867 58.2975 10.1601C58.3775 9.72008 58.4375 9.34008 58.4775 9.02008C58.5175 8.68674 58.5375 8.47341 58.5375 8.38008V8.34008C58.5375 8.24674 58.5042 8.18674 58.4375 8.16008C58.3708 8.13341 58.3042 8.11341 58.2375 8.10008C58.1708 8.67341 58.0508 9.26008 57.8775 9.86008C57.7175 10.4467 57.5175 10.9934 57.2775 11.5001C57.0508 12.0067 56.8108 12.4201 56.5575 12.7401C56.3042 13.0467 56.0575 13.2001 55.8175 13.2001H53.7175ZM55.8575 11.9401C56.2575 11.9401 56.5908 11.7867 56.8575 11.4801C57.0708 11.2401 57.2508 10.9467 57.3975 10.6001C57.5442 10.2401 57.6575 9.88008 57.7375 9.52008C57.8308 9.16008 57.8975 8.84674 57.9375 8.58008C57.9908 8.31341 58.0242 8.14674 58.0375 8.08008C57.9575 8.06674 57.8775 8.06008 57.7975 8.06008C57.7308 8.06008 57.6642 8.06008 57.5975 8.06008C57.2508 8.06008 56.9242 8.11341 56.6175 8.22008C56.3242 8.31341 56.0642 8.44008 55.8375 8.60008C55.5442 8.81341 55.2908 9.11341 55.0775 9.50008C54.8642 9.87341 54.7575 10.2601 54.7575 10.6601C54.7575 10.9001 54.8042 11.1201 54.8975 11.3201C54.9908 11.5334 55.1242 11.6934 55.2975 11.8001C55.4708 11.8934 55.6575 11.9401 55.8575 11.9401ZM71.0058 13.4201C70.6591 13.4201 70.3258 13.3734 70.0058 13.2801C69.6991 13.1867 69.4524 13.0267 69.2658 12.8001C69.1458 12.6534 68.9791 12.4534 68.7658 12.2001C68.5658 11.9334 68.4658 11.6734 68.4658 11.4201C68.4658 11.2867 68.4991 11.1801 68.5658 11.1001C68.7391 10.8601 68.9058 10.6334 69.0658 10.4201C69.2391 10.1934 69.4058 9.92674 69.5658 9.62008C69.7258 9.31341 69.8724 8.91341 70.0058 8.42008C70.0591 8.26008 70.0991 8.09341 70.1258 7.92008C70.1524 7.74674 70.2324 7.69341 70.3658 7.76008C70.3924 7.78674 70.4058 7.84008 70.4058 7.92008C70.4058 8.05341 70.3924 8.22008 70.3658 8.42008C70.3391 8.60674 70.3258 8.76008 70.3258 8.88008C70.3258 9.64008 70.4724 10.2734 70.7658 10.7801C71.0724 11.2734 71.4658 11.6401 71.9458 11.8801C72.4258 12.1201 72.9324 12.2401 73.4658 12.2401C74.0258 12.2401 74.5658 12.1134 75.0858 11.8601C75.6058 11.6067 76.0324 11.2334 76.3658 10.7401C76.6991 10.2467 76.8658 9.64674 76.8658 8.94008C76.8658 8.48674 76.7391 8.12008 76.4858 7.84008C76.2324 7.56008 75.8991 7.35341 75.4858 7.22008C75.0724 7.07341 74.6324 6.97341 74.1658 6.92008C73.7124 6.86674 73.2724 6.84008 72.8458 6.84008C72.1924 6.84008 71.6124 6.73341 71.1058 6.52008C70.6124 6.30674 70.2258 6.02674 69.9458 5.68008C69.6791 5.33341 69.5458 4.96674 69.5458 4.58008C69.5458 4.04674 69.6924 3.55341 69.9858 3.10008C70.2924 2.63341 70.6924 2.21341 71.1858 1.84008C71.6791 1.45341 72.2324 1.12674 72.8458 0.860078C73.4591 0.580078 74.0858 0.366744 74.7258 0.220078C75.3658 0.0734108 75.9724 7.72476e-05 76.5458 7.72476e-05C77.0924 7.72476e-05 77.5724 0.0734108 77.9858 0.220078C78.4124 0.366744 78.7324 0.593411 78.9458 0.900078C79.1858 1.26008 79.3058 1.54674 79.3058 1.76008C79.3058 1.89341 79.2724 2.02674 79.2058 2.16008C79.1391 2.28008 79.0524 2.41341 78.9458 2.56008C78.7858 2.77341 78.6524 2.96008 78.5458 3.12008C78.4391 3.26674 78.3324 3.44674 78.2258 3.66008C78.1324 3.86008 78.0124 4.14674 77.8658 4.52008C77.7991 4.68008 77.7324 4.76008 77.6658 4.76008C77.6124 4.76008 77.5858 4.70674 77.5858 4.60008C77.5858 4.52008 77.6058 4.43341 77.6458 4.34008C77.6724 4.20674 77.6924 4.08008 77.7058 3.96008C77.7324 3.84008 77.7458 3.72008 77.7458 3.60008C77.7458 3.09341 77.6191 2.64674 77.3658 2.26008C77.1124 1.87341 76.7791 1.57341 76.3658 1.36008C75.9524 1.13341 75.5058 1.02008 75.0258 1.02008C74.6124 1.02008 74.1924 1.12008 73.7658 1.32008C73.3391 1.53341 72.9724 1.84008 72.6658 2.24008C72.3591 2.62674 72.2058 3.12674 72.2058 3.74008C72.2058 4.16674 72.3191 4.50674 72.5458 4.76008C72.7724 5.01341 73.0591 5.20008 73.4058 5.32008C73.7658 5.44008 74.1324 5.52008 74.5058 5.56008C74.8924 5.60008 75.2391 5.62008 75.5458 5.62008C75.6924 5.62008 75.8258 5.62008 75.9458 5.62008C76.0658 5.60674 76.1591 5.60008 76.2258 5.60008C77.3324 5.60008 78.1058 5.76674 78.5458 6.10008C78.9858 6.43341 79.2058 6.85341 79.2058 7.36008C79.2058 8.06674 78.9724 8.78008 78.5058 9.50008C78.0524 10.2067 77.4391 10.8601 76.6658 11.4601C75.8924 12.0467 75.0124 12.5201 74.0258 12.8801C73.0524 13.2401 72.0458 13.4201 71.0058 13.4201ZM79.7361 13.1001C79.6294 13.1001 79.5161 13.0934 79.3961 13.0801C79.2761 13.0801 79.1428 13.0801 78.9961 13.0801H78.9761C78.9361 13.0801 78.9161 13.0601 78.9161 13.0201C78.9161 12.9667 78.9494 12.9067 79.0161 12.8401C79.0828 12.7601 79.1428 12.7201 79.1961 12.7201H79.9161C80.0228 12.7201 80.1228 12.7201 80.2161 12.7201C80.3094 12.7201 80.3894 12.7134 80.4561 12.7001C80.7361 12.6467 80.9161 12.5267 80.9961 12.3401C81.0894 12.1401 81.1561 11.9134 81.1961 11.6601C81.3028 11.0067 81.4094 10.2534 81.5161 9.40008C81.6228 8.54674 81.7228 7.66674 81.8161 6.76008C81.9094 5.85341 81.9894 4.99341 82.0561 4.18008C82.1228 3.36674 82.1761 2.68008 82.2161 2.12008C82.2561 1.61341 82.2094 1.27341 82.0761 1.10008C81.9561 0.913411 81.7494 0.813411 81.4561 0.800078C81.1761 0.773411 80.8094 0.760077 80.3561 0.760077C80.1828 0.760077 80.0961 0.720077 80.0961 0.640077C80.0961 0.586744 80.1361 0.53341 80.2161 0.480077C80.2961 0.426744 80.3761 0.400078 80.4561 0.400078C80.5361 0.400078 80.6628 0.406745 80.8361 0.420078C81.0094 0.420078 81.1828 0.426744 81.3561 0.440078C81.5294 0.440078 81.6361 0.440078 81.6761 0.440078C82.1428 0.453411 82.5361 0.460077 82.8561 0.460077C83.1894 0.460077 83.4894 0.460077 83.7561 0.460077H84.4161C84.5361 0.460077 84.5961 0.533411 84.5961 0.680078C84.5961 0.746745 84.5894 0.826744 84.5761 0.920077C84.5628 1.00008 84.5428 1.08674 84.5161 1.18008C84.4628 1.54008 84.4161 1.85341 84.3761 2.12008C84.3361 2.38674 84.2894 2.70008 84.2361 3.06008C84.1294 3.75341 84.0161 4.52674 83.8961 5.38008C83.7761 6.22008 83.6561 7.07341 83.5361 7.94008C83.4294 8.79341 83.3361 9.60674 83.2561 10.3801C83.1894 11.1401 83.1561 11.7801 83.1561 12.3001V12.3601C83.1561 12.4934 83.1828 12.5801 83.2361 12.6201C83.2894 12.6601 83.3294 12.6734 83.3561 12.6601C83.4361 12.6601 83.4828 12.6001 83.4961 12.4801C83.5228 12.3601 83.5428 12.2467 83.5561 12.1401C83.6228 11.7001 83.7161 11.1201 83.8361 10.4001C83.9694 9.66674 84.0961 8.91341 84.2161 8.14008C84.3494 7.38008 84.5628 6.67341 84.8561 6.02008C85.1494 5.35341 85.5361 4.82008 86.0161 4.42008C86.5094 4.02008 87.0961 3.82008 87.7761 3.82008C88.7761 3.82008 89.2761 4.30674 89.2761 5.28008C89.2761 5.34674 89.2694 5.42008 89.2561 5.50008C89.2561 5.58008 89.2494 5.66674 89.2361 5.76008C89.1428 6.42674 89.0294 7.12008 88.8961 7.84008C88.7761 8.54674 88.6828 9.25341 88.6161 9.96008C88.6028 10.0934 88.5761 10.2934 88.5361 10.5601C88.5094 10.8267 88.4961 11.1001 88.4961 11.3801C88.4961 11.6867 88.5361 11.9667 88.6161 12.2201C88.6961 12.4601 88.8494 12.6001 89.0761 12.6401C89.2228 12.6667 89.4094 12.6867 89.6361 12.7001C89.8628 12.7134 90.0761 12.7267 90.2761 12.7401C90.4894 12.7401 90.6494 12.7401 90.7561 12.7401H90.7761C90.8428 12.7401 90.8761 12.7667 90.8761 12.8201C90.8761 12.8734 90.8428 12.9334 90.7761 13.0001C90.7094 13.0534 90.6361 13.0801 90.5561 13.0801C90.0228 13.0801 89.4894 13.0667 88.9561 13.0401C88.4361 13.0134 87.9094 13.0001 87.3761 13.0001C87.2161 13.0001 87.0561 13.0001 86.8961 13.0001C86.7494 13.0001 86.5961 13.0067 86.4361 13.0201C86.3828 13.0201 86.3294 13.0267 86.2761 13.0401C86.2361 13.0401 86.2028 13.0401 86.1761 13.0401C86.0161 13.0401 85.9361 12.9867 85.9361 12.8801C85.9361 12.8401 85.9428 12.7934 85.9561 12.7401C85.9828 12.6734 86.0028 12.5934 86.0161 12.5001C86.0961 12.2334 86.1828 11.8867 86.2761 11.4601C86.3694 11.0201 86.4628 10.5534 86.5561 10.0601C86.6494 9.56674 86.7294 9.10674 86.7961 8.68008C86.8228 8.50674 86.8561 8.24674 86.8961 7.90008C86.9494 7.55341 86.9761 7.20674 86.9761 6.86008C86.9761 6.48674 86.9294 6.16008 86.8361 5.88008C86.7428 5.60008 86.5628 5.46008 86.2961 5.46008C85.9628 5.46008 85.6694 5.62008 85.4161 5.94008C85.1628 6.24674 84.9561 6.63341 84.7961 7.10008C84.6361 7.55341 84.5161 8.00008 84.4361 8.44008C84.3961 8.64008 84.3428 8.94008 84.2761 9.34008C84.2094 9.72674 84.1428 10.1401 84.0761 10.5801C84.0094 11.0067 83.9494 11.3801 83.8961 11.7001C83.8428 12.0201 83.8094 12.2134 83.7961 12.2801C83.7828 12.3201 83.7761 12.3601 83.7761 12.4001C83.7761 12.4401 83.7761 12.4734 83.7761 12.5001C83.7761 12.6201 83.8094 12.6934 83.8761 12.7201C83.9428 12.7334 84.0361 12.7401 84.1561 12.7401H84.8361C84.8894 12.7401 84.9161 12.7601 84.9161 12.8001C84.9161 12.8534 84.8828 12.9201 84.8161 13.0001C84.7628 13.0667 84.7094 13.0934 84.6561 13.0801C84.2561 13.0534 83.8561 13.0334 83.4561 13.0201C83.0694 13.0067 82.6828 13.0001 82.2961 13.0001C82.1761 13.0001 82.0561 13.0067 81.9361 13.0201C81.8161 13.0201 81.6961 13.0201 81.5761 13.0201C81.3228 13.0334 81.0628 13.0534 80.7961 13.0801C80.5294 13.0934 80.1761 13.1001 79.7361 13.1001ZM94.2066 13.2001C93.7132 13.2001 93.3199 13.0334 93.0266 12.7001C92.7466 12.3667 92.6066 11.8334 92.6066 11.1001C92.6066 10.8867 92.6199 10.6601 92.6466 10.4201C92.6732 10.1667 92.7132 9.90008 92.7666 9.62008C92.8332 9.27341 92.8999 8.85341 92.9666 8.36008C93.0466 7.86674 93.1132 7.37341 93.1666 6.88008C93.2332 6.38674 93.2799 5.96674 93.3066 5.62008C93.3466 5.16674 93.2999 4.84674 93.1666 4.66008C93.0332 4.47341 92.8266 4.36008 92.5466 4.32008C92.2666 4.28008 91.9132 4.26008 91.4866 4.26008C91.2332 4.26008 91.1066 4.22008 91.1066 4.14008C91.1066 4.08674 91.1399 4.04008 91.2066 4.00008C91.2866 3.94674 91.3599 3.92008 91.4266 3.92008L92.6666 3.94008C92.9332 3.94008 93.1866 3.94674 93.4266 3.96008C93.6799 3.96008 93.9132 3.96008 94.1266 3.96008C94.4599 3.96008 94.7599 3.95341 95.0266 3.94008C95.2932 3.92674 95.5332 3.92008 95.7466 3.92008C95.8932 3.92008 95.9666 3.96674 95.9666 4.06008C95.9666 4.11341 95.9399 4.18674 95.8866 4.28008C95.8466 4.36008 95.8132 4.44008 95.7866 4.52008C95.7066 4.76008 95.6199 5.12008 95.5266 5.60008C95.4332 6.08008 95.3332 6.61341 95.2266 7.20008C95.1332 7.77341 95.0466 8.34008 94.9666 8.90008C94.8866 9.44674 94.8199 9.92008 94.7666 10.3201C94.7532 10.4134 94.7399 10.5067 94.7266 10.6001C94.7266 10.6934 94.7266 10.7867 94.7266 10.8801C94.7266 11.3334 94.7999 11.6801 94.9466 11.9201C95.0932 12.1601 95.2732 12.2801 95.4866 12.2801C95.8066 12.2801 96.0732 12.1134 96.2866 11.7801C96.4999 11.4334 96.6732 11.0134 96.8066 10.5201C96.9399 10.0267 97.0332 9.54674 97.0866 9.08008C97.1932 8.30674 97.2866 7.57341 97.3666 6.88008C97.4466 6.18674 97.5132 5.59341 97.5666 5.10008C97.6199 4.60674 97.6532 4.27341 97.6666 4.10008C97.6932 3.99341 97.7399 3.94008 97.8066 3.94008C97.8866 3.94008 97.9266 3.99341 97.9266 4.10008L97.3466 9.16008C97.3066 9.53341 97.2332 9.95341 97.1266 10.4201C97.0332 10.8734 96.8799 11.3134 96.6666 11.7401C96.4532 12.1667 96.1466 12.5201 95.7466 12.8001C95.3599 13.0667 94.8466 13.2001 94.2066 13.2001ZM97.2266 13.1001C97.1066 13.1001 97.0466 13.0601 97.0466 12.9801C97.0466 12.8601 97.1066 12.6001 97.2266 12.2001C97.3466 11.8001 97.4799 11.1534 97.6266 10.2601C97.7599 9.54008 97.8599 8.81341 97.9266 8.08008C98.0066 7.34674 98.0666 6.66008 98.1066 6.02008C98.1599 5.38008 98.2066 4.84674 98.2466 4.42008C98.2732 4.22008 98.2999 4.10008 98.3266 4.06008C98.3666 4.02008 98.4532 4.00008 98.5866 4.00008C99.2399 4.00008 99.9399 3.98674 100.687 3.96008C101.447 3.93341 102.093 3.92008 102.627 3.92008C102.72 3.92008 102.767 3.96008 102.767 4.04008C102.767 4.09341 102.733 4.15341 102.667 4.22008C102.613 4.28674 102.553 4.31341 102.487 4.30008C102.3 4.30008 102.14 4.30008 102.007 4.30008C101.887 4.28674 101.793 4.28008 101.727 4.28008C101.42 4.28008 101.147 4.34674 100.907 4.48008C100.667 4.60008 100.507 4.82008 100.427 5.14008C100.333 5.52674 100.233 6.00008 100.127 6.56008C100.033 7.12008 99.9399 7.71341 99.8466 8.34008C99.7666 8.96674 99.6999 9.58008 99.6466 10.1801C99.5932 10.7801 99.5666 11.3201 99.5666 11.8001C99.5666 12.0667 99.6332 12.2667 99.7666 12.4001C99.9132 12.5334 100.053 12.6134 100.187 12.6401C100.333 12.6667 100.52 12.6867 100.747 12.7001C100.973 12.7134 101.187 12.7267 101.387 12.7401C101.6 12.7401 101.76 12.7401 101.867 12.7401H101.887C101.953 12.7401 101.987 12.7667 101.987 12.8201C101.987 12.8734 101.953 12.9334 101.887 13.0001C101.82 13.0534 101.747 13.0801 101.667 13.0801C100.907 13.0801 100.173 13.0801 99.4666 13.0801C98.7599 13.0934 98.0132 13.1001 97.2266 13.1001ZM110.957 13.1601C110.904 13.1601 110.844 13.1601 110.777 13.1601C110.724 13.1601 110.664 13.1534 110.597 13.1401C110.157 13.0867 109.757 12.8867 109.397 12.5401C109.037 12.1934 108.711 11.7667 108.417 11.2601C108.137 10.7401 107.897 10.2001 107.697 9.64008C107.497 9.06674 107.337 8.53341 107.217 8.04008C107.044 8.73341 106.897 9.48008 106.777 10.2801C106.657 11.0667 106.544 11.7334 106.437 12.2801C106.424 12.3334 106.417 12.4001 106.417 12.4801C106.417 12.6134 106.491 12.6934 106.637 12.7201C106.731 12.7201 106.837 12.7201 106.957 12.7201C107.091 12.7067 107.244 12.7001 107.417 12.7001H107.457C107.524 12.7001 107.557 12.7334 107.557 12.8001C107.557 12.8534 107.531 12.9067 107.477 12.9601C107.437 13.0134 107.384 13.0401 107.317 13.0401C107.104 13.0401 106.971 13.0334 106.917 13.0201C106.864 12.9934 106.724 12.9801 106.497 12.9801C105.657 12.9801 104.817 13.0001 103.977 13.0401C103.657 13.0534 103.311 13.0667 102.937 13.0801C102.564 13.0801 102.217 13.0801 101.897 13.0801C101.831 13.0801 101.797 13.0534 101.797 13.0001C101.797 12.9467 101.831 12.8867 101.897 12.8201C101.964 12.7534 102.037 12.7201 102.117 12.7201H102.897C103.204 12.7201 103.424 12.6401 103.557 12.4801C103.691 12.3067 103.784 12.0334 103.837 11.6601C103.931 11.1401 104.017 10.5467 104.097 9.88008C104.191 9.20008 104.277 8.49341 104.357 7.76008C104.437 7.01341 104.511 6.28674 104.577 5.58008C104.644 4.86008 104.704 4.20008 104.757 3.60008C104.811 3.00008 104.844 2.50674 104.857 2.12008C104.884 1.61341 104.831 1.27341 104.697 1.10008C104.577 0.913411 104.377 0.813411 104.097 0.800078C103.817 0.773411 103.444 0.760077 102.977 0.760077C102.817 0.760077 102.737 0.720077 102.737 0.640077C102.737 0.586744 102.771 0.53341 102.837 0.480077C102.917 0.426744 102.997 0.400078 103.077 0.400078C103.157 0.400078 103.284 0.406745 103.457 0.420078C103.644 0.420078 103.817 0.426744 103.977 0.440078C104.137 0.440078 104.244 0.440078 104.297 0.440078C104.764 0.453411 105.157 0.460077 105.477 0.460077C105.811 0.460077 106.111 0.460077 106.377 0.460077H107.057C107.164 0.460077 107.217 0.526744 107.217 0.660077C107.217 0.713411 107.211 0.786744 107.197 0.880078C107.184 0.973411 107.164 1.07341 107.137 1.18008C107.004 2.03341 106.877 2.88674 106.757 3.74008C106.637 4.58008 106.524 5.42674 106.417 6.28008C106.324 7.02674 106.231 7.77341 106.137 8.52008C106.044 9.26674 105.964 9.96674 105.897 10.6201C105.844 11.2734 105.817 11.8334 105.817 12.3001V12.3401C105.817 12.5534 105.864 12.6601 105.957 12.6601C106.091 12.6601 106.177 12.4867 106.217 12.1401C106.244 11.9134 106.291 11.6067 106.357 11.2201C106.424 10.8334 106.484 10.4534 106.537 10.0801C106.604 9.74674 106.677 9.33341 106.757 8.84008C106.851 8.33341 106.957 7.83341 107.077 7.34008C107.064 7.23341 107.044 7.13341 107.017 7.04008C107.004 6.94674 106.997 6.86008 106.997 6.78008V6.72008C106.997 6.64008 107.024 6.58674 107.077 6.56008C107.144 6.52008 107.204 6.53341 107.257 6.60008C107.377 6.10674 107.504 5.71341 107.637 5.42008C107.864 4.96674 108.137 4.56674 108.457 4.22008C108.791 3.86008 109.157 3.68008 109.557 3.68008C109.824 3.68008 110.071 3.70674 110.297 3.76008C110.537 3.80008 110.764 3.82008 110.977 3.82008C111.351 3.82008 111.604 3.75341 111.737 3.62008C111.791 3.59341 111.817 3.58008 111.817 3.58008C111.844 3.58008 111.857 3.60008 111.857 3.64008C111.857 3.73341 111.797 3.88008 111.677 4.08008C111.571 4.28008 111.431 4.49341 111.257 4.72008C111.084 4.93341 110.911 5.13341 110.737 5.32008C110.564 5.49341 110.424 5.60674 110.317 5.66008C110.184 5.71341 110.051 5.75341 109.917 5.78008C109.784 5.79341 109.644 5.80008 109.497 5.80008C109.351 5.80008 109.197 5.80008 109.037 5.80008C108.891 5.78674 108.737 5.77341 108.577 5.76008C108.351 5.76008 108.151 5.88674 107.977 6.14008C107.804 6.38008 107.644 6.70008 107.497 7.10008C107.644 7.36674 107.844 7.69341 108.097 8.08008C108.351 8.45341 108.637 8.84674 108.957 9.26008C109.291 9.67341 109.631 10.0601 109.977 10.4201C110.324 10.7801 110.651 11.0734 110.957 11.3001C111.277 11.5267 111.551 11.6401 111.777 11.6401C111.857 11.6401 111.957 11.6067 112.077 11.5401C112.197 11.4601 112.257 11.3001 112.257 11.0601C112.257 11.0067 112.251 10.9534 112.237 10.9001C112.237 10.8467 112.231 10.7934 112.217 10.7401C112.217 10.7134 112.211 10.6934 112.197 10.6801C112.197 10.6667 112.197 10.6534 112.197 10.6401C112.197 10.4801 112.257 10.4001 112.377 10.4001C112.457 10.4001 112.497 10.4467 112.497 10.5401C112.484 10.6734 112.484 10.8067 112.497 10.9401C112.511 11.0734 112.524 11.1934 112.537 11.3001C112.564 11.8601 112.451 12.3134 112.197 12.6601C111.957 12.9934 111.544 13.1601 110.957 13.1601ZM112.657 13.1001C112.564 13.1001 112.457 13.0934 112.337 13.0801C112.217 13.0801 112.084 13.0801 111.937 13.0801H111.897C111.857 13.0801 111.837 13.0601 111.837 13.0201C111.837 12.9667 111.877 12.9067 111.957 12.8401C112.024 12.7601 112.084 12.7201 112.137 12.7201H113.177C113.604 12.7201 113.917 12.5334 114.117 12.1601C114.33 11.7734 114.49 11.2667 114.597 10.6401C114.837 9.25341 115.01 7.84008 115.117 6.40008C115.224 4.96008 115.324 3.53341 115.417 2.12008C115.457 1.61341 115.41 1.27341 115.277 1.10008C115.157 0.913411 114.95 0.813411 114.657 0.800078C114.377 0.773411 114.004 0.760077 113.537 0.760077C113.377 0.760077 113.297 0.720077 113.297 0.640077C113.297 0.586744 113.33 0.53341 113.397 0.480077C113.477 0.426744 113.557 0.400078 113.637 0.400078C113.717 0.400078 113.844 0.406745 114.017 0.420078C114.204 0.420078 114.377 0.426744 114.537 0.440078C114.71 0.440078 114.817 0.440078 114.857 0.440078C115.324 0.453411 115.717 0.460077 116.037 0.460077C116.37 0.460077 116.67 0.460077 116.937 0.460077H117.617C117.737 0.460077 117.797 0.533411 117.797 0.680078C117.797 0.786744 117.764 0.953411 117.697 1.18008C117.644 1.54008 117.584 1.90008 117.517 2.26008C117.464 2.60674 117.41 2.95341 117.357 3.30008C117.224 4.32674 117.09 5.36008 116.957 6.40008C116.824 7.44008 116.71 8.42674 116.617 9.36008C116.537 10.2934 116.497 11.1134 116.497 11.8201C116.497 12.0867 116.57 12.2867 116.717 12.4201C116.877 12.5401 117.024 12.6134 117.157 12.6401C117.304 12.6667 117.504 12.6867 117.757 12.7001C118.024 12.7134 118.277 12.7267 118.517 12.7401C118.757 12.7401 118.93 12.7401 119.037 12.7401H119.057C119.124 12.7401 119.157 12.7667 119.157 12.8201C119.157 12.8734 119.124 12.9334 119.057 13.0001C119.004 13.0534 118.937 13.0801 118.857 13.0801C118.284 13.0801 117.704 13.0667 117.117 13.0401C116.544 13.0134 115.964 13.0001 115.377 13.0001C115.244 13.0001 115.104 13.0001 114.957 13.0001C114.81 13.0001 114.664 13.0067 114.517 13.0201C114.25 13.0334 113.984 13.0534 113.717 13.0801C113.45 13.0934 113.097 13.1001 112.657 13.1001ZM120.28 13.2001C120.027 13.2001 119.813 13.1201 119.64 12.9601C119.48 12.8001 119.347 12.6134 119.24 12.4001C119.147 12.1734 119.08 11.9534 119.04 11.7401C119 11.5134 118.98 11.3401 118.98 11.2201C118.98 10.6334 119.107 10.1401 119.36 9.74008C119.627 9.34008 119.967 9.02008 120.38 8.78008C120.807 8.52674 121.267 8.34008 121.76 8.22008C122.267 8.08674 122.767 8.00008 123.26 7.96008C123.767 7.90674 124.213 7.88674 124.6 7.90008C124.6 7.90008 124.613 7.77341 124.64 7.52008C124.68 7.26674 124.707 7.04674 124.72 6.86008C124.733 6.62008 124.727 6.35341 124.7 6.06008C124.673 5.76674 124.593 5.51341 124.46 5.30008C124.433 5.26008 124.387 5.19341 124.32 5.10008C124.253 4.99341 124.267 4.92008 124.36 4.88008C124.373 4.86674 124.4 4.86008 124.44 4.86008C124.52 4.86008 124.607 4.93341 124.7 5.08008C124.807 5.22674 124.873 5.41341 124.9 5.64008C124.94 5.86674 124.96 6.10674 124.96 6.36008C124.96 6.45341 124.96 6.54008 124.96 6.62008C124.96 6.70008 124.953 6.78674 124.94 6.88008C124.927 7.09341 124.9 7.32008 124.86 7.56008C124.833 7.78674 124.82 7.90008 124.82 7.90008C124.847 7.91341 124.88 7.92008 124.92 7.92008C125.08 7.92008 125.167 7.85341 125.18 7.72008C125.207 7.53341 125.233 7.28008 125.26 6.96008C125.3 6.62674 125.32 6.28674 125.32 5.94008C125.32 5.44674 125.253 5.00674 125.12 4.62008C125 4.22008 124.74 4.02008 124.34 4.02008C124.087 4.02008 123.847 4.08008 123.62 4.20008C123.393 4.30674 123.2 4.43341 123.04 4.58008C122.8 4.80674 122.627 5.07341 122.52 5.38008C122.427 5.67341 122.347 5.95341 122.28 6.22008C122.227 6.48674 122.127 6.68674 121.98 6.82008C121.807 6.99341 121.647 7.10674 121.5 7.16008C121.367 7.21341 121.193 7.30674 120.98 7.44008C120.913 7.48008 120.813 7.53341 120.68 7.60008C120.56 7.65341 120.447 7.68008 120.34 7.68008C120.247 7.68008 120.167 7.64008 120.1 7.56008C120.033 7.48008 120.013 7.33341 120.04 7.12008C120.08 6.82674 120.12 6.51341 120.16 6.18008C120.2 5.83341 120.247 5.61341 120.3 5.52008C120.473 5.24008 120.72 4.99341 121.04 4.78008C121.373 4.56674 121.74 4.38674 122.14 4.24008C122.54 4.08008 122.933 3.96008 123.32 3.88008C123.707 3.80008 124.047 3.75341 124.34 3.74008C124.913 3.70008 125.447 3.76008 125.94 3.92008C126.447 4.08008 126.853 4.32674 127.16 4.66008C127.467 4.99341 127.62 5.41341 127.62 5.92008C127.62 6.09341 127.6 6.28008 127.56 6.48008C127.427 7.05341 127.313 7.63341 127.22 8.22008C127.127 8.79341 127.053 9.37341 127 9.96008C126.987 10.0934 126.96 10.2934 126.92 10.5601C126.893 10.8267 126.88 11.1001 126.88 11.3801C126.88 11.6867 126.92 11.9667 127 12.2201C127.08 12.4734 127.233 12.6201 127.46 12.6601C127.607 12.6867 127.793 12.7067 128.02 12.7201C128.247 12.7334 128.46 12.7401 128.66 12.7401C128.873 12.7401 129.033 12.7401 129.14 12.7401H129.16C129.227 12.7401 129.26 12.7667 129.26 12.8201C129.26 12.8734 129.227 12.9334 129.16 13.0001C129.093 13.0534 129.02 13.0801 128.94 13.0801C128.473 13.0801 128.007 13.0734 127.54 13.0601C127.073 13.0467 126.607 13.0401 126.14 13.0401C125.913 13.0401 125.68 13.0467 125.44 13.0601C125.213 13.0734 124.98 13.0801 124.74 13.0801H124.54C124.38 13.0801 124.3 13.0401 124.3 12.9601C124.3 12.9201 124.307 12.8667 124.32 12.8001C124.347 12.7201 124.373 12.6267 124.4 12.5201C124.48 12.2267 124.56 11.8667 124.64 11.4401C124.72 11.0134 124.793 10.5867 124.86 10.1601C124.94 9.72008 125 9.34008 125.04 9.02008C125.08 8.68674 125.1 8.47341 125.1 8.38008V8.34008C125.1 8.24674 125.067 8.18674 125 8.16008C124.933 8.13341 124.867 8.11341 124.8 8.10008C124.733 8.67341 124.613 9.26008 124.44 9.86008C124.28 10.4467 124.08 10.9934 123.84 11.5001C123.613 12.0067 123.373 12.4201 123.12 12.7401C122.867 13.0467 122.62 13.2001 122.38 13.2001H120.28ZM122.42 11.9401C122.82 11.9401 123.153 11.7867 123.42 11.4801C123.633 11.2401 123.813 10.9467 123.96 10.6001C124.107 10.2401 124.22 9.88008 124.3 9.52008C124.393 9.16008 124.46 8.84674 124.5 8.58008C124.553 8.31341 124.587 8.14674 124.6 8.08008C124.52 8.06674 124.44 8.06008 124.36 8.06008C124.293 8.06008 124.227 8.06008 124.16 8.06008C123.813 8.06008 123.487 8.11341 123.18 8.22008C122.887 8.31341 122.627 8.44008 122.4 8.60008C122.107 8.81341 121.853 9.11341 121.64 9.50008C121.427 9.87341 121.32 10.2601 121.32 10.6601C121.32 10.9001 121.367 11.1201 121.46 11.3201C121.553 11.5334 121.687 11.6934 121.86 11.8001C122.033 11.8934 122.22 11.9401 122.42 11.9401Z" fill="black"/>
</svg>
