<svg width="87" height="21" viewBox="0 0 87 21" fill="none" xmlns="http://www.w3.org/2000/svg">
<path d="M19.2843 5.06031C19.649 5.32478 20.3452 7.32648 20.46 7.79478C21.7766 13.1646 18.6102 19.0031 13.135 20.3807C3.97129 22.6863 -3.25892 13.3073 1.51511 5.05835C1.63828 5.87732 1.82466 6.4926 2.04658 7.29418C2.53601 9.64836 3.25358 12.0389 3.86364 14.3701C4.08246 15.2063 4.29994 16.2143 4.6298 16.9922C5.52443 17.0695 6.63878 17.0158 7.60164 17.0784C7.89083 16.5143 8.0452 15.709 8.22752 15.0897C8.84738 12.9843 9.38401 10.8533 9.99174 8.74386C10.1116 8.32792 10.2106 7.9138 10.3876 7.51693C10.673 8.27493 10.8555 9.43611 11.068 10.2591C11.6325 12.5257 12.2392 14.7815 12.8879 17.0253L16.0586 17.0108C16.1092 16.8636 16.152 16.7051 16.1914 16.5543C16.6394 14.8412 17.1283 13.1447 17.5958 11.4365L18.5346 7.9537C18.8039 6.97605 19.0897 6.05607 19.2843 5.06031Z" fill="#444444"/>
<path d="M66.763 3.71361C67.5318 3.72265 68.3015 3.7203 69.0702 3.70654C69.8256 6.04768 70.4309 8.39981 70.9999 10.7927C71.2866 11.9966 71.6669 13.1968 72.0305 14.3803C72.2144 13.5191 72.5035 12.6426 72.7151 11.7845C72.8766 11.2247 72.9392 10.595 73.0988 10.0398C73.4007 8.98947 73.641 7.94469 73.8976 6.88591C74.1551 5.82287 74.5254 4.80929 74.7017 3.71911L76.9764 3.73688C76.6735 5.22235 76.1097 6.60973 75.7184 8.05277C75.1594 10.1132 74.5125 12.1416 73.8938 14.1842C73.5694 15.2551 73.4681 15.9601 73.029 17.0376C72.2001 17.0295 71.3946 17.0583 70.5666 17.0807C70.2503 16.272 70.1184 15.3305 69.8776 14.4943C69.6665 13.7607 69.4362 13.0338 69.2312 12.2986C69.0831 11.7764 69.0143 11.207 68.8581 10.6901C68.5485 9.66773 68.2819 8.67268 68.0564 7.62862C68.0239 7.54987 67.9321 7.05285 67.9097 6.93918C67.6937 7.36501 67.3397 8.70857 67.1892 9.23521L65.7172 14.234C65.5294 14.8754 65.0889 16.5246 64.8333 17.025C64.0168 17.0929 63.2118 17.0459 62.3995 17.1285C62.2557 16.7589 62.1363 16.2723 62.0326 15.8812C60.9581 11.8309 59.6858 7.79031 58.5764 3.75552C59.3471 3.74453 60.1182 3.74209 60.8888 3.7483C61.3136 5.4228 61.8229 7.12147 62.2481 8.80556L63.1081 12.2055C63.2189 12.645 63.4827 14.021 63.7416 14.2974L63.8061 14.2916C64.0732 13.9029 64.4344 12.0047 64.5858 11.4372C65.0875 9.55922 65.5863 7.73268 66.1716 5.87629C66.3956 5.16569 66.4869 4.48581 66.763 3.71361Z" fill="#444444"/>
<path d="M37.5969 3.70262L40.4972 3.6977C42.2875 3.70066 44.5631 3.62192 45.951 5.0049C46.6376 5.70064 47.026 6.63706 47.0327 7.61471C47.0346 8.9587 46.2659 10.4162 45.0394 11.0126C44.6414 11.2061 44.221 11.3778 43.8111 11.5462C44.7666 12.7978 45.4274 14.27 46.3542 15.5562C46.6787 16.007 46.855 16.5024 47.2381 16.9761C46.3265 16.9746 45.4149 16.9898 44.5038 17.0218C44.2864 16.7087 43.5965 15.4003 43.3925 14.9954C43.0481 14.3128 41.87 12.4398 41.6976 11.8461C41.4408 11.7877 40.2531 11.8847 39.8032 11.8156C39.9179 13.3092 39.8236 15.4137 39.8621 16.9559C39.1191 16.987 38.3836 16.9851 37.6401 16.9869C37.6498 12.5588 37.6353 8.1306 37.5969 3.70262Z" fill="#444444"/>
<path d="M39.8027 11.8163L39.8247 11.6988C40.0275 11.5617 41.2308 11.6426 41.5068 11.6905C41.6316 11.7122 41.6394 11.7566 41.6971 11.8468C41.4403 11.7884 40.2527 11.8854 39.8027 11.8163Z" fill="#C8ACD2"/>
<path d="M41.0335 5.48822C42.2094 5.44311 43.959 5.3594 44.4716 6.63607C45.0163 7.99248 44.592 9.22275 43.2901 9.83531C42.367 10.0992 40.7888 10.0067 39.7781 9.99791C39.7438 8.50976 39.7491 7.02099 39.7938 5.53313L41.0335 5.48822Z" fill="#FEFEFD"/>
<path d="M9.57607 0.0385834C9.65595 0.0213248 10.2234 -0.00166752 10.3254 9.5604e-05C13.6741 0.0579969 16.0902 1.3538 18.4063 3.59706C17.8692 3.60705 17.371 3.62143 16.8458 3.74002C16.4934 5.46488 16.0503 7.18433 15.6432 8.89719L14.466 14.0264C14.2011 12.7123 13.8057 11.5237 13.5258 10.2409C13.0385 8.00784 12.3718 5.82625 11.8601 3.60447L11.198 3.60604C10.455 3.59763 9.71209 3.62095 8.97116 3.6759C8.793 4.55794 8.47265 5.46311 8.23941 6.3366C7.68658 8.40681 7.19352 10.4909 6.6587 12.5657C6.51551 13.1211 6.36673 13.6382 6.27729 14.2072C6.09239 13.2784 5.88676 12.5172 5.67573 11.6053L4.62783 7.09331C4.35091 5.95043 4.18608 4.7893 3.78829 3.70376C3.39399 3.6436 2.79295 3.67404 2.3963 3.69224C2.81507 3.27511 3.38185 2.65895 3.82546 2.30518C5.61821 0.875505 7.33847 0.270346 9.57607 0.0385834Z" fill="#444444"/>
<path d="M78.7845 3.703C81.1805 3.70491 83.7982 3.76287 86.1747 3.70812C86.1728 4.31231 86.1728 4.88774 86.1393 5.49164C84.4647 5.49671 82.6506 5.46804 80.9937 5.59031C80.9736 6.85575 80.9646 8.12138 80.9665 9.38696L85.6854 9.38166L85.6439 11.1715C84.6463 11.3265 82.0233 11.5238 81.1509 11.1681L81.0558 11.2342C80.9436 12.4393 81.0066 14.04 80.9837 15.2695C82.7089 15.2293 84.4461 15.2801 86.1718 15.261C86.1718 15.5612 86.2139 16.8881 86.0901 17.0633L86.0629 17.0693C85.0008 17.4472 82.3764 17.1134 81.1901 17.2266C80.8509 17.259 79.4892 17.2334 79.2408 17.0585C79.1027 17.0739 79.0138 17.0926 78.8786 17.0521C78.6818 16.8375 78.7745 16.2039 78.7754 15.8493C78.6631 15.1216 78.6713 12.5262 78.6899 11.648C78.7276 9.84604 78.6144 7.44293 78.7721 5.68955L78.7845 3.703Z" fill="#444444"/>
<path d="M78.7754 15.8488C78.6631 15.1211 78.6713 12.5258 78.6899 11.6475C78.7276 9.84557 78.6144 7.44247 78.7721 5.68909C78.7869 6.33738 78.8781 6.97163 78.8963 7.61085C78.9269 8.69668 78.8972 9.79894 78.9087 10.8851C78.9273 12.6063 78.9388 14.1336 78.7754 15.8488Z" fill="#987EAA"/>
<path d="M79.2405 17.0581C79.8802 16.9627 81.5801 16.992 82.3235 16.9994C83.4707 17.011 84.9556 16.9697 86.0626 17.0689C85.0005 17.4468 82.3761 17.113 81.1898 17.2262C80.8506 17.2586 79.4889 17.2331 79.2405 17.0581Z" fill="#C8ACD2"/>
<path d="M81.1505 11.1666C82.6913 11.1258 84.0973 11.1052 85.6434 11.1699C84.6458 11.325 82.0229 11.5222 81.1505 11.1666Z" fill="#C8ACD2"/>
<path d="M49.6298 3.703C52.0736 3.7494 54.611 3.7031 57.0706 3.7214C57.0587 4.30653 57.0329 4.89132 56.9927 5.47521C55.332 5.56131 53.6316 5.47726 51.9307 5.56733C51.9016 6.84017 51.8987 8.11345 51.9231 9.38639L56.5083 9.38385C56.4858 9.8437 56.4337 10.69 56.4949 11.126C56.4825 11.176 56.4734 11.2733 56.4318 11.2918C56.0157 11.4752 52.0788 11.249 52.0182 11.2894C51.9928 11.5333 51.9862 12.1682 51.9384 12.3278C51.9245 13.3107 51.9317 14.2938 51.9594 15.2764L57.0501 15.2648L57.0439 17.0385C56.2307 17.3645 51.9766 17.213 50.85 17.1897C50.7268 17.1872 50.4167 17.1017 50.2815 17.0628C50.1482 17.0805 49.8262 17.0827 49.679 17.088C49.6049 12.6267 49.5887 8.16467 49.6298 3.703Z" fill="#444444"/>
<path d="M57.0442 17.038C56.2311 17.364 51.977 17.2125 50.8504 17.1892C50.7271 17.1867 50.4171 17.1012 50.2819 17.0623C50.6712 16.9902 52.0888 16.9937 52.5231 16.9933C54.03 16.9902 55.5373 17.0051 57.0442 17.038Z" fill="#C8ACD2"/>
<path d="M51.945 11.1624C53.3205 11.1173 55.1289 11.0573 56.4944 11.1255C56.482 11.1755 56.4729 11.2727 56.4313 11.2912C56.0152 11.4747 52.0783 11.2485 52.0177 11.2889C51.9923 11.5328 51.9856 12.1676 51.9379 12.3273C51.9226 11.9978 51.9431 11.5065 51.945 11.1624Z" fill="#C8ACD2"/>
<path d="M28.6625 3.6251C29.4484 3.60308 30.2947 3.62477 31.0792 3.65406C31.3403 4.59425 31.9376 5.97346 32.2791 6.95316C33.4554 10.2884 34.6606 13.6133 35.8947 16.9276C35.0852 16.9165 34.2897 16.931 33.4784 16.8982C33.0912 15.2987 32.1988 13.0598 31.6573 11.4726C31.1928 10.111 30.6821 8.47127 30.1632 7.16115C30.0748 6.89291 29.9842 6.5162 29.9086 6.23625C29.3859 7.03286 28.8645 8.91463 28.5403 9.85042L26.9626 14.2648C26.6482 15.1564 26.391 16.0036 26.0563 16.9145C25.3463 16.9346 24.5916 16.9257 23.8781 16.9291C24.6338 14.4545 25.637 11.9227 26.4984 9.48361L27.7261 5.98669C27.8344 5.67736 28.4707 3.75927 28.6625 3.6251Z" fill="#3C3D3A"/>
</svg>
